<svg xmlns="http://www.w3.org/2000/svg" xmlns:xlink="http://www.w3.org/1999/xlink" width="262.275" height="147.744" viewBox="0 0 196.706 110.808"><clipPath id="a"><path transform="matrix(1 0 0 -1 -207.135 720.643)" d="M0 0h612v792H0z"/></clipPath><g clip-path="url(#a)"><symbol id="b"><path d="M.819.154c0 .01-.009.01-.012.01-.01 0-.01-.003-.015-.018C.777.093.745.022.69.022c-.017 0-.024.01-.024.033a.19.19 0 0 0 .018.071c.019.052.061.163.061.22 0 .065-.04.107-.115.107C.555.453.504.409.467.356a.1.1 0 0 1-.032.071.127.127 0 0 1-.082.026.193.193 0 0 1-.156-.087.09.09 0 0 1-.092.087C.059.453.04.414.031.396A.436.436 0 0 1 0 .299c0-.01.012-.01.012-.01.01 0 .011.001.017.023.017.071.037.119.073.119.016 0 .031-.008.031-.046C.133.364.13.353.117.301L.059.07C.056.055.05.032.05.027.05.009.064 0 .079 0a.04.04 0 0 1 .037.028 2.1 2.1 0 0 1 .019.074l.022.09.017.067.013.05C.202.34.255.431.35.431c.045 0 .054-.037.054-.07A.34.34 0 0 0 .389.278L.361.162.341.086C.337.066.328.032.328.027.328.009.342 0 .357 0c.031 0 .037.025.045.057l.06.241c.003.013.056.133.165.133.043 0 .054-.034.054-.07A.889.889 0 0 0 .619.137.136.136 0 0 1 .606.082.08.08 0 0 1 .688 0c.094 0 .131.146.131.154z"/></symbol><use xlink:href="#b" transform="matrix(9.9626 0 0 -9.9626 50.904 9.122)"/><symbol id="c"><path d="M.106.378a.053.053 0 0 1-.053.053A.053.053 0 0 1 0 .378C0 .349.024.325.053.325c.029 0 .053.024.053.053m0-.325a.053.053 0 0 1-.053.053A.053.053 0 0 1 0 .053C0 .024.024 0 .053 0c.029 0 .053.024.053.053z"/></symbol><symbol id="d"><path d="M.451.1v.056H.426V.1C.426.042.401.036.39.036c-.033 0-.037.045-.037.05v.2c0 .042 0 .081-.036.118A.191.191 0 0 1 .18.459C.098.459.029.412.029.346c0-.03.02-.047.046-.047.028 0 .046.02.046.046C.121.357.116.39.07.391c.027.035.076.046.108.046.049 0 .106-.039.106-.128V.272C.233.269.163.266.1.236.025.202 0 .15 0 .106 0 .025.097 0 .16 0c.066 0 .112.04.131.087C.295.047.322.005.369.005.39.005.451.019.451.1M.284.151C.284.056.212.022.167.022c-.049 0-.09.035-.09.085 0 .055.042.138.207.144v-.1z"/></symbol><symbol id="e"><path d="M.503 0v.031c-.052 0-.077 0-.078.03v.191c0 .086 0 .117-.031.153C.38.422.347.442.289.442.216.442.169.399.141.337v.105L0 .431V.4C.07.4.078.393.078.344V.076C.078.031.067.031 0 .031V0l.113.003L.225 0v.031c-.067 0-.078 0-.078.045V.26c0 .104.071.16.135.16C.345.42.356.366.356.309V.076C.356.031.345.031.278.031V0l.113.003L.503 0z"/></symbol><symbol id="f"><path d="M.214 0v.031c-.066 0-.07.005-.07.044v.367L.004.431V.4C.069.4.078.394.078.345V.076C.078.031.067.031 0 .031V0l.11.003C.145.003.18.001.214 0M.159.604a.053.053 0 0 1-.107 0 .053.053 0 0 1 .107 0z"/></symbol><symbol id="g"><path d="M.781 0v.031c-.052 0-.077 0-.078.03v.191c0 .086 0 .117-.031.153C.658.422.625.442.567.442A.158.158 0 0 1 .422.344C.408.431.334.442.289.442.216.442.169.399.141.337v.105L0 .431V.4C.07.4.078.393.078.344V.076C.078.031.067.031 0 .031V0l.113.003L.225 0v.031c-.067 0-.078 0-.078.045V.26c0 .104.071.16.135.16C.345.42.356.366.356.309V.076C.356.031.345.031.278.031V0l.113.003L.503 0v.031c-.067 0-.078 0-.078.045V.26c0 .104.071.16.135.16C.623.42.634.366.634.309V.076C.634.031.623.031.556.031V0l.113.003L.781 0z"/></symbol><symbol id="h"><path d="M.457.61a.049.049 0 0 1-.051.049A.154.154 0 0 1 .3.612a.167.167 0 0 1-.106.036C.101.648.032.579.032.502.032.458.054.42.079.399A.138.138 0 0 1 .048.316c0-.031.013-.069.044-.089C.032.21 0 .167 0 .127 0 .055.099 0 .221 0c.118 0 .222.051.222.129a.128.128 0 0 1-.065.114C.325.271.267.271.206.271L.131.272C.099.276.078.307.078.339c0 .004 0 .027.017.047A.17.17 0 0 1 .194.355c.093 0 .162.069.162.146a.135.135 0 0 1-.041.097.131.131 0 0 0 .09.039l.01-.001C.404.632.399.621.399.609.399.592.412.58.428.58c.01 0 .029.007.029.03M.281.502A.164.164 0 0 0 .265.418a.086.086 0 0 0-.071-.04c-.087 0-.087.1-.087.123 0 .027.001.059.016.084.008.012.031.04.071.04.087 0 .087-.1.087-.123m.11-.375C.391.073.32.023.222.023c-.101 0-.17.051-.17.104 0 .046.038.083.082.086h.059c.086 0 .198 0 .198-.086z"/></symbol><symbol id="i"><path d="M.387.13c0 .01-.008.012-.013.012C.365.142.363.136.361.128.326.025.236.025.226.025c-.05 0-.09.03-.113.067-.03.048-.03.114-.03.15h.279c.022 0 .025 0 .025.021 0 .099-.054.196-.179.196C.092.459 0 .356 0 .231 0 .097.105 0 .22 0a.17.17 0 0 1 .167.13M.321.263H.084c.006.149.09.174.124.174.103 0 .113-.135.113-.174z"/></symbol><symbol id="j"><path d="M.493.011v.031c-.07 0-.078.007-.078.056v.607L.271.694V.663c.07 0 .078-.007.078-.056V.391a.16.16 0 0 1-.126.062A.226.226 0 0 1 0 .226C0 .099.098 0 .212 0c.064 0 .109.034.134.066V0l.147.011M.346.129c0-.018 0-.02-.011-.037a.14.14 0 0 0-.118-.07C.172.022.136.048.112.086a.269.269 0 0 0-.029.139c0 .037.002.097.031.142a.137.137 0 0 0 .113.064.13.13 0 0 0 .108-.06C.346.354.346.352.346.334V.129z"/></symbol><symbol id="k"><path d="M.685.411v.031A.89.89 0 0 0 .612.439L.519.442V.411C.555.41.577.392.577.363c0-.006 0-.008-.005-.021L.481.086.382.365C.378.377.377.379.377.384c0 .027.039.027.059.027v.031L.332.439C.302.439.273.44.243.442V.411C.28.411.296.409.306.396.311.39.322.36.329.341L.243.099.148.366C.143.378.143.38.143.384c0 .027.039.027.059.027v.031L.093.439 0 .442V.411C.05.411.062.408.074.376L.2.022C.205.008.208 0 .221 0c.013 0 .015.006.02.02l.101.283.102-.284C.448.008.451 0 .464 0c.013 0 .016.009.02.019l.117.328C.619.397.65.41.685.411z"/></symbol><symbol id="l"><path d="M.443.225c0 .128-.1.234-.221.234C.097.459 0 .35 0 .225 0 .096.104 0 .221 0c.121 0 .222.098.222.225M.36.233c0-.036 0-.09-.022-.134a.129.129 0 0 0-.23-.007C.083.136.083.197.083.233c0 .039 0 .093.024.137a.134.134 0 0 0 .114.067.131.131 0 0 0 .113-.065C.36.329.36.271.36.233z"/></symbol><symbol id="m"><path d="M.336.381c0 .032-.031.061-.074.061C.189.442.153.375.139.332v.11L0 .431V.4C.07.4.078.393.078.344V.076C.078.031.067.031 0 .031V0l.114.003c.04 0 .087 0 .127-.003v.031H.22C.146.031.144.042.144.078v.154c0 .099.042.188.118.188L.273.419A.043.043 0 0 1 .25.38C.25.352.271.337.293.337c.018 0 .043.012.043.044z"/></symbol><symbol id="n"><path d="M.222 0v.031c-.067 0-.078 0-.078.045v.618L0 .683V.652C.07.652.078.645.078.596v-.52C.078.031.067.031 0 .031V0l.111.003L.222 0z"/></symbol><use xlink:href="#c" transform="matrix(9.9626 0 0 -9.9626 60.219 9.012)"/><use xlink:href="#d" transform="matrix(9.9626 0 0 -9.9626 66.872 9.122)"/><use xlink:href="#e" transform="matrix(9.9626 0 0 -9.9626 71.853 9.012)"/><use xlink:href="#f" transform="matrix(9.9626 0 0 -9.9626 80.726 9.012)"/><use xlink:href="#g" transform="matrix(9.9626 0 0 -9.9626 83.483 9.012)"/><use xlink:href="#d" transform="matrix(9.9626 0 0 -9.9626 91.785 9.122)"/><use xlink:href="#h" transform="matrix(9.9626 0 0 -9.9626 96.727 11.064)"/><use xlink:href="#f" transform="matrix(9.9626 0 0 -9.9626 101.758 9.012)"/><use xlink:href="#e" transform="matrix(9.9626 0 0 -9.9626 104.515 9.012)"/><use xlink:href="#i" transform="matrix(9.9626 0 0 -9.9626 110.01 9.122)"/><use xlink:href="#j" transform="matrix(9.9626 0 0 -9.9626 114.499 9.122)"/><use xlink:href="#k" transform="matrix(9.9626 0 0 -9.9626 123.192 9.122)"/><use xlink:href="#l" transform="matrix(9.9626 0 0 -9.9626 130.208 9.122)"/><use xlink:href="#m" transform="matrix(9.9626 0 0 -9.9626 135.19 9.012)"/><use xlink:href="#n" transform="matrix(9.9626 0 0 -9.9626 139.141 9.012)"/><use xlink:href="#j" transform="matrix(9.9626 0 0 -9.9626 141.919 9.122)"/><path stroke-width=".797" stroke-miterlimit="10" fill="none" stroke="#000" d="M52.98 22.96h91.768"/><symbol id="o"><path d="M.305 0v.031H.279C.2.031.197.042.197.078v.527c0 .036.003.047.082.047h.026v.031C.27.68.191.68.153.68.114.68.035.68 0 .683V.652h.026C.105.652.108.641.108.605V.078C.108.042.105.031.026.031H0V0c.035.003.114.003.152.003C.191.003.27.003.305 0z"/></symbol><symbol id="p"><path d="M.672.336c0 .19-.135.347-.306.347H0V.652h.024C.101.652.103.641.103.605V.078C.103.042.101.031.024.031H0V0h.366c.168 0 .306.148.306.336m-.1 0C.572.225.553.165.517.116A.22.22 0 0 0 .339.031H.238c-.047 0-.049.007-.049.04v.541c0 .033.002.04.049.04h.1A.216.216 0 0 0 .52.559C.563.5.572.414.572.336z"/></symbol><symbol id="q"><path d="M.683.674v.031L.565.702.446.705V.674C.549.674.549.627.549.6V.253C.549.111.452.031.357.031.31.031.192.056.192.246v.381c0 .036.002.047.079.047h.024v.031C.26.702.186.702.148.702.11.702.035.702 0 .705V.674h.024C.101.674.103.663.103.627V.25C.103.109.219 0 .355 0 .47 0 .56.093.577.207.58.227.58.236.58.276v.32c0 .033 0 .078.103.078z"/></symbol><symbol id="r"><path d="M.702 0v.031H.683C.631.031.61.036.589.067L.378.386l.137.201C.537.619.571.651.66.652v.031L.549.68c-.04 0-.088 0-.128.003V.652C.461.651.483.629.483.606.483.596.481.594.474.583L.36.414.231.607C.229.61.224.618.224.622c0 .012.022.029.065.03v.031C.254.68.181.68.143.68l-.13.003V.652h.019C.087.652.106.645.125.617L.309.339.145.097C.131.077.101.031 0 .031V0l.111.003C.148.003.203.003.239 0v.031C.193.032.176.059.176.077c0 .009.003.013.01.024l.142.21.158-.239C.488.068.491.064.491.061.491.049.469.032.426.031V0c.035.003.108.003.146.003L.702 0z"/></symbol><symbol id="s"><path d="M.727.652v.031A1.706 1.706 0 0 0 .629.68L.514.683V.652C.555.652.571.633.571.613a.063.063 0 0 0-.01-.03L.396.315.215.61C.208.62.208.622.208.627c0 .021.025.025.07.025v.031C.242.68.169.68.13.68L0 .683V.652h.018C.086.652.094.641.11.615L.32.273V.078C.32.042.318.031.241.031H.217V0c.036.003.107.003.146.003.039 0 .11 0 .146-.003v.031H.486c-.077 0-.08.01-.08.049v.193l.193.314c.037.061.096.065.128.065z"/></symbol><use xlink:href="#o" transform="matrix(9.9626 0 0 -9.9626 53.26 34.515)"/><use xlink:href="#p" transform="matrix(9.9626 0 0 -9.9626 56.928 34.515)"/><use xlink:href="#q" transform="matrix(9.9626 0 0 -9.9626 98.752 34.734)"/><use xlink:href="#r" transform="matrix(9.9626 0 0 -9.9626 118.09 34.515)"/><use xlink:href="#s" transform="matrix(9.9626 0 0 -9.9626 137.389 34.515)"/><path stroke-width=".498" stroke-miterlimit="10" fill="none" stroke="#000" d="M52.98 40.066h91.768"/><symbol id="t"><path d="M.421.342c0 .08-.005.16-.04.234A.185.185 0 0 1 .037.569.535.535 0 0 1 0 .342C0 .267.004.177.045.101A.183.183 0 0 1 .21 0c.054 0 .13.021.174.116a.533.533 0 0 1 .037.226M.338.354c0-.075 0-.143-.011-.207C.312.052.255.022.21.022.171.022.112.047.094.143.083.203.083.295.083.354c0 .064 0 .13.008.184C.11.657.185.666.21.666.243.666.309.648.328.549c.01-.056.01-.132.01-.195z"/></symbol><symbol id="u"><path d="M.33 0v.031H.298c-.09 0-.093.011-.093.048V.64c0 .024 0 .026-.023.026C.12.602.032.602 0 .602V.571a.3.3 0 0 1 .131.026V.079C.131.043.128.031.038.031H.006V0c.035.003.122.003.162.003.04 0 .127 0 .162-.003z"/></symbol><symbol id="v"><path d="M.106.053a.053.053 0 0 1-.053.053A.053.053 0 0 1 0 .053C0 .024.024 0 .053 0c.029 0 .053.024.053.053z"/></symbol><symbol id="w"><path d="M.415.193c0 .082-.063.16-.167.181.082.027.14.097.14.176C.388.632.3.688.204.688.103.688.027.628.027.552.027.519.049.5.078.5.109.5.129.522.129.551c0 .05-.047.05-.062.05C.098.65.164.663.2.663.241.663.296.641.296.551A.25.25 0 0 0 .268.437C.238.389.204.386.179.385A.554.554 0 0 0 .14.382C.132.381.125.38.125.37c0-.011.007-.011.024-.011h.044C.275.359.312.291.312.193.312.057.243.028.199.028.156.028.081.045.046.104.081.099.112.121.112.159a.054.054 0 0 1-.056.056C.032.215 0 .201 0 .157 0 .066.093 0 .202 0c.122 0 .213.091.213.193z"/></symbol><symbol id="x"><path d="M.415.351C.415.62.3.688.211.688A.193.193 0 0 1 .064.625.214.214 0 0 1 0 .463C0 .338.088.24.2.24c.061 0 .102.042.125.1V.308c0-.234-.104-.28-.162-.28C.146.028.092.03.065.064c.044 0 .052.029.052.046 0 .031-.024.046-.046.046C.055.156.025.147.025.108.025.041.079 0 .164 0c.129 0 .251.136.251.351M.323.443C.323.36.289.263.201.263c-.016 0-.062 0-.093.063C.09.363.09.413.09.462.09.516.09.563.111.6c.027.05.065.063.1.063C.257.663.29.629.307.584A.497.497 0 0 0 .323.443z"/></symbol><use xlink:href="#t" transform="matrix(9.9626 0 0 -9.9626 53.37 51.691)"/><use xlink:href="#t" transform="matrix(9.9626 0 0 -9.9626 58.352 51.691)"/><use xlink:href="#t" transform="matrix(9.9626 0 0 -9.9626 63.333 51.691)"/><use xlink:href="#u" transform="matrix(9.9626 0 0 -9.9626 68.812 51.472)"/><use xlink:href="#u" transform="matrix(9.9626 0 0 -9.9626 89.066 51.472)"/><use xlink:href="#v" transform="matrix(9.9626 0 0 -9.9626 94.018 51.472)"/><use xlink:href="#w" transform="matrix(9.9626 0 0 -9.9626 96.347 51.691)"/><use xlink:href="#x" transform="matrix(9.9626 0 0 -9.9626 101.328 51.691)"/><use xlink:href="#u" transform="matrix(9.9626 0 0 -9.9626 121.224 51.472)"/><use xlink:href="#u" transform="matrix(9.9626 0 0 -9.9626 140.65 51.472)"/><symbol id="y"><path d="M.399.174H.374C.369.144.362.1.352.085.345.077.279.077.257.077h-.18L.183.18c.156.138.216.192.216.292 0 .114-.09.194-.212.194A.185.185 0 0 1 0 .485C0 .429.05.429.053.429c.017 0 .052.012.052.053a.05.05 0 0 1-.053.052L.039.533a.144.144 0 0 0 .135.102C.265.635.308.554.308.472c0-.08-.05-.159-.105-.221L.011.037C0 .026 0 .024 0 0h.371l.028.174z"/></symbol><use xlink:href="#t" transform="matrix(9.9626 0 0 -9.9626 53.37 63.646)"/><use xlink:href="#t" transform="matrix(9.9626 0 0 -9.9626 58.352 63.646)"/><use xlink:href="#t" transform="matrix(9.9626 0 0 -9.9626 63.333 63.646)"/><use xlink:href="#y" transform="matrix(9.9626 0 0 -9.9626 68.424 63.427)"/><use xlink:href="#t" transform="matrix(9.9626 0 0 -9.9626 88.568 63.646)"/><use xlink:href="#v" transform="matrix(9.9626 0 0 -9.9626 94.018 63.427)"/><use xlink:href="#u" transform="matrix(9.9626 0 0 -9.9626 96.815 63.427)"/><use xlink:href="#x" transform="matrix(9.9626 0 0 -9.9626 101.328 63.646)"/><use xlink:href="#t" transform="matrix(9.9626 0 0 -9.9626 120.725 63.646)"/><use xlink:href="#u" transform="matrix(9.9626 0 0 -9.9626 140.65 63.427)"/><symbol id="z"><path d="M.265 0v.058H0V0h.265z"/></symbol><use xlink:href="#t" transform="matrix(9.9626 0 0 -9.9626 53.37 75.601)"/><use xlink:href="#t" transform="matrix(9.9626 0 0 -9.9626 58.352 75.601)"/><use xlink:href="#t" transform="matrix(9.9626 0 0 -9.9626 63.333 75.601)"/><use xlink:href="#w" transform="matrix(9.9626 0 0 -9.9626 68.344 75.601)"/><use xlink:href="#z" transform="matrix(9.9626 0 0 -9.9626 84.972 73.52)"/><use xlink:href="#y" transform="matrix(9.9626 0 0 -9.9626 88.68 75.382)"/><use xlink:href="#v" transform="matrix(9.9626 0 0 -9.9626 94.02 75.382)"/><use xlink:href="#t" transform="matrix(9.9626 0 0 -9.9626 96.32 75.601)"/><use xlink:href="#y" transform="matrix(9.9626 0 0 -9.9626 101.41 75.382)"/><use xlink:href="#t" transform="matrix(9.9626 0 0 -9.9626 120.728 75.601)"/><use xlink:href="#t" transform="matrix(9.9626 0 0 -9.9626 140.155 75.601)"/><symbol id="A"><path d="M.443.165v.031h-.1v.455c0 .02 0 .026-.016.026-.009 0-.012 0-.02-.012L0 .196V.165h.266V.078C.266.042.264.031.19.031H.169V0C.21.003.262.003.304.003.346.003.399.003.44 0v.031H.419C.345.031.343.042.343.078v.087h.1M.272.196H.028l.244.373V.196z"/></symbol><symbol id="B"><path d="M.429.666H.186C.064.666.062.679.058.698H.033L0 .492h.025C.028.508.037.571.05.583c.007.006.085.006.098.006h.207L.243.431A.699.699 0 0 1 .12.055C.12.045.12 0 .166 0s.046.045.046.055v.051c0 .055.003.11.011.164.004.023.018.109.062.171l.135.19c.009.012.009.014.009.035z"/></symbol><use xlink:href="#t" transform="matrix(9.9626 0 0 -9.9626 53.37 87.556)"/><use xlink:href="#t" transform="matrix(9.9626 0 0 -9.9626 58.352 87.556)"/><use xlink:href="#t" transform="matrix(9.9626 0 0 -9.9626 63.333 87.556)"/><use xlink:href="#A" transform="matrix(9.9626 0 0 -9.9626 68.205 87.337)"/><use xlink:href="#z" transform="matrix(9.9626 0 0 -9.9626 84.972 85.474)"/><use xlink:href="#t" transform="matrix(9.9626 0 0 -9.9626 88.571 87.556)"/><use xlink:href="#v" transform="matrix(9.9626 0 0 -9.9626 94.02 87.337)"/><use xlink:href="#B" transform="matrix(9.9626 0 0 -9.9626 96.49 87.556)"/><use xlink:href="#t" transform="matrix(9.9626 0 0 -9.9626 101.301 87.556)"/><use xlink:href="#t" transform="matrix(9.9626 0 0 -9.9626 120.728 87.556)"/><use xlink:href="#t" transform="matrix(9.9626 0 0 -9.9626 140.155 87.556)"/><symbol id="C"><path d="M.399.223c0 .119-.082.219-.19.219A.176.176 0 0 1 .082.391v.195A.317.317 0 0 1 .167.573C.29.573.36.664.36.677.36.683.357.688.35.688c0 0-.003 0-.008-.003A.33.33 0 0 0 .073.684L.061.687c-.01 0-.01-.008-.01-.024V.367c0-.018 0-.026.014-.026.007 0 .009.003.013.009.011.016.048.07.129.07C.259.42.284.374.292.356A.308.308 0 0 0 .31.23C.31.195.31.135.286.093A.125.125 0 0 0 .179.028.156.156 0 0 0 .032.14C.035.139.038.138.049.138c.033 0 .05.025.05.049a.048.048 0 0 1-.05.049C.035.236 0 .229 0 .183 0 .097.069 0 .181 0a.22.22 0 0 1 .218.223z"/></symbol><symbol id="D"><path d="M.415.19a.18.18 0 0 1-.049.123.422.422 0 0 1-.099.071c.072.037.121.089.121.155 0 .092-.089.149-.18.149-.1 0-.181-.074-.181-.167a.16.16 0 0 1 .044-.11C.082.399.119.374.144.357.086.328 0 .272 0 .173 0 .067.102 0 .207 0 .32 0 .415.083.415.19M.344.539C.344.482.305.434.245.399l-.124.08C.075.509.071.543.071.56c0 .061.065.103.136.103C.28.663.344.611.344.539M.365.154C.365.08.29.028.208.028.122.028.05.09.05.173c0 .058.032.122.117.169L.29.264C.318.245.365.215.365.154z"/></symbol><use xlink:href="#t" transform="matrix(9.9626 0 0 -9.9626 53.37 99.511)"/><use xlink:href="#t" transform="matrix(9.9626 0 0 -9.9626 58.352 99.511)"/><use xlink:href="#t" transform="matrix(9.9626 0 0 -9.9626 63.333 99.511)"/><use xlink:href="#C" transform="matrix(9.9626 0 0 -9.9626 68.424 99.511)"/><use xlink:href="#u" transform="matrix(9.9626 0 0 -9.9626 89.066 99.292)"/><use xlink:href="#v" transform="matrix(9.9626 0 0 -9.9626 94.018 99.292)"/><use xlink:href="#t" transform="matrix(9.9626 0 0 -9.9626 96.317 99.511)"/><use xlink:href="#D" transform="matrix(9.9626 0 0 -9.9626 101.328 99.511)"/><use xlink:href="#u" transform="matrix(9.9626 0 0 -9.9626 121.224 99.292)"/><use xlink:href="#u" transform="matrix(9.9626 0 0 -9.9626 140.65 99.292)"/><path stroke-width=".797" stroke-miterlimit="10" fill="none" stroke="#000" d="M52.98 104.993h91.768"/></g></svg>