<svg xmlns="http://www.w3.org/2000/svg" xmlns:xlink="http://www.w3.org/1999/xlink" width="262.275" height="84.377" viewBox="0 0 196.706 63.283"><clipPath id="a"><path transform="matrix(1 0 0 -1 -207.135 221.643)" d="M0 0h612v792H0z"/></clipPath><g clip-path="url(#a)"><symbol id="b"><path d="M.458.154c0 .01-.009.01-.012.01C.436.164.435.16.432.146.415.081.397.022.356.022c-.027 0-.03.026-.03.046 0 .022.002.03.013.074l.022.09.036.14C.404.4.404.402.404.406c0 .017-.012.027-.029.027C.351.433.336.411.333.389.315.426.286.453.241.453.124.453 0 .306 0 .16 0 .066.055 0 .133 0c.02 0 .07.004.13.075A.09.09 0 0 1 .354 0c.035 0 .058.023.074.055.017.036.03.099.03.099m-.14.172L.268.13C.263.112.263.11.248.093.204.038.163.022.135.022c-.05 0-.064.055-.064.094 0 .05.032.173.055.219.031.059.076.096.116.096.065 0 .079-.082.079-.088C.321.337.319.331.318.326z"/></symbol><use xlink:href="#b" transform="matrix(9.9626 0 0 -9.9626 43.602 9.955)"/><symbol id="c"><path d="M.51.153C.51.166.497.166.494.166.48.166.479.162.472.135.46.087.441.028.399.028.373.028.366.05.366.077c0 .019.002.028.005.041L.51.674.514.69C.514.695.51.704.498.704.478.704.395.696.37.694.362.693.348.692.348.671c0-.014.014-.014.026-.014C.422.657.422.65.422.642.422.635.42.629.418.62L.361.392a.12.12 0 0 1-.103.059C.13.451 0 .31 0 .166 0 .069.065 0 .151 0c.054 0 .102.031.142.07C.312.01.37 0 .396 0c.036 0 .061.022.079.053a.376.376 0 0 1 .035.1M.344.322.297.135C.29.107.268.087.246.068a.158.158 0 0 0-.092-.04C.117.028.081.054.081.125c0 .053.029.163.052.203.046.08.097.095.125.095.07 0 .089-.076.089-.087A.058.058 0 0 0 .344.322z"/></symbol><use xlink:href="#c" transform="matrix(6.9738 0 0 -6.9738 48.895 11.409)"/><symbol id="d"><path d="M.458.124c0 .022-.012.027-.044.039L.27.215l.164.061c.008.003.024.009.024.031 0 .024-.02.037-.034.037-.003 0-.009 0-.022-.008L.246.242c.002.02.018.148.018.157 0 .018-.015.032-.035.032C.208.431.194.415.194.4c0-.01.015-.137.018-.158L.056.336C.043.344.037.344.034.344A.036.036 0 0 1 0 .307C0 .285.012.28.044.268L.188.216.024.155C.016.152 0 .146 0 .124 0 .1.02.087.034.087c.007 0 .009 0 .034.015l.144.087A4.843 4.843 0 0 1 .194.031C.194.016.208 0 .229 0c.02 0 .035.014.035.032 0 .009-.016.137-.018.157L.404.094C.412.09.416.087.424.087.438.087.458.1.458.124z"/></symbol><use xlink:href="#d" transform="matrix(4.9813 0 0 -4.9813 53.31 9.177)"/><symbol id="e"><path d="M.106.378a.053.053 0 0 1-.053.053A.053.053 0 0 1 0 .378C0 .349.024.325.053.325c.029 0 .053.024.053.053m0-.325a.053.053 0 0 1-.053.053A.053.053 0 0 1 0 .053C0 .024.024 0 .053 0c.029 0 .053.024.053.053z"/></symbol><symbol id="f"><path d="M.451.1v.056H.426V.1C.426.042.401.036.39.036c-.033 0-.037.045-.037.05v.2c0 .042 0 .081-.036.118A.191.191 0 0 1 .18.459C.098.459.029.412.029.346c0-.03.02-.047.046-.047.028 0 .046.02.046.046C.121.357.116.39.07.391c.027.035.076.046.108.046.049 0 .106-.039.106-.128V.272C.233.269.163.266.1.236.025.202 0 .15 0 .106 0 .025.097 0 .16 0c.066 0 .112.04.131.087C.295.047.322.005.369.005.39.005.451.019.451.1M.284.151C.284.056.212.022.167.022c-.049 0-.09.035-.09.085 0 .055.042.138.207.144v-.1z"/></symbol><symbol id="g"><path d="M.327.139c0 .053-.03.083-.042.095C.252.266.213.274.171.282.115.293.048.306.048.364.048.399.074.44.16.44.27.44.275.35.277.319.278.31.289.31.289.31c.013 0 .013.005.013.024v.101c0 .017 0 .024-.011.024-.005 0-.007 0-.02-.012A.129.129 0 0 0 .254.431C.216.459.175.459.16.459.038.459 0 .392 0 .336 0 .301.016.273.043.251.075.225.103.219.175.205.197.201.279.185.279.113.279.062.244.022.166.022c-.084 0-.12.057-.139.142C.024.177.023.181.013.181 0 .181 0 .174 0 .156V.024C0 .007 0 0 .011 0c.005 0 .006.001.025.02.002.002.002.004.02.023A.15.15 0 0 1 .166 0c.115 0 .161.067.161.139z"/></symbol><symbol id="h"><path d="M.214 0v.031c-.066 0-.07.005-.07.044v.367L.004.431V.4C.069.4.078.394.078.345V.076C.078.031.067.031 0 .031V0l.11.003C.145.003.18.001.214 0M.159.604a.053.053 0 0 1-.107 0 .053.053 0 0 1 .107 0z"/></symbol><symbol id="i"><path d="M.781 0v.031c-.052 0-.077 0-.078.03v.191c0 .086 0 .117-.031.153C.658.422.625.442.567.442A.158.158 0 0 1 .422.344C.408.431.334.442.289.442.216.442.169.399.141.337v.105L0 .431V.4C.07.4.078.393.078.344V.076C.078.031.067.031 0 .031V0l.113.003L.225 0v.031c-.067 0-.078 0-.078.045V.26c0 .104.071.16.135.16C.345.42.356.366.356.309V.076C.356.031.345.031.278.031V0l.113.003L.503 0v.031c-.067 0-.078 0-.078.045V.26c0 .104.071.16.135.16C.623.42.634.366.634.309V.076C.634.031.623.031.556.031V0l.113.003L.781 0z"/></symbol><symbol id="j"><path d="M.503.011v.031c-.07 0-.078.007-.078.056v.355L.278.442V.411c.07 0 .078-.007.078-.056V.177C.356.09.308.022.235.022.151.022.147.069.147.121v.332L0 .442V.411C.078.411.078.408.078.319v-.15C.078.091.078 0 .23 0c.056 0 .1.028.129.09V0l.144.011z"/></symbol><symbol id="k"><path d="M.222 0v.031c-.067 0-.078 0-.078.045v.618L0 .683V.652C.07.652.078.645.078.596v-.52C.078.031.067.031 0 .031V0l.111.003L.222 0z"/></symbol><symbol id="l"><path d="M.313.135v.057H.288V.137C.288.063.258.025.221.025.154.025.154.116.154.133v.278h.143v.031H.154v.184H.129C.128.544.098.437 0 .433V.411h.085V.135C.085.012.178 0 .214 0c.071 0 .099.071.099.135z"/></symbol><symbol id="m"><path d="M.387.13c0 .01-.008.012-.013.012C.365.142.363.136.361.128.326.025.236.025.226.025c-.05 0-.09.03-.113.067-.03.048-.03.114-.03.15h.279c.022 0 .025 0 .025.021 0 .099-.054.196-.179.196C.092.459 0 .356 0 .231 0 .097.105 0 .22 0a.17.17 0 0 1 .167.13M.321.263H.084c.006.149.09.174.124.174.103 0 .113-.135.113-.174z"/></symbol><symbol id="n"><path d="M.493.011v.031c-.07 0-.078.007-.078.056v.607L.271.694V.663c.07 0 .078-.007.078-.056V.391a.16.16 0 0 1-.126.062A.226.226 0 0 1 0 .226C0 .099.098 0 .212 0c.064 0 .109.034.134.066V0l.147.011M.346.129c0-.018 0-.02-.011-.037a.14.14 0 0 0-.118-.07C.172.022.136.048.112.086a.269.269 0 0 0-.029.139c0 .037.002.097.031.142a.137.137 0 0 0 .113.064.13.13 0 0 0 .108-.06C.346.354.346.352.346.334V.129z"/></symbol><use xlink:href="#e" transform="matrix(9.9626 0 0 -9.9626 58.137 9.845)"/><use xlink:href="#f" transform="matrix(9.9626 0 0 -9.9626 64.79 9.955)"/><use xlink:href="#g" transform="matrix(9.9626 0 0 -9.9626 73.108 9.955)"/><use xlink:href="#h" transform="matrix(9.9626 0 0 -9.9626 77.039 9.845)"/><use xlink:href="#i" transform="matrix(9.9626 0 0 -9.9626 79.796 9.845)"/><use xlink:href="#j" transform="matrix(9.9626 0 0 -9.9626 87.82 9.955)"/><use xlink:href="#k" transform="matrix(9.9626 0 0 -9.9626 93.364 9.845)"/><use xlink:href="#f" transform="matrix(9.9626 0 0 -9.9626 96.122 9.955)"/><use xlink:href="#l" transform="matrix(9.9626 0 0 -9.9626 100.974 9.955)"/><use xlink:href="#m" transform="matrix(9.9626 0 0 -9.9626 104.938 9.955)"/><use xlink:href="#n" transform="matrix(9.9626 0 0 -9.9626 109.426 9.955)"/><use xlink:href="#m" transform="matrix(9.9626 0 0 -9.9626 118.219 9.955)"/><use xlink:href="#g" transform="matrix(9.9626 0 0 -9.9626 122.697 9.955)"/><use xlink:href="#l" transform="matrix(9.9626 0 0 -9.9626 126.488 9.955)"/><use xlink:href="#h" transform="matrix(9.9626 0 0 -9.9626 130.502 9.845)"/><use xlink:href="#i" transform="matrix(9.9626 0 0 -9.9626 133.26 9.845)"/><use xlink:href="#f" transform="matrix(9.9626 0 0 -9.9626 141.561 9.955)"/><use xlink:href="#l" transform="matrix(9.9626 0 0 -9.9626 146.413 9.955)"/><use xlink:href="#m" transform="matrix(9.9626 0 0 -9.9626 150.377 9.955)"/><path stroke-width=".797" stroke-miterlimit="10" fill="none" stroke="#000" d="M6.53 23.792H191.2"/><symbol id="o"><path d="M.106.053a.053.053 0 0 1-.053.053A.053.053 0 0 1 0 .053C0 .024.024 0 .053 0c.029 0 .053.024.053.053z"/></symbol><symbol id="p"><path d="M.336.381c0 .032-.031.061-.074.061C.189.442.153.375.139.332v.11L0 .431V.4C.07.4.078.393.078.344V.076C.078.031.067.031 0 .031V0l.114.003c.04 0 .087 0 .127-.003v.031H.22C.146.031.144.042.144.078v.154c0 .099.042.188.118.188L.273.419A.043.043 0 0 1 .25.38C.25.352.271.337.293.337c.018 0 .043.012.043.044z"/></symbol><symbol id="q"><path d="M.443.225c0 .128-.1.234-.221.234C.097.459 0 .35 0 .225 0 .096.104 0 .221 0c.121 0 .222.098.222.225M.36.233c0-.036 0-.09-.022-.134a.129.129 0 0 0-.23-.007C.083.136.083.197.083.233c0 .039 0 .093.024.137a.134.134 0 0 0 .114.067.131.131 0 0 0 .113-.065C.36.329.36.271.36.233z"/></symbol><symbol id="r"><path d="M.381.13c0 .01-.01.01-.013.01C.359.14.357.136.355.13.326.037.261.025.224.025.171.025.083.068.083.229c0 .163.082.205.135.205C.227.434.29.433.325.397.284.394.278.364.278.351c0-.026.018-.046.046-.046C.35.305.37.322.37.352.37.42.294.459.217.459.092.459 0 .351 0 .227 0 .099.099 0 .215 0c.134 0 .166.12.166.13z"/></symbol><symbol id="s"><path d="M.503 0v.031c-.052 0-.077 0-.078.03v.191c0 .086 0 .117-.031.153C.38.422.347.442.289.442.216.442.169.399.141.337v.105L0 .431V.4C.07.4.078.393.078.344V.076C.078.031.067.031 0 .031V0l.113.003L.225 0v.031c-.067 0-.078 0-.078.045V.26c0 .104.071.16.135.16C.345.42.356.366.356.309V.076C.356.031.345.031.278.031V0l.113.003L.503 0z"/></symbol><symbol id="t"><path d="M.324.635c0 .037-.037.07-.09.07A.155.155 0 0 1 .079.546V.431H0V.4h.079V.076C.079.031.068.031.001.031V0l.114.003c.04 0 .087 0 .127-.003v.031H.221C.147.031.145.042.145.078V.4h.114v.031H.142v.116c0 .088.048.136.092.136.003 0 .018 0 .033-.007a.044.044 0 0 1-.03-.042C.237.611.253.591.28.591c.029 0 .044.02.044.044z"/></symbol><symbol id="u"><path d="M.685.411v.031A.89.89 0 0 0 .612.439L.519.442V.411C.555.41.577.392.577.363c0-.006 0-.008-.005-.021L.481.086.382.365C.378.377.377.379.377.384c0 .027.039.027.059.027v.031L.332.439C.302.439.273.44.243.442V.411C.28.411.296.409.306.396.311.39.322.36.329.341L.243.099.148.366C.143.378.143.38.143.384c0 .027.039.027.059.027v.031L.093.439 0 .442V.411C.05.411.062.408.074.376L.2.022C.205.008.208 0 .221 0c.013 0 .015.006.02.02l.101.283.102-.284C.448.008.451 0 .464 0c.013 0 .016.009.02.019l.117.328C.619.397.65.41.685.411z"/></symbol><symbol id="v"><path d="M.503 0v.031c-.052 0-.077 0-.078.03v.191c0 .086 0 .117-.031.153C.38.422.347.442.289.442A.157.157 0 0 1 .145.346H.144v.348L0 .683V.652C.07.652.078.645.078.596v-.52C.078.031.067.031 0 .031V0l.113.003L.225 0v.031c-.067 0-.078 0-.078.045V.26c0 .104.071.16.135.16C.345.42.356.366.356.309V.076C.356.031.345.031.278.031V0l.113.003L.503 0z"/></symbol><symbol id="w"><path d="M.457.61a.049.049 0 0 1-.051.049A.154.154 0 0 1 .3.612a.167.167 0 0 1-.106.036C.101.648.032.579.032.502.032.458.054.42.079.399A.138.138 0 0 1 .048.316c0-.031.013-.069.044-.089C.032.21 0 .167 0 .127 0 .055.099 0 .221 0c.118 0 .222.051.222.129a.128.128 0 0 1-.065.114C.325.271.267.271.206.271L.131.272C.099.276.078.307.078.339c0 .004 0 .027.017.047A.17.17 0 0 1 .194.355c.093 0 .162.069.162.146a.135.135 0 0 1-.041.097.131.131 0 0 0 .09.039l.01-.001C.404.632.399.621.399.609.399.592.412.58.428.58c.01 0 .029.007.029.03M.281.502A.164.164 0 0 0 .265.418a.086.086 0 0 0-.071-.04c-.087 0-.087.1-.087.123 0 .027.001.059.016.084.008.012.031.04.071.04.087 0 .087-.1.087-.123m.11-.375C.391.073.32.023.222.023c-.101 0-.17.051-.17.104 0 .046.038.083.082.086h.059c.086 0 .198 0 .198-.086z"/></symbol><use xlink:href="#m" transform="matrix(9.9626 0 0 -9.9626 6.81 35.458)"/><use xlink:href="#g" transform="matrix(9.9626 0 0 -9.9626 11.288 35.458)"/><use xlink:href="#l" transform="matrix(9.9626 0 0 -9.9626 15.079 35.458)"/><use xlink:href="#h" transform="matrix(9.9626 0 0 -9.9626 19.093 35.348)"/><use xlink:href="#i" transform="matrix(9.9626 0 0 -9.9626 21.85 35.348)"/><use xlink:href="#f" transform="matrix(9.9626 0 0 -9.9626 30.152 35.458)"/><use xlink:href="#l" transform="matrix(9.9626 0 0 -9.9626 35.004 35.458)"/><use xlink:href="#m" transform="matrix(9.9626 0 0 -9.9626 38.968 35.458)"/><use xlink:href="#g" transform="matrix(9.9626 0 0 -9.9626 55.401 35.458)"/><use xlink:href="#l" transform="matrix(9.9626 0 0 -9.9626 59.192 35.458)"/><use xlink:href="#n" transform="matrix(9.9626 0 0 -9.9626 63.216 35.458)"/><use xlink:href="#o" transform="matrix(9.9626 0 0 -9.9626 69.27 35.348)"/><use xlink:href="#m" transform="matrix(9.9626 0 0 -9.9626 71.46 35.458)"/><use xlink:href="#p" transform="matrix(9.9626 0 0 -9.9626 75.887 35.348)"/><use xlink:href="#p" transform="matrix(9.9626 0 0 -9.9626 79.79 35.348)"/><use xlink:href="#q" transform="matrix(9.9626 0 0 -9.9626 83.692 35.458)"/><use xlink:href="#p" transform="matrix(9.9626 0 0 -9.9626 88.673 35.348)"/><use xlink:href="#r" transform="matrix(9.9626 0 0 -9.9626 104.59 35.458)"/><use xlink:href="#q" transform="matrix(9.9626 0 0 -9.9626 108.96 35.458)"/><use xlink:href="#s" transform="matrix(9.9626 0 0 -9.9626 113.98 35.348)"/><use xlink:href="#t" transform="matrix(9.9626 0 0 -9.9626 119.516 35.348)"/><use xlink:href="#o" transform="matrix(9.9626 0 0 -9.9626 123.088 35.348)"/><use xlink:href="#k" transform="matrix(9.9626 0 0 -9.9626 125.328 35.348)"/><use xlink:href="#q" transform="matrix(9.9626 0 0 -9.9626 128.046 35.458)"/><use xlink:href="#u" transform="matrix(9.9626 0 0 -9.9626 132.658 35.458)"/><use xlink:href="#r" transform="matrix(9.9626 0 0 -9.9626 151.968 35.458)"/><use xlink:href="#q" transform="matrix(9.9626 0 0 -9.9626 156.336 35.458)"/><use xlink:href="#s" transform="matrix(9.9626 0 0 -9.9626 161.358 35.348)"/><use xlink:href="#t" transform="matrix(9.9626 0 0 -9.9626 166.903 35.348)"/><use xlink:href="#o" transform="matrix(9.9626 0 0 -9.9626 170.465 35.348)"/><use xlink:href="#v" transform="matrix(9.9626 0 0 -9.9626 172.695 35.348)"/><use xlink:href="#h" transform="matrix(9.9626 0 0 -9.9626 178.24 35.348)"/><use xlink:href="#w" transform="matrix(9.9626 0 0 -9.9626 180.958 37.4)"/><use xlink:href="#v" transform="matrix(9.9626 0 0 -9.9626 185.98 35.348)"/><path stroke-width=".498" stroke-miterlimit="10" fill="none" stroke="#000" d="M6.53 40.9H191.2"/><symbol id="x"><path d="M.421.342c0 .08-.005.16-.04.234A.185.185 0 0 1 .037.569.535.535 0 0 1 0 .342C0 .267.004.177.045.101A.183.183 0 0 1 .21 0c.054 0 .13.021.174.116a.533.533 0 0 1 .037.226M.338.354c0-.075 0-.143-.011-.207C.312.052.255.022.21.022.171.022.112.047.094.143.083.203.083.295.083.354c0 .064 0 .13.008.184C.11.657.185.666.21.666.243.666.309.648.328.549c.01-.056.01-.132.01-.195z"/></symbol><symbol id="y"><path d="M.399.223c0 .119-.082.219-.19.219A.176.176 0 0 1 .082.391v.195A.317.317 0 0 1 .167.573C.29.573.36.664.36.677.36.683.357.688.35.688c0 0-.003 0-.008-.003A.33.33 0 0 0 .073.684L.061.687c-.01 0-.01-.008-.01-.024V.367c0-.018 0-.026.014-.026.007 0 .009.003.013.009.011.016.048.07.129.07C.259.42.284.374.292.356A.308.308 0 0 0 .31.23C.31.195.31.135.286.093A.125.125 0 0 0 .179.028.156.156 0 0 0 .032.14C.035.139.038.138.049.138c.033 0 .05.025.05.049a.048.048 0 0 1-.05.049C.035.236 0 .229 0 .183 0 .097.069 0 .181 0a.22.22 0 0 1 .218.223z"/></symbol><symbol id="z"><path d="M.415.226c0 .127-.089.223-.2.223C.147.449.11.398.09.35v.024c0 .253.124.289.175.289.024 0 .066-.006.088-.04-.015 0-.055 0-.055-.045 0-.031.024-.046.046-.046C.36.532.39.541.39.58.39.64.346.688.263.688.135.688 0 .559 0 .338 0 .071.116 0 .209 0 .32 0 .415.094.415.226m-.09.001c0-.048 0-.098-.017-.134C.278.033.232.028.209.028.146.028.116.088.11.103.092.15.092.23.092.248c0 .078.032.178.122.178.016 0 .062 0 .093-.062C.325.327.325.276.325.227z"/></symbol><symbol id="A"><path d="M.415.19a.18.18 0 0 1-.049.123.422.422 0 0 1-.099.071c.072.037.121.089.121.155 0 .092-.089.149-.18.149-.1 0-.181-.074-.181-.167a.16.16 0 0 1 .044-.11C.082.399.119.374.144.357.086.328 0 .272 0 .173 0 .067.102 0 .207 0 .32 0 .415.083.415.19M.344.539C.344.482.305.434.245.399l-.124.08C.075.509.071.543.071.56c0 .061.065.103.136.103C.28.663.344.611.344.539M.365.154C.365.08.29.028.208.028.122.028.05.09.05.173c0 .058.032.122.117.169L.29.264C.318.245.365.215.365.154z"/></symbol><symbol id="B"><path d="M.443.165v.031h-.1v.455c0 .02 0 .026-.016.026-.009 0-.012 0-.02-.012L0 .196V.165h.266V.078C.266.042.264.031.19.031H.169V0C.21.003.262.003.304.003.346.003.399.003.44 0v.031H.419C.345.031.343.042.343.078v.087h.1M.272.196H.028l.244.373V.196z"/></symbol><symbol id="C"><path d="M.429.666H.186C.064.666.062.679.058.698H.033L0 .492h.025C.028.508.037.571.05.583c.007.006.085.006.098.006h.207L.243.431A.699.699 0 0 1 .12.055C.12.045.12 0 .166 0s.046.045.046.055v.051c0 .055.003.11.011.164.004.023.018.109.062.171l.135.19c.009.012.009.014.009.035z"/></symbol><symbol id="D"><path d="M.415.193c0 .082-.063.16-.167.181.082.027.14.097.14.176C.388.632.3.688.204.688.103.688.027.628.027.552.027.519.049.5.078.5.109.5.129.522.129.551c0 .05-.047.05-.062.05C.098.65.164.663.2.663.241.663.296.641.296.551A.25.25 0 0 0 .268.437C.238.389.204.386.179.385A.554.554 0 0 0 .14.382C.132.381.125.38.125.37c0-.011.007-.011.024-.011h.044C.275.359.312.291.312.193.312.057.243.028.199.028.156.028.081.045.046.104.081.099.112.121.112.159a.054.054 0 0 1-.056.056C.032.215 0 .201 0 .157 0 .066.093 0 .202 0c.122 0 .213.091.213.193z"/></symbol><use xlink:href="#x" transform="matrix(9.9626 0 0 -9.9626 25.793 52.524)"/><use xlink:href="#o" transform="matrix(9.9626 0 0 -9.9626 31.243 52.305)"/><use xlink:href="#y" transform="matrix(9.9626 0 0 -9.9626 33.652 52.524)"/><use xlink:href="#z" transform="matrix(9.9626 0 0 -9.9626 38.553 52.524)"/><use xlink:href="#x" transform="matrix(9.9626 0 0 -9.9626 74.967 52.524)"/><use xlink:href="#o" transform="matrix(9.9626 0 0 -9.9626 80.416 52.305)"/><use xlink:href="#x" transform="matrix(9.9626 0 0 -9.9626 82.716 52.524)"/><use xlink:href="#A" transform="matrix(9.9626 0 0 -9.9626 87.727 52.524)"/><use xlink:href="#x" transform="matrix(9.9626 0 0 -9.9626 127.328 52.524)"/><use xlink:href="#o" transform="matrix(9.9626 0 0 -9.9626 132.778 52.305)"/><use xlink:href="#B" transform="matrix(9.9626 0 0 -9.9626 134.967 52.305)"/><use xlink:href="#x" transform="matrix(9.9626 0 0 -9.9626 173.871 52.524)"/><use xlink:href="#o" transform="matrix(9.9626 0 0 -9.9626 179.32 52.305)"/><use xlink:href="#C" transform="matrix(9.9626 0 0 -9.9626 181.79 52.524)"/><use xlink:href="#D" transform="matrix(9.9626 0 0 -9.9626 186.631 52.524)"/><path stroke-width=".797" stroke-miterlimit="10" fill="none" stroke="#000" d="M6.53 58.005H191.2"/></g></svg>