<svg xmlns="http://www.w3.org/2000/svg" xmlns:xlink="http://www.w3.org/1999/xlink" width="262.275" height="84.377" viewBox="0 0 196.706 63.283"><clipPath id="a"><path transform="matrix(1 0 0 -1 -207.135 302.643)" d="M0 0h612v792H0z"/></clipPath><g clip-path="url(#a)"><symbol id="b"><path d="M.458.154c0 .01-.009.01-.012.01C.436.164.435.16.432.146.415.081.397.022.356.022c-.027 0-.03.026-.03.046 0 .024.002.031.006.048l.144.578s0 .011-.013.011C.448.705.353.696.336.694.328.693.322.688.322.675c0-.012.009-.012.024-.012.048 0 .05-.007.05-.017L.393.626.333.389C.315.426.286.453.241.453.124.453 0 .306 0 .16 0 .066.055 0 .133 0c.02 0 .07.004.13.075A.09.09 0 0 1 .354 0c.035 0 .058.023.074.055.017.036.03.099.03.099m-.14.172L.268.13C.263.112.263.11.248.093.204.038.163.022.135.022c-.05 0-.064.055-.064.094 0 .05.032.173.055.219.031.059.076.096.116.096.065 0 .079-.082.079-.088C.321.337.319.331.318.326z"/></symbol><use xlink:href="#b" transform="matrix(9.9626 0 0 -9.9626 48.248 10.116)"/><symbol id="c"><path d="M.408.123c0 .019-.014.025-.02.028L.235.215l.148.064C.397.285.408.29.408.308.408.322.396.34.377.34.369.34.366.338.356.331L.218.24l.015.15.002.013a.03.03 0 0 1-.031.028C.184.431.173.416.173.403L.19.24.053.331C.04.339.035.34.031.34.012.34 0 .322 0 .308 0 .29.011.285.025.279L.173.216.025.152C.011.146 0 .141 0 .123 0 .109.012.091.031.091.039.091.042.093.052.1l.137.091L.173.028C.173.015.184 0 .204 0a.03.03 0 0 1 .031.028L.218.191.341.109C.368.091.37.091.377.091c.019 0 .031.018.031.032z"/></symbol><use xlink:href="#c" transform="matrix(6.9738 0 0 -6.9738 53.649 6.154)"/><symbol id="d"><path d="M.106.378a.053.053 0 0 1-.053.053A.053.053 0 0 1 0 .378C0 .349.024.325.053.325c.029 0 .053.024.053.053m0-.325a.053.053 0 0 1-.053.053A.053.053 0 0 1 0 .053C0 .024.024 0 .053 0c.029 0 .053.024.053.053z"/></symbol><symbol id="e"><path d="M.451.1v.056H.426V.1C.426.042.401.036.39.036c-.033 0-.037.045-.037.05v.2c0 .042 0 .081-.036.118A.191.191 0 0 1 .18.459C.098.459.029.412.029.346c0-.03.02-.047.046-.047.028 0 .046.02.046.046C.121.357.116.39.07.391c.027.035.076.046.108.046.049 0 .106-.039.106-.128V.272C.233.269.163.266.1.236.025.202 0 .15 0 .106 0 .025.097 0 .16 0c.066 0 .112.04.131.087C.295.047.322.005.369.005.39.005.451.019.451.1M.284.151C.284.056.212.022.167.022c-.049 0-.09.035-.09.085 0 .055.042.138.207.144v-.1z"/></symbol><symbol id="f"><path d="M.327.139c0 .053-.03.083-.042.095C.252.266.213.274.171.282.115.293.048.306.048.364.048.399.074.44.16.44.27.44.275.35.277.319.278.31.289.31.289.31c.013 0 .013.005.013.024v.101c0 .017 0 .024-.011.024-.005 0-.007 0-.02-.012A.129.129 0 0 0 .254.431C.216.459.175.459.16.459.038.459 0 .392 0 .336 0 .301.016.273.043.251.075.225.103.219.175.205.197.201.279.185.279.113.279.062.244.022.166.022c-.084 0-.12.057-.139.142C.024.177.023.181.013.181 0 .181 0 .174 0 .156V.024C0 .007 0 0 .011 0c.005 0 .006.001.025.02.002.002.002.004.02.023A.15.15 0 0 1 .166 0c.115 0 .161.067.161.139z"/></symbol><symbol id="g"><path d="M.214 0v.031c-.066 0-.07.005-.07.044v.367L.004.431V.4C.069.4.078.394.078.345V.076C.078.031.067.031 0 .031V0l.11.003C.145.003.18.001.214 0M.159.604a.053.053 0 0 1-.107 0 .053.053 0 0 1 .107 0z"/></symbol><symbol id="h"><path d="M.781 0v.031c-.052 0-.077 0-.078.03v.191c0 .086 0 .117-.031.153C.658.422.625.442.567.442A.158.158 0 0 1 .422.344C.408.431.334.442.289.442.216.442.169.399.141.337v.105L0 .431V.4C.07.4.078.393.078.344V.076C.078.031.067.031 0 .031V0l.113.003L.225 0v.031c-.067 0-.078 0-.078.045V.26c0 .104.071.16.135.16C.345.42.356.366.356.309V.076C.356.031.345.031.278.031V0l.113.003L.503 0v.031c-.067 0-.078 0-.078.045V.26c0 .104.071.16.135.16C.623.42.634.366.634.309V.076C.634.031.623.031.556.031V0l.113.003L.781 0z"/></symbol><symbol id="i"><path d="M.503.011v.031c-.07 0-.078.007-.078.056v.355L.278.442V.411c.07 0 .078-.007.078-.056V.177C.356.09.308.022.235.022.151.022.147.069.147.121v.332L0 .442V.411C.078.411.078.408.078.319v-.15C.078.091.078 0 .23 0c.056 0 .1.028.129.09V0l.144.011z"/></symbol><symbol id="j"><path d="M.222 0v.031c-.067 0-.078 0-.078.045v.618L0 .683V.652C.07.652.078.645.078.596v-.52C.078.031.067.031 0 .031V0l.111.003L.222 0z"/></symbol><symbol id="k"><path d="M.313.135v.057H.288V.137C.288.063.258.025.221.025.154.025.154.116.154.133v.278h.143v.031H.154v.184H.129C.128.544.098.437 0 .433V.411h.085V.135C.085.012.178 0 .214 0c.071 0 .099.071.099.135z"/></symbol><symbol id="l"><path d="M.387.13c0 .01-.008.012-.013.012C.365.142.363.136.361.128.326.025.236.025.226.025c-.05 0-.09.03-.113.067-.03.048-.03.114-.03.15h.279c.022 0 .025 0 .025.021 0 .099-.054.196-.179.196C.092.459 0 .356 0 .231 0 .097.105 0 .22 0a.17.17 0 0 1 .167.13M.321.263H.084c.006.149.09.174.124.174.103 0 .113-.135.113-.174z"/></symbol><symbol id="m"><path d="M.493.011v.031c-.07 0-.078.007-.078.056v.607L.271.694V.663c.07 0 .078-.007.078-.056V.391a.16.16 0 0 1-.126.062A.226.226 0 0 1 0 .226C0 .099.098 0 .212 0c.064 0 .109.034.134.066V0l.147.011M.346.129c0-.018 0-.02-.011-.037a.14.14 0 0 0-.118-.07C.172.022.136.048.112.086a.269.269 0 0 0-.029.139c0 .037.002.097.031.142a.137.137 0 0 0 .113.064.13.13 0 0 0 .108-.06C.346.354.346.352.346.334V.129z"/></symbol><use xlink:href="#d" transform="matrix(9.9626 0 0 -9.9626 58.472 10.006)"/><use xlink:href="#e" transform="matrix(9.9626 0 0 -9.9626 65.125 10.116)"/><use xlink:href="#f" transform="matrix(9.9626 0 0 -9.9626 73.443 10.116)"/><use xlink:href="#g" transform="matrix(9.9626 0 0 -9.9626 77.374 10.006)"/><use xlink:href="#h" transform="matrix(9.9626 0 0 -9.9626 80.131 10.006)"/><use xlink:href="#i" transform="matrix(9.9626 0 0 -9.9626 88.154 10.116)"/><use xlink:href="#j" transform="matrix(9.9626 0 0 -9.9626 93.7 10.006)"/><use xlink:href="#e" transform="matrix(9.9626 0 0 -9.9626 96.457 10.116)"/><use xlink:href="#k" transform="matrix(9.9626 0 0 -9.9626 101.309 10.116)"/><use xlink:href="#l" transform="matrix(9.9626 0 0 -9.9626 105.273 10.116)"/><use xlink:href="#m" transform="matrix(9.9626 0 0 -9.9626 109.761 10.116)"/><use xlink:href="#m" transform="matrix(9.9626 0 0 -9.9626 118.614 10.116)"/><use xlink:href="#e" transform="matrix(9.9626 0 0 -9.9626 124.13 10.116)"/><use xlink:href="#k" transform="matrix(9.9626 0 0 -9.9626 128.98 10.116)"/><use xlink:href="#e" transform="matrix(9.9626 0 0 -9.9626 132.985 10.116)"/><use xlink:href="#f" transform="matrix(9.9626 0 0 -9.9626 137.976 10.116)"/><use xlink:href="#l" transform="matrix(9.9626 0 0 -9.9626 141.856 10.116)"/><use xlink:href="#k" transform="matrix(9.9626 0 0 -9.9626 146.195 10.116)"/><path stroke-width=".797" stroke-miterlimit="10" fill="none" stroke="#000" d="M57.7 23.954h82.33"/><symbol id="n"><path d="M.503 0v.031c-.052 0-.077 0-.078.03v.191c0 .086 0 .117-.031.153C.38.422.347.442.289.442.216.442.169.399.141.337v.105L0 .431V.4C.07.4.078.393.078.344V.076C.078.031.067.031 0 .031V0l.113.003L.225 0v.031c-.067 0-.078 0-.078.045V.26c0 .104.071.16.135.16C.345.42.356.366.356.309V.076C.356.031.345.031.278.031V0l.113.003L.503 0z"/></symbol><symbol id="o"><path d="M.493 0v.031c-.067 0-.078 0-.078.045v.56H.393L.355.545C.342.573.301.636.221.636A.225.225 0 0 1 0 .409C0 .284.097.183.213.183c.07 0 .111.043.133.072V.076C.346.031.335.031.268.031V0L.38.003.493 0M.349.33C.349.298.331.27.309.246A.128.128 0 0 0 .217.205C.144.205.083.294.083.409c0 .119.07.202.144.202.08 0 .122-.087.122-.14V.33z"/></symbol><symbol id="p"><path d="M.336.381c0 .032-.031.061-.074.061C.189.442.153.375.139.332v.11L0 .431V.4C.07.4.078.393.078.344V.076C.078.031.067.031 0 .031V0l.114.003c.04 0 .087 0 .127-.003v.031H.22C.146.031.144.042.144.078v.154c0 .099.042.188.118.188L.273.419A.043.043 0 0 1 .25.38C.25.352.271.337.293.337c.018 0 .043.012.043.044z"/></symbol><symbol id="q"><path d="M.489.605v.031A.94.94 0 0 0 .414.633L.327.636V.605C.358.604.374.587.374.562.374.552.373.55.368.538L.267.292.156.561C.152.571.15.575.15.579c0 .026.037.026.056.026v.031L.097.633C.07.633.03.634 0 .636V.605c.048 0 .067 0 .081-.035l.15-.365L.206.146C.184.091.156.022.092.022c-.005 0-.028 0-.047.018.031.004.039.026.039.042a.04.04 0 0 1-.042.042C.022.124 0 .111 0 .081 0 .036.042 0 .092 0 .155 0 .196.057.22.114l.176.427a.094.094 0 0 0 .093.064z"/></symbol><use xlink:href="#g" transform="matrix(9.9626 0 0 -9.9626 58.029 35.51)"/><use xlink:href="#n" transform="matrix(9.9626 0 0 -9.9626 60.786 35.51)"/><use xlink:href="#o" transform="matrix(9.9626 0 0 -9.9626 66.341 37.442)"/><use xlink:href="#i" transform="matrix(9.9626 0 0 -9.9626 71.58 35.619)"/><use xlink:href="#g" transform="matrix(9.9626 0 0 -9.9626 77.125 35.51)"/><use xlink:href="#p" transform="matrix(9.9626 0 0 -9.9626 79.843 35.51)"/><use xlink:href="#q" transform="matrix(9.9626 0 0 -9.9626 83.655 37.551)"/><use xlink:href="#l" transform="matrix(9.9626 0 0 -9.9626 100.958 35.619)"/><use xlink:href="#f" transform="matrix(9.9626 0 0 -9.9626 105.437 35.619)"/><use xlink:href="#k" transform="matrix(9.9626 0 0 -9.9626 109.227 35.619)"/><use xlink:href="#g" transform="matrix(9.9626 0 0 -9.9626 113.241 35.51)"/><use xlink:href="#h" transform="matrix(9.9626 0 0 -9.9626 115.999 35.51)"/><use xlink:href="#e" transform="matrix(9.9626 0 0 -9.9626 124.3 35.619)"/><use xlink:href="#n" transform="matrix(9.9626 0 0 -9.9626 129.282 35.51)"/><use xlink:href="#m" transform="matrix(9.9626 0 0 -9.9626 134.837 35.619)"/><path stroke-width=".498" stroke-miterlimit="10" fill="none" stroke="#000" d="M57.7 41.061h82.33"/><symbol id="r"><path d="M.727.652v.031A1.706 1.706 0 0 0 .629.68L.514.683V.652C.555.652.571.633.571.613a.063.063 0 0 0-.01-.03L.396.315.215.61C.208.62.208.622.208.627c0 .021.025.025.07.025v.031C.242.68.169.68.13.68L0 .683V.652h.018C.086.652.094.641.11.615L.32.273V.078C.32.042.318.031.241.031H.217V0c.036.003.107.003.146.003.039 0 .11 0 .146-.003v.031H.486c-.077 0-.08.01-.08.049v.193l.193.314c.037.061.096.065.128.065z"/></symbol><symbol id="s"><path d="M.493.227c0 .127-.098.226-.212.226A.178.178 0 0 1 .144.388v.317L0 .694V.663C.07.663.078.656.078.607V.011h.025l.036.062A.157.157 0 0 1 .27 0c.119 0 .223.098.223.227M.41.228A.268.268 0 0 0 .379.086.137.137 0 0 0 .266.022a.124.124 0 0 0-.105.061C.147.104.147.107.147.125v.206c0 .019 0 .02.011.036a.144.144 0 0 0 .118.064C.321.431.357.405.381.367A.269.269 0 0 0 .41.228z"/></symbol><symbol id="t"><path d="M.421.342c0 .08-.005.16-.04.234A.185.185 0 0 1 .037.569.535.535 0 0 1 0 .342C0 .267.004.177.045.101A.183.183 0 0 1 .21 0c.054 0 .13.021.174.116a.533.533 0 0 1 .037.226M.338.354c0-.075 0-.143-.011-.207C.312.052.255.022.21.022.171.022.112.047.094.143.083.203.083.295.083.354c0 .064 0 .13.008.184C.11.657.185.666.21.666.243.666.309.648.328.549c.01-.056.01-.132.01-.195z"/></symbol><symbol id="u"><path d="M.106.053a.053.053 0 0 1-.053.053A.053.053 0 0 1 0 .053C0 .024.024 0 .053 0c.029 0 .053.024.053.053z"/></symbol><symbol id="v"><path d="M.415.226c0 .127-.089.223-.2.223C.147.449.11.398.09.35v.024c0 .253.124.289.175.289.024 0 .066-.006.088-.04-.015 0-.055 0-.055-.045 0-.031.024-.046.046-.046C.36.532.39.541.39.58.39.64.346.688.263.688.135.688 0 .559 0 .338 0 .071.116 0 .209 0 .32 0 .415.094.415.226m-.09.001c0-.048 0-.098-.017-.134C.278.033.232.028.209.028.146.028.116.088.11.103.092.15.092.23.092.248c0 .078.032.178.122.178.016 0 .062 0 .093-.062C.325.327.325.276.325.227z"/></symbol><symbol id="w"><path d="M.399.223c0 .119-.082.219-.19.219A.176.176 0 0 1 .082.391v.195A.317.317 0 0 1 .167.573C.29.573.36.664.36.677.36.683.357.688.35.688c0 0-.003 0-.008-.003A.33.33 0 0 0 .073.684L.061.687c-.01 0-.01-.008-.01-.024V.367c0-.018 0-.026.014-.026.007 0 .009.003.013.009.011.016.048.07.129.07C.259.42.284.374.292.356A.308.308 0 0 0 .31.23C.31.195.31.135.286.093A.125.125 0 0 0 .179.028.156.156 0 0 0 .032.14C.035.139.038.138.049.138c.033 0 .05.025.05.049a.048.048 0 0 1-.05.049C.035.236 0 .229 0 .183 0 .097.069 0 .181 0a.22.22 0 0 1 .218.223z"/></symbol><use xlink:href="#r" transform="matrix(9.9626 0 0 -9.9626 57.81 52.466)"/><use xlink:href="#s" transform="matrix(9.9626 0 0 -9.9626 65.45 52.576)"/><use xlink:href="#e" transform="matrix(9.9626 0 0 -9.9626 71.026 52.576)"/><use xlink:href="#p" transform="matrix(9.9626 0 0 -9.9626 75.967 52.466)"/><use xlink:href="#t" transform="matrix(9.9626 0 0 -9.9626 122.709 52.685)"/><use xlink:href="#u" transform="matrix(9.9626 0 0 -9.9626 128.158 52.466)"/><use xlink:href="#v" transform="matrix(9.9626 0 0 -9.9626 130.488 52.685)"/><use xlink:href="#w" transform="matrix(9.9626 0 0 -9.9626 135.549 52.685)"/><path stroke-width=".797" stroke-miterlimit="10" fill="none" stroke="#000" d="M57.7 58.167h82.33"/></g></svg>