<svg xmlns="http://www.w3.org/2000/svg" xmlns:xlink="http://www.w3.org/1999/xlink" width="1280" height="720" viewBox="0 0 960 540"><clipPath id="a"><path transform="matrix(1 0 0 -1 0 540)" d="M0 0h959.76v540H0z"/></clipPath><g clip-path="url(#a)"><path d="M0 0h959.76v540H0z" fill="#fff"/></g><path d="M0 0h960v540H0z" fill="#fff"/><symbol id="b"><path d="M.359.491v.283h.09v-.76h-.09v.069A.157.157 0 0 0 .213 0a.184.184 0 0 0-.156.077A.352.352 0 0 0 0 .289a.34.34 0 0 0 .057.209c.038.05.09.076.156.076A.172.172 0 0 0 .3.553.148.148 0 0 0 .359.49M.095.287c0-.07.01-.122.033-.158A.108.108 0 0 1 .226.076.11.11 0 0 1 .325.13a.295.295 0 0 1 .034.157c0 .07-.012.122-.034.157a.11.11 0 0 1-.099.054.108.108 0 0 1-.098-.053.302.302 0 0 1-.033-.158z"/></symbol><symbol id="c"><path d="M.487.333V.289h-.39V.286C.096.21.11.158.14.125A.174.174 0 0 1 .272.076a.32.32 0 0 1 .09.014c.031.009.064.023.1.041V.042A.587.587 0 0 0 .27 0a.26.26 0 0 0-.2.076A.296.296 0 0 0 0 .287a.3.3 0 0 0 .07.21.24.24 0 0 0 .188.077c.07 0 .124-.023.164-.07A.271.271 0 0 0 .487.332m-.09.026a.172.172 0 0 1-.042.098C.332.484.298.498.254.498A.143.143 0 0 1 .147.455.152.152 0 0 1 .101.358h.296z"/></symbol><symbol id="d"><path d="M.423.042A.303.303 0 0 0 .27 0a.26.26 0 0 0-.199.076A.297.297 0 0 0 0 .287c0 .09.024.16.071.211A.26.26 0 0 0 .27.574.292.292 0 0 0 .423.532V.438a.218.218 0 0 1-.153.06.16.16 0 0 1-.13-.055.238.238 0 0 1-.045-.156A.24.24 0 0 1 .14.131.16.16 0 0 1 .27.076c.031 0 .06.005.084.014.025.01.048.025.069.045V.042z"/></symbol><symbol id="e"><path d="M.234.198c0-.04.007-.071.022-.092a.076.076 0 0 1 .066-.03h.105V0H.313a.157.157 0 0 0-.125.051.22.22 0 0 0-.044.147v.494H0v.07h.234V.199z"/></symbol><symbol id="f"><path d="M.278.29h-.03A.208.208 0 0 1 .129.26C.103.243.09.216.09.18.09.146.1.121.12.103A.117.117 0 0 1 .203.075c.05 0 .089.017.117.051A.22.22 0 0 1 .362.27v.02H.278m.174.037V.014h-.09v.081A.187.187 0 0 0 .289.023.225.225 0 0 0 .183 0C.127 0 .083.016.05.047A.166.166 0 0 0 0 .173C0 .234.02.28.061.312a.292.292 0 0 0 .18.047h.12v.015c0 .043-.01.075-.032.094-.022.02-.057.03-.105.03A.404.404 0 0 1 .04.446v.09a.609.609 0 0 0 .184.038.3.3 0 0 0 .116-.02.182.182 0 0 0 .078-.06.152.152 0 0 0 .026-.06.543.543 0 0 0 .008-.108z"/></symbol><symbol id="g"><path d="M.387.434A.203.203 0 0 1 .33.467a.2.2 0 0 1-.066.01C.207.477.164.46.135.424.105.39.09.338.09.272V0H0v.547h.09V.44a.181.181 0 0 0 .18.12.198.198 0 0 0 .117-.034V.434z"/></symbol><symbol id="h"><path d="M.236.702V.547H.44v-.07H.236V.18c0-.04.007-.068.023-.084C.274.08.3.072.339.072h.1V0H.33C.263 0 .215.014.187.04.16.069.146.115.146.18v.297H0v.07h.146v.155h.09z"/></symbol><symbol id="i"><path d="M.038.545h.23V.07h.178V0H0v.07h.178v.405h-.14v.07m.14.212h.09V.644h-.09v.113z"/></symbol><symbol id="j"><path d="M.234.498A.116.116 0 0 1 .13.445.288.288 0 0 1 .095.287.29.29 0 0 1 .13.13.116.116 0 0 1 .234.076c.046 0 .08.018.104.053a.29.29 0 0 1 .035.158c0 .07-.012.122-.035.158a.117.117 0 0 1-.104.053m0 .076C.31.574.368.55.408.5c.04-.049.06-.12.06-.213a.332.332 0 0 0-.06-.214C.368.024.31 0 .234 0 .158 0 .1.024.06.073.02.123 0 .193 0 .287 0 .38.02.451.06.5.1.55.158.574.234.574z"/></symbol><symbol id="k"><path d="M.418.339V0h-.09v.339c0 .049-.009.085-.026.108C.285.47.257.482.22.482A.115.115 0 0 1 .124.437.209.209 0 0 1 .09.309V0H0v.547h.09V.465a.168.168 0 0 0 .065.07C.182.553.215.56.252.56.308.56.349.542.376.505.404.468.418.413.418.339z"/></symbol><symbol id="l"><path d="M.598.083V0H0v.083h.598z"/></symbol><symbol id="m"><path d="M.31.64.08.253h.23v.385M.292.73h.114V.254h.097v-.08H.407V0H.31v.174H0v.093L.293.73z"/></symbol><symbol id="n"><path d="M0 .197h.172V0H0v.197z"/></symbol><symbol id="o"><path d="M.03.083h.154v.55L0 .545V.64l.183.087H.28V.083h.152V0H.03v.083z"/></symbol><use xlink:href="#b" transform="matrix(18 0 0 -18 110.566 83.055)" fill="#130869"/><use xlink:href="#c" transform="matrix(18 0 0 -18 121.441 83.055)" fill="#130869"/><use xlink:href="#d" transform="matrix(18 0 0 -18 132.95 83.055)" fill="#130869"/><use xlink:href="#e" transform="matrix(18 0 0 -18 144.22 82.8)" fill="#130869"/><use xlink:href="#f" transform="matrix(18 0 0 -18 154.156 83.055)" fill="#130869"/><use xlink:href="#g" transform="matrix(18 0 0 -18 167.044 82.8)" fill="#130869"/><use xlink:href="#f" transform="matrix(18 0 0 -18 175.907 83.055)" fill="#130869"/><use xlink:href="#h" transform="matrix(18 0 0 -18 186.765 82.8)" fill="#130869"/><use xlink:href="#i" transform="matrix(18 0 0 -18 198.581 82.8)" fill="#130869"/><use xlink:href="#j" transform="matrix(18 0 0 -18 208.569 83.055)" fill="#130869"/><use xlink:href="#k" transform="matrix(18 0 0 -18 219.954 82.8)" fill="#130869"/><use xlink:href="#l" transform="matrix(18 0 0 -18 229.116 85.964)" fill="#130869"/><use xlink:href="#m" transform="matrix(18 0 0 -18 240.888 82.8)" fill="#130869"/><use xlink:href="#n" transform="matrix(18 0 0 -18 254.286 82.8)" fill="#130869"/><use xlink:href="#o" transform="matrix(18 0 0 -18 263.571 82.8)" fill="#130869"/><symbol id="p"><path d="M.516.4.101.244.516.09V0L0 .204v.081L.516.49V.4z"/></symbol><use xlink:href="#p" transform="matrix(18 0 0 -18 284.258 81.56)" fill="#565656"/><symbol id="q"><path d="M0 .083h.518V0H0v.083z"/></symbol><use xlink:href="#q" transform="matrix(18 0 0 -18 295.256 77.922)" fill="#565656"/><symbol id="r"><path d="M.277.491c.01.024.025.04.042.052A.11.11 0 0 0 .38.56C.425.56.456.543.474.51A.454.454 0 0 0 .5.317V0H.419v.313a.45.45 0 0 1-.013.144C.397.475.382.485.359.485.333.485.315.475.305.455A.422.422 0 0 1 .291.313V0H.209v.313a.422.422 0 0 1-.014.145C.185.476.169.485.145.485c-.024 0-.04-.01-.05-.03A.436.436 0 0 1 .082.313V0H0v.547h.082V.5c.01.02.024.034.04.044A.1.1 0 0 0 .177.56.105.105 0 0 0 .238.543.109.109 0 0 0 .277.491z"/></symbol><use xlink:href="#b" transform="matrix(18 0 0 -18 132.316 137.055)" fill="#0563c1"/><use xlink:href="#c" transform="matrix(18 0 0 -18 143.191 137.055)" fill="#0563c1"/><use xlink:href="#d" transform="matrix(18 0 0 -18 154.7 137.055)" fill="#0563c1"/><use xlink:href="#e" transform="matrix(18 0 0 -18 165.97 136.8)" fill="#0563c1"/><use xlink:href="#f" transform="matrix(18 0 0 -18 175.906 137.055)" fill="#0563c1"/><use xlink:href="#g" transform="matrix(18 0 0 -18 188.794 136.8)" fill="#0563c1"/><use xlink:href="#c" transform="matrix(18 0 0 -18 197.57 137.055)" fill="#0563c1"/><use xlink:href="#l" transform="matrix(18 0 0 -18 207.364 139.964)" fill="#0563c1"/><use xlink:href="#r" transform="matrix(18 0 0 -18 219.197 136.8)" fill="#0563c1"/><use xlink:href="#j" transform="matrix(18 0 0 -18 230.319 137.055)" fill="#0563c1"/><use xlink:href="#b" transform="matrix(18 0 0 -18 241.072 137.055)" fill="#0563c1"/><use xlink:href="#c" transform="matrix(18 0 0 -18 251.947 137.055)" fill="#0563c1"/><use xlink:href="#e" transform="matrix(18 0 0 -18 263.851 136.8)" fill="#0563c1"/><path d="M131.484 138.85h141v-1h-141z" fill="#0563c1" fill-rule="evenodd"/><symbol id="s"><path d="M.224.89A.99.99 0 0 1 .127.669a.802.802 0 0 1 0-.445A1.01 1.01 0 0 1 .224 0H.146a1.02 1.02 0 0 0-.11.226.703.703 0 0 0 0 .439c.024.074.06.149.11.226h.078z"/></symbol><use xlink:href="#s" transform="matrix(18 0 0 -18 276.09 138.294)" fill="#565656"/><symbol id="t"><path d="M0 .727h.135L.42.128v.599h.105V0H.39L.105.598V0H0v.727z"/></symbol><symbol id="u"><path d="M0 0z"/></symbol><use xlink:href="#t" transform="matrix(18 0 0 -18 283.651 136.8)" fill="#191c1f"/><use xlink:href="#u" transform="matrix(18 0 0 -18 294.36 136.8)" fill="#191c1f"/><symbol id="v"><path d="M0 .083h.516V0H0v.083m0 .23h.516V.23H0v.082z"/></symbol><use xlink:href="#v" transform="matrix(18 0 0 -18 306.008 133.89)" fill="#565656"/><symbol id="w"><path d="M.236.754A.195.195 0 0 0 .412.659a.534.534 0 0 0 .06-.282.534.534 0 0 0-.06-.282A.195.195 0 0 0 .236 0 .195.195 0 0 0 .06.095.538.538 0 0 0 0 .377c0 .124.02.218.06.282.04.063.098.095.176.095m0-.676c.046 0 .08.025.103.074C.362.2.373.276.373.377a.984.984 0 0 1-.01.145L.131.16C.155.105.19.079.236.079m0 .597C.19.676.156.65.133.602A.57.57 0 0 1 .099.377C.1.331.102.288.11.248l.227.363C.31.654.278.676.236.676z"/></symbol><use xlink:href="#o" transform="matrix(18 0 0 -18 328.813 136.8)" fill="#8e003a"/><use xlink:href="#w" transform="matrix(18 0 0 -18 339.03 137.055)" fill="#8e003a"/><use xlink:href="#w" transform="matrix(18 0 0 -18 349.905 137.055)" fill="#8e003a"/><symbol id="x"><path d="M.054.34h.152V.21L.098 0H0l.054.21v.13z"/></symbol><symbol id="y"><path d="M0 .294v.45h.1V.248C.1.214.1.189.101.173a.091.091 0 0 1 .01-.035.102.102 0 0 1 .045-.043A.161.161 0 0 1 .23.08a.16.16 0 0 1 .072.015c.02.01.034.024.045.043.005.008.008.02.01.035.002.015.003.04.003.075v.495h.099v-.45A.622.622 0 0 0 .444.136.164.164 0 0 0 .396.057.212.212 0 0 0 .322.014.288.288 0 0 0 .23 0a.286.286 0 0 0-.093.014.217.217 0 0 0-.074.043.166.166 0 0 0-.048.078A.626.626 0 0 0 0 .294z"/></symbol><use xlink:href="#x" transform="matrix(18 0 0 -18 362.527 139.753)" fill="#191c1f"/><use xlink:href="#u" transform="matrix(18 0 0 -18 370.485 136.8)" fill="#191c1f"/><use xlink:href="#y" transform="matrix(18 0 0 -18 382.653 137.055)" fill="#191c1f"/><use xlink:href="#u" transform="matrix(18 0 0 -18 392.236 136.8)" fill="#191c1f"/><use xlink:href="#v" transform="matrix(18 0 0 -18 403.883 133.89)" fill="#565656"/><use xlink:href="#g" transform="matrix(18 0 0 -18 428.041 136.8)" fill="#0563c1"/><use xlink:href="#k" transform="matrix(18 0 0 -18 437.449 136.8)" fill="#0563c1"/><use xlink:href="#j" transform="matrix(18 0 0 -18 447.815 137.055)" fill="#0563c1"/><use xlink:href="#g" transform="matrix(18 0 0 -18 460.668 136.8)" fill="#0563c1"/><use xlink:href="#r" transform="matrix(18 0 0 -18 469.32 136.8)" fill="#0563c1"/><path d="M424.485 138.85h55v-1h-55z" fill="#0563c1" fill-rule="evenodd"/><use xlink:href="#s" transform="matrix(18 0 0 -18 482.715 138.294)" fill="#565656"/><use xlink:href="#t" transform="matrix(18 0 0 -18 490.276 136.8)" fill="#130869"/><symbol id="z"><path d="M0 .89h.078a.996.996 0 0 0 .11-.225.701.701 0 0 0 0-.44A.996.996 0 0 0 .078 0H0c.043.076.076.15.097.224a.79.79 0 0 1 0 .444A.983.983 0 0 1 0 .891z"/></symbol><use xlink:href="#z" transform="matrix(18 0 0 -18 504.043 138.294)" fill="#565656"/><use xlink:href="#x" transform="matrix(18 0 0 -18 514.777 139.753)" fill="#191c1f"/><symbol id="A"><path d="M.09.277V0H0v.755h.09v-.07a.155.155 0 0 0 .06.062.171.171 0 0 0 .086.021.182.182 0 0 0 .156-.077A.351.351 0 0 0 .448.48a.344.344 0 0 0-.056-.21.183.183 0 0 0-.156-.075.152.152 0 0 0-.146.083M.354.48c0 .07-.011.122-.033.158a.107.107 0 0 1-.098.053.11.11 0 0 1-.099-.054A.297.297 0 0 1 .09.481C.09.411.102.36.124.324a.11.11 0 0 1 .1-.054C.265.27.298.288.32.323a.302.302 0 0 1 .033.158z"/></symbol><symbol id="B"><path d="M0 .221v.34h.09V.22C.09.172.098.136.116.113.133.09.16.078.196.078c.043 0 .075.015.098.045A.21.21 0 0 1 .328.25v.31h.09V.013h-.09v.082A.17.17 0 0 0 .166 0C.11 0 .068.018.041.055.014.09 0 .147 0 .22z"/></symbol><symbol id="C"><path d="M.371.542V.454a.342.342 0 0 1-.078.034.287.287 0 0 1-.08.011.167.167 0 0 1-.09-.02C.103.466.093.446.093.419.093.395.1.376.115.364A.306.306 0 0 1 .227.33L.263.322a.175.175 0 0 0 .101-.05.142.142 0 0 0 .035-.1A.153.153 0 0 0 .34.045.253.253 0 0 0 .181 0a.438.438 0 0 0-.085.009A.746.746 0 0 0 0 .034v.093a.533.533 0 0 1 .096-.04.326.326 0 0 1 .087-.012c.04 0 .07.008.092.024a.08.08 0 0 1 .033.068c0 .042-.04.07-.12.086L.185.254.15.261a.216.216 0 0 0-.113.051.134.134 0 0 0-.036.098c0 .053.018.093.053.121a.236.236 0 0 0 .152.043.42.42 0 0 0 .164-.032z"/></symbol><use xlink:href="#A" transform="matrix(18 0 0 -18 285.154 194.544)" fill="#0563c1"/><use xlink:href="#j" transform="matrix(18 0 0 -18 295.564 191.055)" fill="#0563c1"/><use xlink:href="#h" transform="matrix(18 0 0 -18 306.387 190.8)" fill="#0563c1"/><use xlink:href="#c" transform="matrix(18 0 0 -18 317.192 191.055)" fill="#0563c1"/><use xlink:href="#k" transform="matrix(18 0 0 -18 328.7 190.8)" fill="#0563c1"/><use xlink:href="#h" transform="matrix(18 0 0 -18 339.014 190.8)" fill="#0563c1"/><use xlink:href="#i" transform="matrix(18 0 0 -18 350.83 190.8)" fill="#0563c1"/><use xlink:href="#f" transform="matrix(18 0 0 -18 360.783 191.055)" fill="#0563c1"/><use xlink:href="#e" transform="matrix(18 0 0 -18 372.599 190.8)" fill="#0563c1"/><use xlink:href="#l" transform="matrix(18 0 0 -18 381.365 193.964)" fill="#0563c1"/><use xlink:href="#j" transform="matrix(18 0 0 -18 393.445 191.055)" fill="#0563c1"/><use xlink:href="#B" transform="matrix(18 0 0 -18 404.83 191.055)" fill="#0563c1"/><use xlink:href="#h" transform="matrix(18 0 0 -18 415.143 190.8)" fill="#0563c1"/><use xlink:href="#d" transform="matrix(18 0 0 -18 426.581 191.055)" fill="#0563c1"/><use xlink:href="#j" transform="matrix(18 0 0 -18 436.947 191.055)" fill="#0563c1"/><use xlink:href="#r" transform="matrix(18 0 0 -18 447.577 190.8)" fill="#0563c1"/><use xlink:href="#c" transform="matrix(18 0 0 -18 458.575 191.055)" fill="#0563c1"/><use xlink:href="#C" transform="matrix(18 0 0 -18 470.242 191.055)" fill="#0563c1"/><path d="M283.485 192.85h196v-1h-196z" fill="#0563c1" fill-rule="evenodd"/><use xlink:href="#s" transform="matrix(18 0 0 -18 482.715 192.294)" fill="#565656"/><symbol id="D"><path d="M0 .729h.105L.283.407.46.73h.106L.332.327V0h-.1v.327L0 .73z"/></symbol><use xlink:href="#D" transform="matrix(18 0 0 -18 490.435 190.8)" fill="#130869"/><symbol id="E"><path d="M.524.208.588.166A.379.379 0 0 0 .505.035.128.128 0 0 0 .422 0C.376.003.335.026.298.07L.221.167a.07.07 0 0 1-.058.028C.138.194.12.182.106.158a.764.764 0 0 1-.041-.09L0 .105A.31.31 0 0 0 .073.24c.03.028.06.043.09.043C.22.282.269.25.312.184.355.118.391.085.421.085.449.085.47.1.486.127c.016.029.03.056.04.081z"/></symbol><use xlink:href="#E" transform="matrix(18 0 0 -18 511.974 187.662)" fill="#565656"/><symbol id="F"><path d="M.108.083h.335V0H0v.083a20.136 20.136 0 0 1 .254.274c.032.04.054.072.066.096A.18.18 0 0 1 .337.53C.337.569.325.6.3.625a.135.135 0 0 1-.098.034.297.297 0 0 1-.094-.016.523.523 0 0 1-.103-.049v.1A.535.535 0 0 0 .104.73a.396.396 0 0 0 .097.012.25.25 0 0 0 .172-.057.187.187 0 0 0 .065-.149.22.22 0 0 0-.022-.094.455.455 0 0 0-.07-.103A15.72 15.72 0 0 0 .108.083z"/></symbol><symbol id="G"><path d="M.031.743h.37V.66H.12V.481a.223.223 0 0 0 .085.015.242.242 0 0 0 .18-.067.246.246 0 0 0 .066-.181.239.239 0 0 0-.07-.182A.263.263 0 0 0 .192 0a.67.67 0 0 0-.106.008A.393.393 0 0 0 0 .03v.1A.37.37 0 0 1 .183.083C.237.083.28.097.31.126c.03.029.044.07.044.122A.16.16 0 0 1 .307.37.176.176 0 0 1 .18.413.32.32 0 0 1 .031.377v.366z"/></symbol><use xlink:href="#w" transform="matrix(18 0 0 -18 534.778 191.055)" fill="#8e003a"/><use xlink:href="#n" transform="matrix(18 0 0 -18 547.904 190.8)" fill="#8e003a"/><use xlink:href="#F" transform="matrix(18 0 0 -18 556.697 190.8)" fill="#8e003a"/><use xlink:href="#G" transform="matrix(18 0 0 -18 567.493 191.055)" fill="#8e003a"/><symbol id="H"><path d="M.546.4.33.281.546.165.512.105.308.228V0h-.07v.228L.034.105 0 .165l.217.117L0 .4l.034.06.204-.122v.227h.07V.337l.204.122L.546.4z"/></symbol><use xlink:href="#H" transform="matrix(18 0 0 -18 588.512 190.334)" fill="#565656"/><symbol id="I"><path d="M.01.729h.474V.654L.103.083h.392V0H0v.075l.37.571H.01v.083z"/></symbol><use xlink:href="#I" transform="matrix(18 0 0 -18 611.106 190.8)" fill="#130869"/><symbol id="J"><path d="M.299.515V.3h.217V.216H.3V0H.217v.216H0V.3h.217v.216h.082z"/></symbol><use xlink:href="#J" transform="matrix(18 0 0 -18 632.434 189.719)" fill="#565656"/><use xlink:href="#y" transform="matrix(18 0 0 -18 654.527 191.055)" fill="#130869"/><use xlink:href="#z" transform="matrix(18 0 0 -18 667.168 192.294)" fill="#565656"/><use xlink:href="#z" transform="matrix(18 0 0 -18 678.044 192.294)" fill="#565656"/><use xlink:href="#J" transform="matrix(18 0 0 -18 697.684 189.719)" fill="#565656"/><symbol id="K"><path d="M.095.481c0-.07.011-.122.033-.158A.108.108 0 0 1 .226.27C.27.27.302.288.324.323a.3.3 0 0 1 .034.158c0 .07-.011.122-.034.157a.108.108 0 0 1-.098.054.108.108 0 0 1-.098-.053A.306.306 0 0 1 .095.48M.358.278A.158.158 0 0 0 .212.194.184.184 0 0 0 .057.27.344.344 0 0 0 0 .479c0 .09.019.161.057.212.037.052.09.077.155.077A.168.168 0 0 0 .298.747a.154.154 0 0 0 .06-.062v.07h.09V0h-.09v.278z"/></symbol><symbol id="L"><path d="M.368.384a8.987 8.987 0 0 1-.057-.15A1.445 1.445 0 0 0 .246.075.153.153 0 0 0 .19.02.157.157 0 0 0 .11 0H.04v.075h.053C.12.075.14.083.154.098a.394.394 0 0 1 .057.119L0 .755h.095L.257.327l.16.428h.095L.368.384z"/></symbol><use xlink:href="#b" transform="matrix(18 0 0 -18 132.316 245.055)" fill="#0563c1"/><use xlink:href="#c" transform="matrix(18 0 0 -18 143.191 245.055)" fill="#0563c1"/><use xlink:href="#d" transform="matrix(18 0 0 -18 154.7 245.055)" fill="#0563c1"/><use xlink:href="#e" transform="matrix(18 0 0 -18 165.97 244.8)" fill="#0563c1"/><use xlink:href="#f" transform="matrix(18 0 0 -18 175.906 245.055)" fill="#0563c1"/><use xlink:href="#g" transform="matrix(18 0 0 -18 188.794 244.8)" fill="#0563c1"/><use xlink:href="#c" transform="matrix(18 0 0 -18 197.57 245.055)" fill="#0563c1"/><use xlink:href="#l" transform="matrix(18 0 0 -18 207.364 247.964)" fill="#0563c1"/><use xlink:href="#i" transform="matrix(18 0 0 -18 220.331 244.8)" fill="#0563c1"/><use xlink:href="#k" transform="matrix(18 0 0 -18 230.829 244.8)" fill="#0563c1"/><use xlink:href="#K" transform="matrix(18 0 0 -18 241.195 248.58)" fill="#0563c1"/><use xlink:href="#B" transform="matrix(18 0 0 -18 252.58 245.055)" fill="#0563c1"/><use xlink:href="#i" transform="matrix(18 0 0 -18 263.834 244.8)" fill="#0563c1"/><use xlink:href="#g" transform="matrix(18 0 0 -18 275.799 244.8)" fill="#0563c1"/><use xlink:href="#L" transform="matrix(18 0 0 -18 284.407 248.544)" fill="#0563c1"/><path d="M131.484 246.85h163v-1h-163z" fill="#0563c1" fill-rule="evenodd"/><use xlink:href="#s" transform="matrix(18 0 0 -18 297.84 246.294)" fill="#565656"/><symbol id="M"><path d="M.099.648V.374h.114c.045 0 .08.012.106.036a.132.132 0 0 1 .039.101.131.131 0 0 1-.038.1.15.15 0 0 1-.107.037H.099M0 .729h.213C.294.729.356.71.398.673.44.637.46.583.46.511.46.44.44.385.398.348.356.311.295.293.213.293H.099V0H0v.729z"/></symbol><symbol id="N"><path d="M.283.642.179.27h.208L.283.642M.223.73h.12L.566 0H.464L.41.19H.155L.102 0H0l.223.729z"/></symbol><symbol id="O"><path d="M0 .729h.556V.646H.328V0H.23v.646H0v.083z"/></symbol><symbol id="P"><path d="M0 .729h.433V.646H.099V.45h.319V.367h-.32V.083h.344V0H0v.729z"/></symbol><use xlink:href="#M" transform="matrix(18 0 0 -18 306.966 244.8)" fill="#191c1f"/><use xlink:href="#N" transform="matrix(18 0 0 -18 316.435 244.8)" fill="#191c1f"/><use xlink:href="#O" transform="matrix(18 0 0 -18 327.399 244.8)" fill="#191c1f"/><use xlink:href="#P" transform="matrix(18 0 0 -18 339.593 244.8)" fill="#191c1f"/><use xlink:href="#u" transform="matrix(18 0 0 -18 348.737 244.8)" fill="#191c1f"/><use xlink:href="#v" transform="matrix(18 0 0 -18 360.383 241.89)" fill="#565656"/><use xlink:href="#r" transform="matrix(18 0 0 -18 382.317 244.8)" fill="#0563c1"/><use xlink:href="#c" transform="matrix(18 0 0 -18 393.316 245.055)" fill="#0563c1"/><use xlink:href="#f" transform="matrix(18 0 0 -18 404.28 245.055)" fill="#0563c1"/><use xlink:href="#k" transform="matrix(18 0 0 -18 415.7 244.8)" fill="#0563c1"/><path d="M381.485 246.85h43v-1h-43z" fill="#0563c1" fill-rule="evenodd"/><use xlink:href="#s" transform="matrix(18 0 0 -18 428.34 246.294)" fill="#565656"/><use xlink:href="#D" transform="matrix(18 0 0 -18 436.06 244.8)" fill="#130869"/><use xlink:href="#l" transform="matrix(18 0 0 -18 446.61 247.964)" fill="#130869"/><use xlink:href="#I" transform="matrix(18 0 0 -18 458.857 244.8)" fill="#130869"/><use xlink:href="#l" transform="matrix(18 0 0 -18 468.361 247.964)" fill="#130869"/><use xlink:href="#o" transform="matrix(18 0 0 -18 481.065 244.8)" fill="#130869"/><use xlink:href="#q" transform="matrix(18 0 0 -18 501.881 239.922)" fill="#565656"/><use xlink:href="#D" transform="matrix(18 0 0 -18 523.06 244.8)" fill="#130869"/><use xlink:href="#l" transform="matrix(18 0 0 -18 533.61 247.964)" fill="#130869"/><use xlink:href="#I" transform="matrix(18 0 0 -18 545.857 244.8)" fill="#130869"/><use xlink:href="#l" transform="matrix(18 0 0 -18 555.361 247.964)" fill="#130869"/><use xlink:href="#w" transform="matrix(18 0 0 -18 567.406 245.055)" fill="#130869"/><use xlink:href="#z" transform="matrix(18 0 0 -18 580.168 246.294)" fill="#565656"/><use xlink:href="#z" transform="matrix(18 0 0 -18 591.044 246.294)" fill="#565656"/><use xlink:href="#J" transform="matrix(18 0 0 -18 610.684 243.719)" fill="#565656"/><symbol id="Q"><path d="M.359.493a.288.288 0 0 1-.033.153.106.106 0 0 1-.096.053.113.113 0 0 1-.1-.053.278.278 0 0 1-.035-.153c0-.068.011-.12.034-.155A.115.115 0 0 1 .231.286c.041 0 .073.017.095.053a.293.293 0 0 1 .033.154M.449.25C.449.168.429.106.39.063.35.021.295 0 .22 0A.467.467 0 0 0 .06.027v.089A.553.553 0 0 1 .148.083.272.272 0 0 1 .22.072c.048 0 .084.013.106.04.022.026.033.068.033.125V.3A.153.153 0 0 0 .3.234.171.171 0 0 0 .21.211a.181.181 0 0 0-.153.077A.335.335 0 0 0 0 .493c0 .086.019.154.057.205A.181.181 0 0 0 .21.775.177.177 0 0 0 .3.754.155.155 0 0 0 .358.689v.07h.09V.25z"/></symbol><use xlink:href="#b" transform="matrix(18 0 0 -18 132.316 299.055)" fill="#0563c1"/><use xlink:href="#c" transform="matrix(18 0 0 -18 143.191 299.055)" fill="#0563c1"/><use xlink:href="#d" transform="matrix(18 0 0 -18 154.7 299.055)" fill="#0563c1"/><use xlink:href="#e" transform="matrix(18 0 0 -18 165.97 298.8)" fill="#0563c1"/><use xlink:href="#f" transform="matrix(18 0 0 -18 175.906 299.055)" fill="#0563c1"/><use xlink:href="#g" transform="matrix(18 0 0 -18 188.794 298.8)" fill="#0563c1"/><use xlink:href="#c" transform="matrix(18 0 0 -18 197.57 299.055)" fill="#0563c1"/><use xlink:href="#l" transform="matrix(18 0 0 -18 207.364 301.964)" fill="#0563c1"/><use xlink:href="#C" transform="matrix(18 0 0 -18 220.111 299.055)" fill="#0563c1"/><use xlink:href="#f" transform="matrix(18 0 0 -18 230.284 299.055)" fill="#0563c1"/><use xlink:href="#r" transform="matrix(18 0 0 -18 240.949 298.8)" fill="#0563c1"/><use xlink:href="#A" transform="matrix(18 0 0 -18 252.536 302.544)" fill="#0563c1"/><use xlink:href="#e" transform="matrix(18 0 0 -18 263.851 298.8)" fill="#0563c1"/><use xlink:href="#i" transform="matrix(18 0 0 -18 274.71 298.8)" fill="#0563c1"/><use xlink:href="#k" transform="matrix(18 0 0 -18 285.207 298.8)" fill="#0563c1"/><use xlink:href="#Q" transform="matrix(18 0 0 -18 295.45 302.667)" fill="#0563c1"/><path d="M131.484 300.85h174v-1h-174z" fill="#0563c1" fill-rule="evenodd"/><use xlink:href="#s" transform="matrix(18 0 0 -18 308.715 300.294)" fill="#565656"/><symbol id="R"><path d="M.426.718v-.1a.389.389 0 0 1-.09.044.291.291 0 0 1-.09.014.17.17 0 0 1-.111-.032.106.106 0 0 1-.04-.088C.094.524.102.5.12.482A.225.225 0 0 1 .22.44L.271.428a.286.286 0 0 0 .15-.075.2.2 0 0 0 .046-.14C.468.144.447.091.404.055.36.018.298 0 .216 0A.564.564 0 0 0 .01.044v.105A.489.489 0 0 1 .115.097.32.32 0 0 1 .216.08c.05 0 .089.011.117.033a.114.114 0 0 1 .041.094c0 .036-.01.064-.029.084a.2.2 0 0 1-.099.044L.193.347a.297.297 0 0 0-.147.07A.17.17 0 0 0 0 .54a.2.2 0 0 0 .065.156c.044.04.103.06.175.06A.645.645 0 0 0 .426.718z"/></symbol><use xlink:href="#R" transform="matrix(18 0 0 -18 317.331 299.055)" fill="#191c1f"/><use xlink:href="#u" transform="matrix(18 0 0 -18 326.985 298.8)" fill="#191c1f"/><use xlink:href="#v" transform="matrix(18 0 0 -18 338.633 295.89)" fill="#565656"/><use xlink:href="#d" transform="matrix(18 0 0 -18 361.323 299.055)" fill="#0563c1"/><use xlink:href="#j" transform="matrix(18 0 0 -18 371.69 299.055)" fill="#0563c1"/><use xlink:href="#r" transform="matrix(18 0 0 -18 382.319 298.8)" fill="#0563c1"/><use xlink:href="#A" transform="matrix(18 0 0 -18 393.906 302.544)" fill="#0563c1"/><use xlink:href="#e" transform="matrix(18 0 0 -18 405.221 298.8)" fill="#0563c1"/><use xlink:href="#c" transform="matrix(18 0 0 -18 415.069 299.055)" fill="#0563c1"/><use xlink:href="#h" transform="matrix(18 0 0 -18 426.014 298.8)" fill="#0563c1"/><use xlink:href="#c" transform="matrix(18 0 0 -18 436.82 299.055)" fill="#0563c1"/><use xlink:href="#l" transform="matrix(18 0 0 -18 446.614 301.964)" fill="#0563c1"/><use xlink:href="#g" transform="matrix(18 0 0 -18 460.672 298.8)" fill="#0563c1"/><use xlink:href="#C" transform="matrix(18 0 0 -18 470.238 299.055)" fill="#0563c1"/><path d="M359.485 300.85h120v-1h-120z" fill="#0563c1" fill-rule="evenodd"/><use xlink:href="#s" transform="matrix(18 0 0 -18 482.715 300.294)" fill="#565656"/><use xlink:href="#t" transform="matrix(18 0 0 -18 490.276 298.8)" fill="#130869"/><use xlink:href="#x" transform="matrix(18 0 0 -18 503.902 301.753)" fill="#191c1f"/><use xlink:href="#u" transform="matrix(18 0 0 -18 511.86 298.8)" fill="#191c1f"/><use xlink:href="#k" transform="matrix(18 0 0 -18 524.45 298.8)" fill="#191c1f"/><use xlink:href="#u" transform="matrix(18 0 0 -18 533.611 298.8)" fill="#191c1f"/><use xlink:href="#v" transform="matrix(18 0 0 -18 545.258 295.89)" fill="#565656"/><use xlink:href="#G" transform="matrix(18 0 0 -18 567.491 299.055)" fill="#8e003a"/><use xlink:href="#w" transform="matrix(18 0 0 -18 578.28 299.055)" fill="#8e003a"/><use xlink:href="#z" transform="matrix(18 0 0 -18 591.043 300.294)" fill="#565656"/><use xlink:href="#z" transform="matrix(18 0 0 -18 601.919 300.294)" fill="#565656"/><use xlink:href="#J" transform="matrix(18 0 0 -18 621.559 297.719)" fill="#565656"/><use xlink:href="#b" transform="matrix(18 0 0 -18 132.316 353.055)" fill="#0563c1"/><use xlink:href="#c" transform="matrix(18 0 0 -18 143.191 353.055)" fill="#0563c1"/><use xlink:href="#d" transform="matrix(18 0 0 -18 154.7 353.055)" fill="#0563c1"/><use xlink:href="#e" transform="matrix(18 0 0 -18 165.97 352.8)" fill="#0563c1"/><use xlink:href="#f" transform="matrix(18 0 0 -18 175.906 353.055)" fill="#0563c1"/><use xlink:href="#g" transform="matrix(18 0 0 -18 188.794 352.8)" fill="#0563c1"/><use xlink:href="#c" transform="matrix(18 0 0 -18 197.57 353.055)" fill="#0563c1"/><use xlink:href="#l" transform="matrix(18 0 0 -18 207.364 355.964)" fill="#0563c1"/><use xlink:href="#f" transform="matrix(18 0 0 -18 219.408 353.055)" fill="#0563c1"/><use xlink:href="#C" transform="matrix(18 0 0 -18 230.987 353.055)" fill="#0563c1"/><use xlink:href="#C" transform="matrix(18 0 0 -18 241.863 353.055)" fill="#0563c1"/><use xlink:href="#i" transform="matrix(18 0 0 -18 252.958 352.8)" fill="#0563c1"/><use xlink:href="#Q" transform="matrix(18 0 0 -18 262.823 356.667)" fill="#0563c1"/><use xlink:href="#k" transform="matrix(18 0 0 -18 274.331 352.8)" fill="#0563c1"/><use xlink:href="#r" transform="matrix(18 0 0 -18 284.45 352.8)" fill="#0563c1"/><use xlink:href="#c" transform="matrix(18 0 0 -18 295.45 353.055)" fill="#0563c1"/><use xlink:href="#k" transform="matrix(18 0 0 -18 306.958 352.8)" fill="#0563c1"/><use xlink:href="#h" transform="matrix(18 0 0 -18 317.271 352.8)" fill="#0563c1"/><path d="M131.484 354.85h196v-1h-196z" fill="#0563c1" fill-rule="evenodd"/><use xlink:href="#s" transform="matrix(18 0 0 -18 330.465 354.294)" fill="#565656"/><use xlink:href="#I" transform="matrix(18 0 0 -18 339.23 352.8)" fill="#191c1f"/><use xlink:href="#u" transform="matrix(18 0 0 -18 348.735 352.8)" fill="#191c1f"/><use xlink:href="#v" transform="matrix(18 0 0 -18 360.383 349.89)" fill="#565656"/><use xlink:href="#d" transform="matrix(18 0 0 -18 383.073 353.055)" fill="#0563c1"/><use xlink:href="#j" transform="matrix(18 0 0 -18 393.44 353.055)" fill="#0563c1"/><use xlink:href="#r" transform="matrix(18 0 0 -18 404.069 352.8)" fill="#0563c1"/><use xlink:href="#A" transform="matrix(18 0 0 -18 415.656 356.544)" fill="#0563c1"/><use xlink:href="#e" transform="matrix(18 0 0 -18 426.971 352.8)" fill="#0563c1"/><use xlink:href="#c" transform="matrix(18 0 0 -18 436.819 353.055)" fill="#0563c1"/><use xlink:href="#h" transform="matrix(18 0 0 -18 447.764 352.8)" fill="#0563c1"/><use xlink:href="#c" transform="matrix(18 0 0 -18 458.57 353.055)" fill="#0563c1"/><use xlink:href="#l" transform="matrix(18 0 0 -18 468.364 355.964)" fill="#0563c1"/><use xlink:href="#g" transform="matrix(18 0 0 -18 482.422 352.8)" fill="#0563c1"/><use xlink:href="#f" transform="matrix(18 0 0 -18 491.284 353.055)" fill="#0563c1"/><path d="M381.485 354.85h120v-1h-120z" fill="#0563c1" fill-rule="evenodd"/><use xlink:href="#s" transform="matrix(18 0 0 -18 504.465 354.294)" fill="#565656"/><use xlink:href="#t" transform="matrix(18 0 0 -18 512.027 352.8)" fill="#130869"/><symbol id="S"><path d="M.354.287c0 .07-.011.122-.033.158a.108.108 0 0 1-.098.053.11.11 0 0 1-.1-.054A.297.297 0 0 1 .09.287C.09.218.1.166.124.13A.11.11 0 0 1 .223.076C.266.076.299.094.32.13a.302.302 0 0 1 .033.158M.09.491a.152.152 0 0 0 .059.062.176.176 0 0 0 .088.021.183.183 0 0 0 .155-.076A.342.342 0 0 0 .45.289.35.35 0 0 0 .392.077.183.183 0 0 0 .236 0a.174.174 0 0 0-.087.021.159.159 0 0 0-.06.062V.014H0v.76h.09V.49z"/></symbol><use xlink:href="#x" transform="matrix(18 0 0 -18 525.652 355.753)" fill="#191c1f"/><use xlink:href="#u" transform="matrix(18 0 0 -18 533.61 352.8)" fill="#191c1f"/><use xlink:href="#A" transform="matrix(18 0 0 -18 546.156 356.544)" fill="#191c1f"/><use xlink:href="#g" transform="matrix(18 0 0 -18 558.543 352.8)" fill="#191c1f"/><use xlink:href="#j" transform="matrix(18 0 0 -18 567.441 353.055)" fill="#191c1f"/><use xlink:href="#S" transform="matrix(18 0 0 -18 578.809 353.055)" fill="#191c1f"/><use xlink:href="#u" transform="matrix(18 0 0 -18 587.988 352.8)" fill="#191c1f"/><use xlink:href="#v" transform="matrix(18 0 0 -18 599.633 349.89)" fill="#565656"/><use xlink:href="#w" transform="matrix(18 0 0 -18 621.778 353.055)" fill="#8e003a"/><use xlink:href="#n" transform="matrix(18 0 0 -18 634.904 352.8)" fill="#8e003a"/><use xlink:href="#G" transform="matrix(18 0 0 -18 643.618 353.055)" fill="#8e003a"/><use xlink:href="#z" transform="matrix(18 0 0 -18 656.293 354.294)" fill="#565656"/><use xlink:href="#z" transform="matrix(18 0 0 -18 667.169 354.294)" fill="#565656"/><use xlink:href="#J" transform="matrix(18 0 0 -18 686.809 351.719)" fill="#565656"/><use xlink:href="#b" transform="matrix(18 0 0 -18 132.316 407.055)" fill="#0563c1"/><use xlink:href="#c" transform="matrix(18 0 0 -18 143.191 407.055)" fill="#0563c1"/><use xlink:href="#d" transform="matrix(18 0 0 -18 154.7 407.055)" fill="#0563c1"/><use xlink:href="#e" transform="matrix(18 0 0 -18 165.97 406.8)" fill="#0563c1"/><use xlink:href="#f" transform="matrix(18 0 0 -18 175.906 407.055)" fill="#0563c1"/><use xlink:href="#g" transform="matrix(18 0 0 -18 188.794 406.8)" fill="#0563c1"/><use xlink:href="#c" transform="matrix(18 0 0 -18 197.57 407.055)" fill="#0563c1"/><use xlink:href="#l" transform="matrix(18 0 0 -18 207.364 409.964)" fill="#0563c1"/><use xlink:href="#r" transform="matrix(18 0 0 -18 219.197 406.8)" fill="#0563c1"/><use xlink:href="#c" transform="matrix(18 0 0 -18 230.196 407.055)" fill="#0563c1"/><use xlink:href="#f" transform="matrix(18 0 0 -18 241.16 407.055)" fill="#0563c1"/><use xlink:href="#C" transform="matrix(18 0 0 -18 252.738 407.055)" fill="#0563c1"/><use xlink:href="#B" transform="matrix(18 0 0 -18 263.456 407.055)" fill="#0563c1"/><use xlink:href="#g" transform="matrix(18 0 0 -18 275.799 406.8)" fill="#0563c1"/><use xlink:href="#c" transform="matrix(18 0 0 -18 284.574 407.055)" fill="#0563c1"/><use xlink:href="#r" transform="matrix(18 0 0 -18 295.327 406.8)" fill="#0563c1"/><use xlink:href="#c" transform="matrix(18 0 0 -18 306.325 407.055)" fill="#0563c1"/><use xlink:href="#k" transform="matrix(18 0 0 -18 317.834 406.8)" fill="#0563c1"/><use xlink:href="#h" transform="matrix(18 0 0 -18 328.147 406.8)" fill="#0563c1"/><path d="M131.484 408.85h206v-1h-206z" fill="#0563c1" fill-rule="evenodd"/><use xlink:href="#s" transform="matrix(18 0 0 -18 341.34 408.294)" fill="#565656"/><use xlink:href="#D" transform="matrix(18 0 0 -18 349.06 406.8)" fill="#191c1f"/><use xlink:href="#u" transform="matrix(18 0 0 -18 359.61 406.8)" fill="#191c1f"/><use xlink:href="#v" transform="matrix(18 0 0 -18 371.258 403.89)" fill="#565656"/><symbol id="T"><path d="M0 .547h.093l.159-.46.16.46h.092L.31 0H.194L0 .547z"/></symbol><use xlink:href="#g" transform="matrix(18 0 0 -18 395.416 406.8)" fill="#0563c1"/><use xlink:href="#c" transform="matrix(18 0 0 -18 404.191 407.055)" fill="#0563c1"/><use xlink:href="#T" transform="matrix(18 0 0 -18 414.865 406.8)" fill="#0563c1"/><use xlink:href="#c" transform="matrix(18 0 0 -18 425.942 407.055)" fill="#0563c1"/><use xlink:href="#f" transform="matrix(18 0 0 -18 436.906 407.055)" fill="#0563c1"/><use xlink:href="#e" transform="matrix(18 0 0 -18 448.722 406.8)" fill="#0563c1"/><use xlink:href="#l" transform="matrix(18 0 0 -18 457.488 409.964)" fill="#0563c1"/><use xlink:href="#j" transform="matrix(18 0 0 -18 469.568 407.055)" fill="#0563c1"/><use xlink:href="#B" transform="matrix(18 0 0 -18 480.953 407.055)" fill="#0563c1"/><use xlink:href="#h" transform="matrix(18 0 0 -18 491.266 406.8)" fill="#0563c1"/><use xlink:href="#d" transform="matrix(18 0 0 -18 502.704 407.055)" fill="#0563c1"/><use xlink:href="#j" transform="matrix(18 0 0 -18 513.07 407.055)" fill="#0563c1"/><use xlink:href="#r" transform="matrix(18 0 0 -18 523.7 406.8)" fill="#0563c1"/><use xlink:href="#c" transform="matrix(18 0 0 -18 534.698 407.055)" fill="#0563c1"/><use xlink:href="#C" transform="matrix(18 0 0 -18 546.365 407.055)" fill="#0563c1"/><path d="M392.485 408.85h163v-1h-163z" fill="#0563c1" fill-rule="evenodd"/><use xlink:href="#s" transform="matrix(18 0 0 -18 558.84 408.294)" fill="#565656"/><use xlink:href="#D" transform="matrix(18 0 0 -18 566.56 406.8)" fill="#130869"/><use xlink:href="#E" transform="matrix(18 0 0 -18 588.099 403.662)" fill="#565656"/><use xlink:href="#I" transform="matrix(18 0 0 -18 611.106 406.8)" fill="#130869"/><use xlink:href="#z" transform="matrix(18 0 0 -18 623.668 408.294)" fill="#565656"/><use xlink:href="#z" transform="matrix(18 0 0 -18 634.544 408.294)" fill="#565656"/><use xlink:href="#J" transform="matrix(18 0 0 -18 654.184 405.719)" fill="#565656"/><use xlink:href="#b" transform="matrix(18 0 0 -18 132.316 461.055)" fill="#0563c1"/><use xlink:href="#c" transform="matrix(18 0 0 -18 143.191 461.055)" fill="#0563c1"/><use xlink:href="#d" transform="matrix(18 0 0 -18 154.7 461.055)" fill="#0563c1"/><use xlink:href="#e" transform="matrix(18 0 0 -18 165.97 460.8)" fill="#0563c1"/><use xlink:href="#f" transform="matrix(18 0 0 -18 175.906 461.055)" fill="#0563c1"/><use xlink:href="#g" transform="matrix(18 0 0 -18 188.794 460.8)" fill="#0563c1"/><use xlink:href="#c" transform="matrix(18 0 0 -18 197.57 461.055)" fill="#0563c1"/><use xlink:href="#l" transform="matrix(18 0 0 -18 207.364 463.964)" fill="#0563c1"/><use xlink:href="#c" transform="matrix(18 0 0 -18 219.32 461.055)" fill="#0563c1"/><use xlink:href="#C" transform="matrix(18 0 0 -18 230.987 461.055)" fill="#0563c1"/><use xlink:href="#h" transform="matrix(18 0 0 -18 241.142 460.8)" fill="#0563c1"/><use xlink:href="#i" transform="matrix(18 0 0 -18 252.958 460.8)" fill="#0563c1"/><use xlink:href="#r" transform="matrix(18 0 0 -18 262.7 460.8)" fill="#0563c1"/><use xlink:href="#f" transform="matrix(18 0 0 -18 273.786 461.055)" fill="#0563c1"/><use xlink:href="#h" transform="matrix(18 0 0 -18 284.644 460.8)" fill="#0563c1"/><use xlink:href="#j" transform="matrix(18 0 0 -18 295.573 461.055)" fill="#0563c1"/><use xlink:href="#g" transform="matrix(18 0 0 -18 308.426 460.8)" fill="#0563c1"/><path d="M131.484 462.85h185v-1h-185z" fill="#0563c1" fill-rule="evenodd"/><use xlink:href="#s" transform="matrix(18 0 0 -18 319.59 462.294)" fill="#565656"/><use xlink:href="#D" transform="matrix(18 0 0 -18 327.31 460.8)" fill="#130869"/><use xlink:href="#E" transform="matrix(18 0 0 -18 348.849 457.662)" fill="#565656"/><use xlink:href="#I" transform="matrix(18 0 0 -18 371.856 460.8)" fill="#130869"/><use xlink:href="#x" transform="matrix(18 0 0 -18 384.277 463.753)" fill="#191c1f"/><use xlink:href="#u" transform="matrix(18 0 0 -18 392.235 460.8)" fill="#191c1f"/><use xlink:href="#r" transform="matrix(18 0 0 -18 404.069 460.8)" fill="#191c1f"/><use xlink:href="#j" transform="matrix(18 0 0 -18 415.19 461.055)" fill="#191c1f"/><use xlink:href="#b" transform="matrix(18 0 0 -18 425.943 461.055)" fill="#191c1f"/><use xlink:href="#c" transform="matrix(18 0 0 -18 436.819 461.055)" fill="#191c1f"/><use xlink:href="#e" transform="matrix(18 0 0 -18 448.722 460.8)" fill="#191c1f"/><use xlink:href="#u" transform="matrix(18 0 0 -18 457.489 460.8)" fill="#191c1f"/><use xlink:href="#v" transform="matrix(18 0 0 -18 469.133 457.89)" fill="#565656"/><symbol id="U"><path d="M.424.76V.685H.322C.29.685.267.678.254.665.242.652.236.629.236.595V.547h.188v-.07H.236V0h-.09v.477H0v.07h.146v.038c0 .06.014.104.041.132.028.029.07.043.129.043h.108z"/></symbol><use xlink:href="#b" transform="matrix(18 0 0 -18 491.19 461.055)" fill="#130869"/><use xlink:href="#i" transform="matrix(18 0 0 -18 503.077 460.8)" fill="#130869"/><use xlink:href="#U" transform="matrix(18 0 0 -18 513.575 460.8)" fill="#130869"/><use xlink:href="#U" transform="matrix(18 0 0 -18 524.45 460.8)" fill="#130869"/><use xlink:href="#c" transform="matrix(18 0 0 -18 534.693 461.055)" fill="#130869"/><use xlink:href="#g" transform="matrix(18 0 0 -18 547.67 460.8)" fill="#130869"/><use xlink:href="#c" transform="matrix(18 0 0 -18 556.444 461.055)" fill="#130869"/><use xlink:href="#k" transform="matrix(18 0 0 -18 567.953 460.8)" fill="#130869"/><use xlink:href="#d" transform="matrix(18 0 0 -18 578.828 461.055)" fill="#130869"/><use xlink:href="#c" transform="matrix(18 0 0 -18 589.071 461.055)" fill="#130869"/><use xlink:href="#l" transform="matrix(18 0 0 -18 598.865 463.964)" fill="#130869"/><use xlink:href="#i" transform="matrix(18 0 0 -18 611.833 460.8)" fill="#130869"/><use xlink:href="#k" transform="matrix(18 0 0 -18 622.33 460.8)" fill="#130869"/><use xlink:href="#l" transform="matrix(18 0 0 -18 631.492 463.964)" fill="#130869"/><use xlink:href="#r" transform="matrix(18 0 0 -18 643.326 460.8)" fill="#130869"/><use xlink:href="#c" transform="matrix(18 0 0 -18 654.325 461.055)" fill="#130869"/><use xlink:href="#f" transform="matrix(18 0 0 -18 665.288 461.055)" fill="#130869"/><use xlink:href="#k" transform="matrix(18 0 0 -18 676.709 460.8)" fill="#130869"/><use xlink:href="#C" transform="matrix(18 0 0 -18 687.742 461.055)" fill="#130869"/><use xlink:href="#x" transform="matrix(18 0 0 -18 699.652 463.753)" fill="#191c1f"/><use xlink:href="#u" transform="matrix(18 0 0 -18 707.61 460.8)" fill="#191c1f"/><use xlink:href="#i" transform="matrix(18 0 0 -18 720.577 460.8)" fill="#191c1f"/><use xlink:href="#k" transform="matrix(18 0 0 -18 731.075 460.8)" fill="#191c1f"/><use xlink:href="#K" transform="matrix(18 0 0 -18 741.441 464.58)" fill="#191c1f"/><use xlink:href="#B" transform="matrix(18 0 0 -18 752.826 461.055)" fill="#191c1f"/><use xlink:href="#i" transform="matrix(18 0 0 -18 764.08 460.8)" fill="#191c1f"/><use xlink:href="#g" transform="matrix(18 0 0 -18 776.045 460.8)" fill="#191c1f"/><use xlink:href="#L" transform="matrix(18 0 0 -18 784.653 464.544)" fill="#191c1f"/><use xlink:href="#u" transform="matrix(18 0 0 -18 794.615 460.8)" fill="#191c1f"/><use xlink:href="#v" transform="matrix(18 0 0 -18 806.258 457.89)" fill="#565656"/><symbol id="V"><path d="M.37.299V0H.26v.299h.11m-.26 0V0H0v.299h.11z"/></symbol><use xlink:href="#V" transform="matrix(18 0 0 -18 828.887 452.582)" fill="#0f7001"/><use xlink:href="#M" transform="matrix(18 0 0 -18 839.842 460.8)" fill="#0f7001"/><use xlink:href="#N" transform="matrix(18 0 0 -18 849.31 460.8)" fill="#0f7001"/><use xlink:href="#O" transform="matrix(18 0 0 -18 860.274 460.8)" fill="#0f7001"/><use xlink:href="#P" transform="matrix(18 0 0 -18 872.468 460.8)" fill="#0f7001"/><use xlink:href="#V" transform="matrix(18 0 0 -18 883.265 452.582)" fill="#0f7001"/><use xlink:href="#z" transform="matrix(18 0 0 -18 895.543 462.294)" fill="#565656"/><path stroke-width="1.524" stroke-linecap="square" stroke-miterlimit="8" fill="none" stroke="#bfbfbf" d="M98.703 201.376c-4.318 0-7.817-.584-7.817-1.303v-39.227c0-.72-3.5-1.303-7.817-1.303 4.317 0 7.817-.583 7.817-1.302v-39.227c0-.72 3.5-1.303 7.817-1.303M98.703 264.376c-4.318 0-7.817-.584-7.817-1.303v-20.554c0-.72-3.5-1.303-7.817-1.303 4.317 0 7.817-.584 7.817-1.303v-20.554c0-.72 3.5-1.303 7.817-1.303M98.703 415.125c-4.318 0-7.817-.583-7.817-1.302v-64.815c0-.72-3.5-1.302-7.817-1.302 4.317 0 7.817-.584 7.817-1.303v-64.814c0-.72 3.5-1.303 7.817-1.303M98.703 479.436c-4.318 0-7.817-.583-7.817-1.303V457.58c0-.72-3.5-1.303-7.817-1.303 4.317 0 7.817-.583 7.817-1.303V434.42c0-.72 3.5-1.303 7.817-1.303"/><symbol id="W"><path d="M.687.016c0-.003 0-.005-.002-.007A.014.014 0 0 0 .678.004.08.08 0 0 0 .666 0a.114.114 0 0 0-.052.002.014.014 0 0 0-.007.006.012.012 0 0 0-.002.007v.55L.378.013A.015.015 0 0 0 .375.007.021.021 0 0 0 .367.003.12.12 0 0 0 .321 0a.08.08 0 0 0-.012.002A.029.029 0 0 0 .3.008a.014.014 0 0 0-.004.005L.082.566v-.55L.08.009A.014.014 0 0 0 .073.004.112.112 0 0 0 .04 0a.109.109 0 0 0-.032.004A.014.014 0 0 0 0 .009.015.015 0 0 0 0 .016v.58C0 .61.004.62.01.627a.037.037 0 0 0 .025.009h.05c.01 0 .02-.001.028-.003A.054.054 0 0 0 .148.607a.116.116 0 0 0 .01-.024L.341.126h.003l.19.456.012.025A.062.062 0 0 0 .56.623C.565.627.57.63.577.632a.071.071 0 0 0 .021.003h.053c.005 0 .01-.001.014-.003A.023.023 0 0 0 .676.625.03.03 0 0 0 .684.614.044.044 0 0 0 .687.597V.016z"/></symbol><symbol id="X"><path d="M.44.246A.332.332 0 0 0 .424.147.216.216 0 0 0 .383.069a.191.191 0 0 0-.07-.05A.245.245 0 0 0 .214 0 .255.255 0 0 0 .12.016a.173.173 0 0 0-.067.047.199.199 0 0 0-.04.075.347.347 0 0 0-.013.1c0 .035.005.068.014.098a.192.192 0 0 0 .112.129c.028.012.06.018.098.018A.252.252 0 0 0 .318.467.172.172 0 0 0 .386.42a.199.199 0 0 0 .04-.075.333.333 0 0 0 .013-.099M.354.241a.32.32 0 0 1-.006.067.163.163 0 0 1-.022.056.106.106 0 0 1-.04.037.133.133 0 0 1-.065.015.138.138 0 0 1-.062-.013.112.112 0 0 1-.042-.036.162.162 0 0 1-.025-.055.346.346 0 0 1-.001-.137.17.17 0 0 1 .022-.056.116.116 0 0 1 .106-.051c.023 0 .044.004.06.013.018.008.032.02.043.035.011.016.02.034.025.055a.292.292 0 0 1 .007.07z"/></symbol><symbol id="Y"><path d="M.404.021c0-.002 0-.004-.002-.006C.402.013.4.01.396.01a.12.12 0 0 0-.056 0 .014.014 0 0 0-.006.005.012.012 0 0 0-.001.006V.08A.295.295 0 0 0 .26.02.163.163 0 0 0 .18 0a.17.17 0 0 0-.083.019.16.16 0 0 0-.055.05.23.23 0 0 0-.031.076.415.415 0 0 0 .002.193c.008.03.02.057.036.078a.16.16 0 0 0 .06.05.183.183 0 0 0 .081.017C.215.483.24.477.26.466a.243.243 0 0 0 .064-.05v.256c0 .002 0 .004.002.006a.011.011 0 0 0 .007.005.109.109 0 0 0 .032.004.112.112 0 0 0 .032-.004.01.01 0 0 0 .006-.005.01.01 0 0 0 .002-.006v-.65M.324.33A.308.308 0 0 1 .26.392a.108.108 0 0 1-.064.022.09.09 0 0 1-.052-.015A.115.115 0 0 1 .109.36a.194.194 0 0 1-.02-.054A.427.427 0 0 1 .088.18.196.196 0 0 1 .106.123.11.11 0 0 1 .14.083a.106.106 0 0 1 .114.004l.033.027a.43.43 0 0 1 .036.04v.177z"/></symbol><symbol id="Z"><path d="M.404.26C.404.248.401.238.394.233A.032.032 0 0 0 .374.225H.085C.085.201.087.18.092.16A.127.127 0 0 1 .117.11.11.11 0 0 1 .16.077.176.176 0 0 1 .228.065a.286.286 0 0 1 .127.028A.048.048 0 0 0 .373.1.01.01 0 0 0 .378.097.01.01 0 0 0 .383.092.091.091 0 0 0 .384.048.015.015 0 0 0 .38.042.023.023 0 0 0 .377.036a.078.078 0 0 0-.016-.01A.437.437 0 0 0 .22 0a.274.274 0 0 0-.094.016.176.176 0 0 0-.11.12A.348.348 0 0 0 0 .239c0 .038.005.072.015.102.01.03.023.056.042.076.018.022.04.038.067.049A.216.216 0 0 0 .21.483.21.21 0 0 0 .299.466a.165.165 0 0 0 .094-.11.28.28 0 0 0 .011-.081V.26m-.08.024a.147.147 0 0 1-.03.1C.276.408.247.42.209.42a.113.113 0 0 1-.09-.041.136.136 0 0 1-.024-.044.179.179 0 0 1-.009-.05h.238z"/></symbol><use xlink:href="#W" transform="matrix(18 0 0 -18 16.01 165.653)" fill="#bfbfbf"/><use xlink:href="#X" transform="matrix(18 0 0 -18 30.664 165.767)" fill="#bfbfbf"/><use xlink:href="#Y" transform="matrix(18 0 0 -18 40.225 165.767)" fill="#bfbfbf"/><use xlink:href="#Z" transform="matrix(18 0 0 -18 49.706 165.767)" fill="#bfbfbf"/><symbol id="aa"><path d="M.08.015.08.008A.017.017 0 0 0 .072.004.045.045 0 0 0 .06 0a.167.167 0 0 0-.052.003A.017.017 0 0 0 0 .008.015.015 0 0 0 0 .015v.652l.001.007A.014.014 0 0 0 .008.68.052.052 0 0 0 .02.682.162.162 0 0 0 .072.68.014.014 0 0 0 .08.674.012.012 0 0 0 .08.667V.015z"/></symbol><use xlink:href="#aa" transform="matrix(18 0 0 -18 59.217 165.653)" fill="#bfbfbf"/><symbol id="ab"><path d="M.084.016c0-.003 0-.005-.002-.007A.014.014 0 0 0 .075.004.112.112 0 0 0 .042 0a.117.117 0 0 0-.033.004.014.014 0 0 0-.007.005A.012.012 0 0 0 0 .016v.606C0 .625 0 .627.002.63a.015.015 0 0 0 .007.004.114.114 0 0 0 .053.003c.006 0 .01-.001.013-.003A.012.012 0 0 0 .082.63.012.012 0 0 0 .084.622V.016z"/></symbol><symbol id="ac"><path d="M.378.015c0-.002 0-.005-.002-.007A.017.017 0 0 0 .37.004.045.045 0 0 0 .358 0a.162.162 0 0 0-.052.003A.017.017 0 0 0 .3.008a.012.012 0 0 0-.002.007v.257a.253.253 0 0 1-.006.061.125.125 0 0 1-.017.04.074.074 0 0 1-.03.025.09.09 0 0 1-.04.009.104.104 0 0 1-.061-.022.328.328 0 0 1-.063-.063V.015L.079.008A.017.017 0 0 0 .072.004.045.045 0 0 0 .06 0a.167.167 0 0 0-.052.003A.017.017 0 0 0 0 .008.015.015 0 0 0 0 .015v.44L.001.46c.001.002.003.004.006.005A.027.027 0 0 0 .02.469.133.133 0 0 0 .065.466.011.011 0 0 0 .071.46.01.01 0 0 0 .073.455V.396c.024.028.05.048.073.061.025.013.05.02.075.02.03 0 .054-.005.074-.016a.13.13 0 0 0 .049-.04A.156.156 0 0 0 .37.364a.334.334 0 0 0 .008-.08V.015z"/></symbol><symbol id="ad"><path d="M.404.016A.01.01 0 0 0 .402.009.014.014 0 0 0 .396.004.045.045 0 0 0 .383 0a.162.162 0 0 0-.051.003.014.014 0 0 0-.007.005.015.015 0 0 0-.002.007V.24A.428.428 0 0 0 .285.207.23.23 0 0 0 .25.184.168.168 0 0 0 .178.168a.167.167 0 0 0-.082.019.162.162 0 0 0-.055.05.23.23 0 0 0-.031.076.415.415 0 0 0 .002.193c.008.03.02.057.036.078a.164.164 0 0 0 .06.05.183.183 0 0 0 .119.013A.178.178 0 0 0 .295.61.543.543 0 0 0 .332.576V.63l.001.007a.014.014 0 0 0 .007.005.124.124 0 0 0 .056 0L.401.636A.01.01 0 0 0 .404.63V.016m-.08.483A.308.308 0 0 1 .26.561a.108.108 0 0 1-.064.021.09.09 0 0 1-.052-.015A.115.115 0 0 1 .109.53a.194.194 0 0 1-.02-.054.43.43 0 0 1-.001-.127.19.19 0 0 1 .018-.056.11.11 0 0 1 .034-.04.106.106 0 0 1 .114.004.43.43 0 0 1 .069.067V.5z"/></symbol><symbol id="ae"><path d="M.379.021c0-.002 0-.004-.002-.006A.013.013 0 0 0 .371.01.044.044 0 0 0 .36.007a.145.145 0 0 0-.036 0 .043.043 0 0 0-.01.003.013.013 0 0 0-.006.005.015.015 0 0 0-.001.006V.08A.274.274 0 0 0 .23.019.17.17 0 0 0 .083.015a.131.131 0 0 0-.048.04.167.167 0 0 0-.027.058A.366.366 0 0 0 0 .194v.267l.001.006a.014.014 0 0 0 .007.005.033.033 0 0 0 .013.003.162.162 0 0 0 .051-.003A.014.014 0 0 0 .08.467.01.01 0 0 0 .081.461V.205C.081.18.083.16.086.143a.125.125 0 0 1 .018-.04.085.085 0 0 1 .029-.025.09.09 0 0 1 .04-.009c.021 0 .041.007.06.022.021.014.042.035.065.063V.46l.001.006a.014.014 0 0 0 .007.005.032.032 0 0 0 .012.003A.167.167 0 0 0 .37.472.014.014 0 0 0 .376.467.009.009 0 0 0 .38.461V.02z"/></symbol><symbol id="af"><path d="M.09.015C.09.013.09.01.088.008A.017.017 0 0 0 .082.004.045.045 0 0 0 .07 0a.167.167 0 0 0-.052.003.017.017 0 0 0-.007.004.015.015 0 0 0-.001.007v.44L.01.46a.014.014 0 0 0 .007.005.052.052 0 0 0 .012.003.162.162 0 0 0 .052-.003A.014.014 0 0 0 .088.46.011.011 0 0 0 .09.455v-.44M.1.603C.1.584.096.571.089.564.082.558.069.554.049.554.03.554.017.557.01.564.003.571 0 .584 0 .602c0 .019.004.032.01.039.008.006.021.01.04.01C.07.65.082.647.09.64.096.634.099.62.099.603z"/></symbol><symbol id="ag"><path d="M.257.426a.279.279 0 0 0-.003-.03A.018.018 0 0 0 .25.39C.25.388.247.388.245.388c-.003 0-.006 0-.01.002a.082.082 0 0 1-.013.004.132.132 0 0 1-.015.004.088.088 0 0 1-.02.002.062.062 0 0 1-.023-.004.097.097 0 0 1-.025-.017A.66.66 0 0 1 .08.304V.015L.079.008A.017.017 0 0 0 .072.004.045.045 0 0 0 .06 0a.167.167 0 0 0-.052.003A.017.017 0 0 0 0 .008.015.015 0 0 0 0 .015v.44L.001.46c.001.002.003.004.006.005A.027.027 0 0 0 .02.469.133.133 0 0 0 .065.466.011.011 0 0 0 .071.46.01.01 0 0 0 .073.455V.39a.361.361 0 0 0 .033.043c.011.01.021.02.03.025.01.007.02.011.029.014a.106.106 0 0 0 .042.003A.108.108 0 0 0 .24.469.033.033 0 0 0 .25.464.013.013 0 0 0 .254.459L.255.454A.243.243 0 0 0 .256.426z"/></symbol><use xlink:href="#ab" transform="matrix(18 0 0 -18 13.964 247.253)" fill="#bfbfbf"/><use xlink:href="#ac" transform="matrix(18 0 0 -18 18.297 247.253)" fill="#bfbfbf"/><use xlink:href="#ad" transform="matrix(18 0 0 -18 27.3 250.4)" fill="#bfbfbf"/><use xlink:href="#ae" transform="matrix(18 0 0 -18 37.261 247.367)" fill="#bfbfbf"/><use xlink:href="#af" transform="matrix(18 0 0 -18 46.634 247.253)" fill="#bfbfbf"/><use xlink:href="#ag" transform="matrix(18 0 0 -18 50.931 247.253)" fill="#bfbfbf"/><symbol id="ah"><path d="M.258.178.2.016C.198.011.193.007.185.004A.11.11 0 0 0 .148 0l-.02.001a.028.028 0 0 0-.012.004.01.01 0 0 0-.005.008c0 .003 0 .007.003.012l.06.153a.025.025 0 0 0-.008.006.025.025 0 0 0-.005.01l-.157.42A.049.049 0 0 0 0 .628c0 .004.001.007.004.01a.023.023 0 0 0 .013.004.208.208 0 0 0 .06-.002.012.012 0 0 0 .006-.006.045.045 0 0 0 .005-.01L.213.273h.002l.12.354C.339.634.34.637.344.64a.03.03 0 0 0 .012.004.147.147 0 0 0 .047 0C.408.643.412.641.415.64a.011.011 0 0 0 .004-.01.048.048 0 0 0-.003-.014L.258.178z"/></symbol><use xlink:href="#ah" transform="matrix(18 0 0 -18 56.216 250.4)" fill="#bfbfbf"/><symbol id="ai"><path d="M.486.325A.445.445 0 0 0 .465.182.261.261 0 0 0 .403.08.252.252 0 0 0 .305.02.433.433 0 0 0 .165 0H.031A.036.036 0 0 0 .01.007C.003.013 0 .021 0 .034v.564C0 .61.003.619.01.624A.035.035 0 0 0 .03.632h.143C.23.632.275.625.313.61A.247.247 0 0 0 .466.453a.382.382 0 0 0 .02-.128M.397.322a.342.342 0 0 1-.012.095.203.203 0 0 1-.04.077.182.182 0 0 1-.069.05.27.27 0 0 1-.107.018H.084V.07H.17a.3.3 0 0 1 .102.015c.028.01.051.026.07.047A.2.2 0 0 1 .383.21c.01.032.014.069.014.112z"/></symbol><symbol id="aj"><path d="M.36.021C.36.017.36.014.358.012a.027.027 0 0 0-.01-.004.102.102 0 0 0-.02-.002c-.01 0-.016 0-.021.002a.024.024 0 0 0-.011.004C.293.014.292.017.292.021v.044A.216.216 0 0 0 .227.017.169.169 0 0 0 .152 0 .202.202 0 0 0 .09.01.121.121 0 0 0 .01.077.142.142 0 0 0 0 .133C0 .159.005.18.015.198.025.216.04.232.06.244A.21.21 0 0 0 .128.27.42.42 0 0 0 .22.28h.06v.034a.17.17 0 0 1-.005.045.074.074 0 0 1-.048.052.183.183 0 0 1-.1 0A.264.264 0 0 1 .054.378.04.04 0 0 0 .038.372c-.003 0-.005 0-.007.002A.019.019 0 0 0 .025.38a.035.035 0 0 0-.003.01.096.096 0 0 0 0 .033.03.03 0 0 0 .01.013c.004.004.011.01.022.015a.295.295 0 0 0 .133.032.264.264 0 0 0 .081-.01A.12.12 0 0 0 .351.39a.25.25 0 0 0 .01-.073V.021m-.08.2H.21A.25.25 0 0 1 .155.217a.113.113 0 0 1-.04-.017A.068.068 0 0 1 .09.173.08.08 0 0 1 .083.138C.083.115.09.097.104.083a.087.087 0 0 1 .061-.02c.021 0 .04.005.059.016A.25.25 0 0 1 .28.13v.093z"/></symbol><symbol id="ak"><path d="M.287.053c0-.01 0-.017-.002-.023A.025.025 0 0 0 .28.018.038.038 0 0 0 .268.011a.186.186 0 0 0-.12-.002.098.098 0 0 0-.064.074.285.285 0 0 0-.006.066v.257H.016C.011.406.007.408.004.414A.055.055 0 0 0 0 .439l.001.016a.047.047 0 0 0 .003.01L.01.47a.015.015 0 0 0 .008.002h.06v.104L.08.583a.014.014 0 0 0 .006.005.04.04 0 0 0 .013.004A.162.162 0 0 0 .15.588.014.014 0 0 0 .156.583.011.011 0 0 0 .158.577V.473h.113L.278.47.283.465a.027.027 0 0 0 .003-.01L.287.439A.055.055 0 0 0 .283.414C.28.408.276.406.27.406H.158V.16c0-.03.005-.054.013-.07C.181.077.197.07.22.07a.093.093 0 0 1 .035.007.34.34 0 0 1 .02.007C.279.083.28.082.28.08.282.081.283.08.284.077a.042.042 0 0 0 .002-.01L.287.053z"/></symbol><use xlink:href="#ai" transform="matrix(18 0 0 -18 22.822 342.96)" fill="#bfbfbf"/><use xlink:href="#aj" transform="matrix(18 0 0 -18 33.245 343.127)" fill="#bfbfbf"/><use xlink:href="#ak" transform="matrix(18 0 0 -18 41.188 343.11)" fill="#bfbfbf"/><use xlink:href="#aj" transform="matrix(18 0 0 -18 47.486 343.127)" fill="#bfbfbf"/><symbol id="al"><path d="M.311.141a.137.137 0 0 0-.013-.06.12.12 0 0 0-.035-.044.16.16 0 0 0-.055-.028.248.248 0 0 0-.114-.005.274.274 0 0 0-.067.02.09.09 0 0 0-.017.012.028.028 0 0 0-.008.013A.093.093 0 0 0 0 .073.105.105 0 0 0 .003.1a.01.01 0 0 0 .004.005.011.011 0 0 0 .007.002C.017.106.022.104.029.1A.525.525 0 0 1 .092.07.167.167 0 0 1 .177.07c.011.003.02.007.03.013a.057.057 0 0 1 .018.022C.229.112.23.123.23.134a.05.05 0 0 1-.01.032.088.088 0 0 1-.024.022.196.196 0 0 1-.035.018A10.87 10.87 0 0 1 .08.24a.163.163 0 0 0-.036.026.12.12 0 0 0-.025.036.124.124 0 0 0-.01.05c0 .018.004.034.01.05.007.016.017.03.03.041.014.012.03.022.05.03A.21.21 0 0 0 .207.48.241.241 0 0 0 .262.463.081.081 0 0 0 .277.454.022.022 0 0 0 .284.447.049.049 0 0 0 .288.431V.405a.027.027 0 0 0-.003-.01.013.013 0 0 0-.004-.006.01.01 0 0 0-.005-.001C.273.387.269.389.263.392A.211.211 0 0 1 .21.415a.139.139 0 0 1-.076 0A.067.067 0 0 1 .108.403a.057.057 0 0 1-.015-.02.065.065 0 0 1-.005-.025c0-.013.003-.024.01-.032A.095.095 0 0 1 .123.302.214.214 0 0 1 .159.285 3.48 3.48 0 0 0 .24.25.151.151 0 0 0 .276.225.11.11 0 0 0 .311.141z"/></symbol><use xlink:href="#al" transform="matrix(18 0 0 -18 9.732 364.007)" fill="#bfbfbf"/><symbol id="am"><path d="M.416.61A.049.049 0 0 0 .411.585C.408.58.404.578.4.578H.336A.099.099 0 0 0 .36.538.174.174 0 0 0 .355.428.136.136 0 0 0 .32.377a.156.156 0 0 0-.054-.03.212.212 0 0 0-.12-.004.11.11 0 0 0-.038.018.06.06 0 0 1-.02-.046c0-.011.006-.02.016-.028A.078.078 0 0 1 .146.274L.261.27a.23.23 0 0 0 .06-.01A.143.143 0 0 0 .37.237.103.103 0 0 0 .41.15.13.13 0 0 0 .36.045.186.186 0 0 0 .293.012.384.384 0 0 0 .106.01a.193.193 0 0 0-.06.025A.095.095 0 0 0 0 .118a.125.125 0 0 0 .016.06.15.15 0 0 0 .02.026.264.264 0 0 0 .027.025.076.076 0 0 0-.047.07c0 .02.005.038.013.054s.018.03.03.042a.145.145 0 0 0-.024.04.154.154 0 0 0-.009.056.17.17 0 0 0 .013.067.143.143 0 0 0 .089.082.205.205 0 0 0 .069.01.263.263 0 0 0 .07-.007h.132C.405.643.41.64.412.634A.052.052 0 0 0 .416.61M.29.494c0 .03-.008.053-.025.07C.25.581.225.589.195.589a.1.1 0 0 1-.04-.007.083.083 0 0 1-.047-.054.126.126 0 0 1-.005-.037C.103.462.111.44.127.423a.094.094 0 0 1 .07-.025c.016 0 .03.002.041.007a.08.08 0 0 1 .046.053.115.115 0 0 1 .006.036M.33.146a.049.049 0 0 1-.023.043.115.115 0 0 1-.062.017L.13.21A.21.21 0 0 1 .089.166a.08.08 0 0 1-.008-.02.102.102 0 0 1-.002-.02C.08.105.09.089.111.078a.2.2 0 0 1 .09-.016c.025 0 .045.002.061.007.017.004.03.01.04.018.01.008.017.017.022.027.004.01.007.02.007.032z"/></symbol><use xlink:href="#ak" transform="matrix(18 0 0 -18 16.11 363.99)" fill="#bfbfbf"/><use xlink:href="#ag" transform="matrix(18 0 0 -18 23.165 363.893)" fill="#bfbfbf"/><use xlink:href="#aj" transform="matrix(18 0 0 -18 28.502 364.007)" fill="#bfbfbf"/><use xlink:href="#ak" transform="matrix(18 0 0 -18 36.449 363.99)" fill="#bfbfbf"/><use xlink:href="#Z" transform="matrix(18 0 0 -18 42.777 364.007)" fill="#bfbfbf"/><use xlink:href="#am" transform="matrix(18 0 0 -18 51.431 367.048)" fill="#bfbfbf"/><use xlink:href="#ah" transform="matrix(18 0 0 -18 59.766 367.04)" fill="#bfbfbf"/><symbol id="an"><path d="M.54.033A.054.054 0 0 0 .544.015c0-.004 0-.007-.003-.01C.538.003.534.002.527.001a.228.228 0 0 0-.062.002.018.018 0 0 0-.007.005.05.05 0 0 0-.003.007L.4.17H.138L.086.017A.03.03 0 0 0 .082.01.022.022 0 0 0 .075.004.047.047 0 0 0 .062 0a.196.196 0 0 0-.046 0 .023.023 0 0 0-.013.005C.001.008 0 .01 0 .016l.004.017.212.587A.028.028 0 0 0 .221.63a.023.023 0 0 0 .01.005C.234.636.24.636.245.637A.253.253 0 0 0 .313.634a.02.02 0 0 0 .01-.006A.024.024 0 0 0 .328.62L.54.033M.268.55.158.236h.22L.268.55z"/></symbol><symbol id="ao"><path d="M.664.456.663.447A.106.106 0 0 0 .659.435L.53.018a.02.02 0 0 0-.004-.01.02.02 0 0 0-.009-.005.253.253 0 0 0-.082 0A.02.02 0 0 0 .427.01.023.023 0 0 0 .42.018L.33.336v.005L.326.336.242.018A.02.02 0 0 0 .228.003a.253.253 0 0 0-.082 0A.02.02 0 0 0 .137.01a.023.023 0 0 0-.004.009L.004.435A.106.106 0 0 0 0 .455c0 .003 0 .006.002.007a.012.012 0 0 0 .006.005.313.313 0 0 0 .066 0A.01.01 0 0 0 .082.46.03.03 0 0 0 .084.454L.19.092.191.087l.001.005.098.362.002.007A.013.013 0 0 0 .3.466a.167.167 0 0 0 .063 0A.012.012 0 0 0 .37.462.022.022 0 0 0 .372.455L.477.092V.087l.001.005.105.362.002.007a.013.013 0 0 0 .007.005.185.185 0 0 0 .063 0A.013.013 0 0 0 .663.463.01.01 0 0 0 .664.456z"/></symbol><use xlink:href="#an" transform="matrix(18 0 0 -18 11.238 451.493)" fill="#bfbfbf"/><use xlink:href="#ac" transform="matrix(18 0 0 -18 22.65 451.493)" fill="#bfbfbf"/><use xlink:href="#al" transform="matrix(18 0 0 -18 31.51 451.607)" fill="#bfbfbf"/><use xlink:href="#ao" transform="matrix(18 0 0 -18 38.166 451.493)" fill="#bfbfbf"/><use xlink:href="#Z" transform="matrix(18 0 0 -18 51.233 451.607)" fill="#bfbfbf"/><use xlink:href="#ag" transform="matrix(18 0 0 -18 60.767 451.493)" fill="#bfbfbf"/><use xlink:href="#al" transform="matrix(18 0 0 -18 9.732 472.487)" fill="#bfbfbf"/><use xlink:href="#ak" transform="matrix(18 0 0 -18 16.11 472.47)" fill="#bfbfbf"/><use xlink:href="#ag" transform="matrix(18 0 0 -18 23.165 472.373)" fill="#bfbfbf"/><use xlink:href="#aj" transform="matrix(18 0 0 -18 28.502 472.487)" fill="#bfbfbf"/><use xlink:href="#ak" transform="matrix(18 0 0 -18 36.449 472.47)" fill="#bfbfbf"/><use xlink:href="#Z" transform="matrix(18 0 0 -18 42.777 472.487)" fill="#bfbfbf"/><use xlink:href="#am" transform="matrix(18 0 0 -18 51.431 475.528)" fill="#bfbfbf"/><use xlink:href="#ah" transform="matrix(18 0 0 -18 59.766 475.52)" fill="#bfbfbf"/><path stroke-width="1.524" stroke-linecap="square" stroke-miterlimit="8" fill="none" stroke="#bfbfbf" d="M281.1 114.156c0-4.841.655-8.766 1.462-8.766h35.965c.807 0 1.461-3.925 1.461-8.766 0 4.841.654 8.766 1.46 8.766h35.966c.807 0 1.461 3.925 1.461 8.766"/><symbol id="ap"><path d="M.478.038A.037.037 0 0 0 .466.01.03.03 0 0 0 .455.003.043.043 0 0 0 .442.001H.415a.058.058 0 0 0-.04.012.118.118 0 0 0-.018.02.362.362 0 0 0-.018.031l-.2.36a2.954 2.954 0 0 0-.06.118H.078A4.974 4.974 0 0 0 .08.397V.016L.078.009A.014.014 0 0 0 .07.004.1.1 0 0 0 .04 0a.109.109 0 0 0-.032.004.014.014 0 0 0-.006.005A.014.014 0 0 0 0 .016v.583C0 .612.004.62.01.626a.038.038 0 0 0 .024.009h.04c.01 0 .017-.001.024-.003A.057.057 0 0 0 .13.608.212.212 0 0 0 .144.583L.298.306a4.18 4.18 0 0 0 .1-.189H.4l-.001.08v.424c0 .002 0 .004.002.006a.014.014 0 0 0 .006.005.039.039 0 0 0 .012.003.167.167 0 0 0 .039 0c.005 0 .01-.002.012-.003A.014.014 0 0 0 .476.627.011.011 0 0 0 .478.621V.038z"/></symbol><symbol id="aq"><path d="M.379.021c0-.002 0-.004-.002-.006A.013.013 0 0 0 .371.01.044.044 0 0 0 .36.007a.145.145 0 0 0-.036 0 .043.043 0 0 0-.01.003.013.013 0 0 0-.006.005.015.015 0 0 0-.001.006V.08A.274.274 0 0 0 .23.019.17.17 0 0 0 .083.015a.131.131 0 0 0-.048.04.167.167 0 0 0-.027.058A.366.366 0 0 0 0 .194v.267l.001.006a.014.014 0 0 0 .007.005.033.033 0 0 0 .013.003.162.162 0 0 0 .051-.003A.014.014 0 0 0 .08.467.01.01 0 0 0 .081.461V.205C.081.18.083.16.086.143a.125.125 0 0 1 .018-.04.085.085 0 0 1 .029-.025.09.09 0 0 1 .04-.009c.021 0 .041.007.06.022.021.014.042.035.065.063V.46l.001.006a.014.014 0 0 0 .007.005.032.032 0 0 0 .012.003A.167.167 0 0 0 .37.472.014.014 0 0 0 .376.467.009.009 0 0 0 .38.461V.02z"/></symbol><symbol id="ar"><path d="M.652.015C.652.013.652.01.65.008A.017.017 0 0 0 .644.004.045.045 0 0 0 .63 0 .162.162 0 0 0 .58.004a.017.017 0 0 0-.006.004.012.012 0 0 0-.002.007v.267a.244.244 0 0 1-.005.051.117.117 0 0 1-.016.04.073.073 0 0 1-.027.025.082.082 0 0 1-.04.009.093.093 0 0 1-.055-.022.393.393 0 0 1-.062-.063V.015c0-.002 0-.005-.002-.007A.017.017 0 0 0 .357.004.045.045 0 0 0 .345 0a.162.162 0 0 0-.052.003.017.017 0 0 0-.006.004.015.015 0 0 0-.001.007v.267A.223.223 0 0 1 .28.333a.124.124 0 0 1-.016.04.073.073 0 0 1-.066.034.093.093 0 0 1-.056-.022.367.367 0 0 1-.061-.063V.015L.079.008A.017.017 0 0 0 .072.004.045.045 0 0 0 .06 0a.167.167 0 0 0-.052.003A.017.017 0 0 0 0 .008.015.015 0 0 0 0 .015v.44L.001.46c.001.002.003.004.006.005A.027.027 0 0 0 .02.469.133.133 0 0 0 .065.466.011.011 0 0 0 .071.46.01.01 0 0 0 .073.455V.396a.283.283 0 0 0 .072.061c.023.013.047.02.07.02A.172.172 0 0 0 .265.47.128.128 0 0 0 .35.39a.475.475 0 0 0 .08.067.153.153 0 0 0 .141.004.125.125 0 0 0 .047-.04.154.154 0 0 0 .025-.058.306.306 0 0 0 .008-.07V.015z"/></symbol><symbol id="as"><path d="M.404.247A.387.387 0 0 0 .392.144.223.223 0 0 0 .355.066a.16.16 0 0 0-.06-.049.182.182 0 0 0-.153 0 .424.424 0 0 0-.07.058V.021L.068.015A.014.014 0 0 0 .063.01.113.113 0 0 0 .019.008.066.066 0 0 0 .007.01C.004.01.002.013.001.015A.015.015 0 0 0 0 .02v.653L.001.68a.014.014 0 0 0 .007.005.052.052 0 0 0 .013.002.162.162 0 0 0 .051-.002A.014.014 0 0 0 .08.68.012.012 0 0 0 .08.674V.41a.34.34 0 0 0 .037.033A.22.22 0 0 0 .19.48a.17.17 0 0 0 .038.004c.031 0 .059-.006.081-.02a.155.155 0 0 0 .055-.05.218.218 0 0 0 .032-.075.409.409 0 0 0 .01-.09M.318.237a.392.392 0 0 1-.005.065.18.18 0 0 1-.018.056.107.107 0 0 1-.033.04.087.087 0 0 1-.053.015.11.11 0 0 1-.061-.02.242.242 0 0 1-.033-.026.398.398 0 0 1-.035-.04V.152A.34.34 0 0 1 .144.09.109.109 0 0 1 .207.07a.09.09 0 0 1 .052.014.11.11 0 0 1 .034.039c.01.016.016.034.02.054.004.02.006.04.006.06z"/></symbol><symbol id="at"><path d="M.404.26C.404.248.401.238.394.233A.032.032 0 0 0 .374.225H.085C.085.201.087.18.092.16A.127.127 0 0 1 .117.11.11.11 0 0 1 .16.077.176.176 0 0 1 .228.065a.286.286 0 0 1 .127.028A.048.048 0 0 0 .373.1.01.01 0 0 0 .378.097.01.01 0 0 0 .383.092.091.091 0 0 0 .384.048.015.015 0 0 0 .38.042.023.023 0 0 0 .377.036a.078.078 0 0 0-.016-.01A.437.437 0 0 0 .22 0a.274.274 0 0 0-.094.016.176.176 0 0 0-.11.12A.348.348 0 0 0 0 .239c0 .038.005.072.015.102.01.03.023.056.042.076.018.022.04.038.067.049A.216.216 0 0 0 .21.483.21.21 0 0 0 .299.466a.165.165 0 0 0 .094-.11.28.28 0 0 0 .011-.081V.26m-.08.024a.147.147 0 0 1-.03.1C.276.408.247.42.209.42a.113.113 0 0 1-.09-.041.136.136 0 0 1-.024-.044.179.179 0 0 1-.009-.05h.238z"/></symbol><symbol id="au"><path d="M.257.426a.279.279 0 0 0-.003-.03A.018.018 0 0 0 .25.39C.25.388.247.388.245.388c-.003 0-.006 0-.01.002a.082.082 0 0 1-.013.004.132.132 0 0 1-.015.004.088.088 0 0 1-.02.002.062.062 0 0 1-.023-.004.097.097 0 0 1-.025-.017A.66.66 0 0 1 .08.304V.015L.079.008A.017.017 0 0 0 .072.004.045.045 0 0 0 .06 0a.167.167 0 0 0-.052.003A.017.017 0 0 0 0 .008.015.015 0 0 0 0 .015v.44L.001.46c.001.002.003.004.006.005A.027.027 0 0 0 .02.469.133.133 0 0 0 .065.466.011.011 0 0 0 .071.46.01.01 0 0 0 .073.455V.39a.361.361 0 0 0 .033.043c.011.01.021.02.03.025.01.007.02.011.029.014a.106.106 0 0 0 .042.003A.108.108 0 0 0 .24.469.033.033 0 0 0 .25.464.013.013 0 0 0 .254.459L.255.454A.243.243 0 0 0 .256.426z"/></symbol><symbol id="av"><path d="M0 0z"/></symbol><symbol id="aw"><path d="M.44.246A.332.332 0 0 0 .424.147.216.216 0 0 0 .383.069a.191.191 0 0 0-.07-.05A.245.245 0 0 0 .214 0 .255.255 0 0 0 .12.016a.173.173 0 0 0-.067.047.199.199 0 0 0-.04.075.347.347 0 0 0-.013.1c0 .035.005.068.014.098a.192.192 0 0 0 .112.129c.028.012.06.018.098.018A.252.252 0 0 0 .318.467.172.172 0 0 0 .386.42a.199.199 0 0 0 .04-.075.333.333 0 0 0 .013-.099M.354.241a.32.32 0 0 1-.006.067.163.163 0 0 1-.022.056.106.106 0 0 1-.04.037.133.133 0 0 1-.065.015.138.138 0 0 1-.062-.013.112.112 0 0 1-.042-.036.162.162 0 0 1-.025-.055.346.346 0 0 1-.001-.137.17.17 0 0 1 .022-.056.116.116 0 0 1 .106-.051c.023 0 .044.004.06.013.018.008.032.02.043.035.011.016.02.034.025.055a.292.292 0 0 1 .007.07z"/></symbol><symbol id="ax"><path d="M.297.635V.62A.042.042 0 0 0 .293.611.009.009 0 0 0 .29.606a.01.01 0 0 0-.005 0L.277.606a.095.095 0 0 1-.012.005.096.096 0 0 1-.017.005.095.095 0 0 1-.054-.003.047.047 0 0 1-.02-.019.087.087 0 0 1-.012-.032A.283.283 0 0 1 .16.515V.467h.098A.01.01 0 0 0 .263.465C.265.465.267.462.268.46A.027.027 0 0 0 .271.45.07.07 0 0 0 .273.434.055.055 0 0 0 .269.408C.266.403.262.4.257.4H.159V.015L.157.008A.017.017 0 0 0 .15.004.045.045 0 0 0 .138 0a.162.162 0 0 0-.052.003.017.017 0 0 0-.006.004.012.012 0 0 0-.002.007V.4H.016C.01.4.006.403.004.408A.105.105 0 0 0 0 .45c0 .004.002.008.003.01.001.003.003.005.005.006a.012.012 0 0 0 .007.002h.062v.046c0 .03.002.056.008.078S.1.631.112.646a.103.103 0 0 0 .044.03.176.176 0 0 0 .096.007.114.114 0 0 0 .025-.007A.036.036 0 0 0 .29.67.023.023 0 0 0 .294.662.105.105 0 0 0 .297.635z"/></symbol><symbol id="ay"><path d="M.378.015c0-.002 0-.005-.002-.007A.017.017 0 0 0 .37.004.045.045 0 0 0 .358 0a.162.162 0 0 0-.052.003A.017.017 0 0 0 .3.008a.012.012 0 0 0-.002.007v.257a.253.253 0 0 1-.006.061.125.125 0 0 1-.017.04.074.074 0 0 1-.03.025.09.09 0 0 1-.04.009.104.104 0 0 1-.061-.022.328.328 0 0 1-.063-.063V.015L.079.008A.017.017 0 0 0 .072.004.045.045 0 0 0 .06 0a.167.167 0 0 0-.052.003A.017.017 0 0 0 0 .008.015.015 0 0 0 0 .015v.44L.001.46c.001.002.003.004.006.005A.027.027 0 0 0 .02.469.133.133 0 0 0 .065.466.011.011 0 0 0 .071.46.01.01 0 0 0 .073.455V.396c.024.028.05.048.073.061.025.013.05.02.075.02.03 0 .054-.005.074-.016a.13.13 0 0 0 .049-.04A.156.156 0 0 0 .37.364a.334.334 0 0 0 .008-.08V.015z"/></symbol><symbol id="az"><path d="M.09.015C.09.013.09.01.088.008A.017.017 0 0 0 .082.004.045.045 0 0 0 .07 0a.167.167 0 0 0-.052.003.017.017 0 0 0-.007.004.015.015 0 0 0-.001.007v.44L.01.46a.014.014 0 0 0 .007.005.052.052 0 0 0 .012.003.162.162 0 0 0 .052-.003A.014.014 0 0 0 .088.46.011.011 0 0 0 .09.455v-.44M.1.603C.1.584.096.571.089.564.082.558.069.554.049.554.03.554.017.557.01.564.003.571 0 .584 0 .602c0 .019.004.032.01.039.008.006.021.01.04.01C.07.65.082.647.09.64.096.634.099.62.099.603z"/></symbol><symbol id="aA"><path d="M.287.053c0-.01 0-.017-.002-.023A.025.025 0 0 0 .28.018.038.038 0 0 0 .268.011a.186.186 0 0 0-.12-.002.098.098 0 0 0-.064.074.285.285 0 0 0-.006.066v.257H.016C.011.406.007.408.004.414A.055.055 0 0 0 0 .439l.001.016a.047.047 0 0 0 .003.01L.01.47a.015.015 0 0 0 .008.002h.06v.104L.08.583a.014.014 0 0 0 .006.005.04.04 0 0 0 .013.004A.162.162 0 0 0 .15.588.014.014 0 0 0 .156.583.011.011 0 0 0 .158.577V.473h.113L.278.47.283.465a.027.027 0 0 0 .003-.01L.287.439A.055.055 0 0 0 .283.414C.28.408.276.406.27.406H.158V.16c0-.03.005-.054.013-.07C.181.077.197.07.22.07a.093.093 0 0 1 .035.007.34.34 0 0 1 .02.007C.279.083.28.082.28.08.282.081.283.08.284.077a.042.042 0 0 0 .002-.01L.287.053z"/></symbol><symbol id="aB"><path d="M.311.141a.137.137 0 0 0-.013-.06.12.12 0 0 0-.035-.044.16.16 0 0 0-.055-.028.248.248 0 0 0-.114-.005.274.274 0 0 0-.067.02.09.09 0 0 0-.017.012.028.028 0 0 0-.008.013A.093.093 0 0 0 0 .073.105.105 0 0 0 .003.1a.01.01 0 0 0 .004.005.011.011 0 0 0 .007.002C.017.106.022.104.029.1A.525.525 0 0 1 .092.07.167.167 0 0 1 .177.07c.011.003.02.007.03.013a.057.057 0 0 1 .018.022C.229.112.23.123.23.134a.05.05 0 0 1-.01.032.088.088 0 0 1-.024.022.196.196 0 0 1-.035.018A10.87 10.87 0 0 1 .08.24a.163.163 0 0 0-.036.026.12.12 0 0 0-.025.036.124.124 0 0 0-.01.05c0 .018.004.034.01.05.007.016.017.03.03.041.014.012.03.022.05.03A.21.21 0 0 0 .207.48.241.241 0 0 0 .262.463.081.081 0 0 0 .277.454.022.022 0 0 0 .284.447.049.049 0 0 0 .288.431V.405a.027.027 0 0 0-.003-.01.013.013 0 0 0-.004-.006.01.01 0 0 0-.005-.001C.273.387.269.389.263.392A.211.211 0 0 1 .21.415a.139.139 0 0 1-.076 0A.067.067 0 0 1 .108.403a.057.057 0 0 1-.015-.02.065.065 0 0 1-.005-.025c0-.013.003-.024.01-.032A.095.095 0 0 1 .123.302.214.214 0 0 1 .159.285 3.48 3.48 0 0 0 .24.25.151.151 0 0 0 .276.225.11.11 0 0 0 .311.141z"/></symbol><use xlink:href="#ap" transform="matrix(12 0 0 -12 313.083 91.715)" fill="#bfbfbf"/><use xlink:href="#aq" transform="matrix(12 0 0 -12 320.692 91.791)" fill="#bfbfbf"/><use xlink:href="#ar" transform="matrix(12 0 0 -12 326.97 91.715)" fill="#bfbfbf"/><use xlink:href="#as" transform="matrix(12 0 0 -12 336.592 91.791)" fill="#bfbfbf"/><use xlink:href="#at" transform="matrix(12 0 0 -12 342.49 91.791)" fill="#bfbfbf"/><use xlink:href="#au" transform="matrix(12 0 0 -12 348.84 91.715)" fill="#bfbfbf"/><use xlink:href="#av" transform="matrix(12 0 0 -12 352.069 91.68)" fill="#bfbfbf"/><use xlink:href="#aw" transform="matrix(12 0 0 -12 355.342 91.791)" fill="#bfbfbf"/><use xlink:href="#ax" transform="matrix(12 0 0 -12 361.413 91.715)" fill="#bfbfbf"/><use xlink:href="#av" transform="matrix(12 0 0 -12 364.817 91.68)" fill="#bfbfbf"/><use xlink:href="#aq" transform="matrix(12 0 0 -12 368.43 91.791)" fill="#bfbfbf"/><use xlink:href="#ay" transform="matrix(12 0 0 -12 374.71 91.715)" fill="#bfbfbf"/><use xlink:href="#az" transform="matrix(12 0 0 -12 380.842 91.715)" fill="#bfbfbf"/><use xlink:href="#aA" transform="matrix(12 0 0 -12 383.001 91.78)" fill="#bfbfbf"/><use xlink:href="#aB" transform="matrix(12 0 0 -12 387.276 91.791)" fill="#bfbfbf"/><path stroke-width="1.524" stroke-linecap="square" stroke-miterlimit="8" fill="none" stroke="#bfbfbf" d="M382.65 116.295c0-6.023.813-10.905 1.817-10.905h61.314c1.004 0 1.818-4.883 1.818-10.906 0 6.023.814 10.906 1.817 10.906h61.315c1.004 0 1.817 4.882 1.817 10.905"/><symbol id="aC"><path d="M.323.018a.024.024 0 0 0-.006-.01.023.023 0 0 0-.01-.005.231.231 0 0 0-.089.003.021.021 0 0 0-.004.005.072.072 0 0 0-.003.007L.004.605A.07.07 0 0 0 0 .622c0 .005.001.008.004.01A.028.028 0 0 0 .02.637a.279.279 0 0 0 .06-.003A.013.013 0 0 0 .085.63.029.029 0 0 0 .09.62L.27.09.448.62A.038.038 0 0 0 .45.63a.013.013 0 0 0 .007.005.222.222 0 0 0 .061.002c.006 0 .01-.002.012-.004S.534.626.533.622A.07.07 0 0 0 .53.604L.323.018z"/></symbol><symbol id="aD"><path d="M.36.021C.36.017.36.014.358.012a.027.027 0 0 0-.01-.004.102.102 0 0 0-.02-.002c-.01 0-.016 0-.021.002a.024.024 0 0 0-.011.004C.293.014.292.017.292.021v.044A.216.216 0 0 0 .227.017.169.169 0 0 0 .152 0 .202.202 0 0 0 .09.01.121.121 0 0 0 .01.077.142.142 0 0 0 0 .133C0 .159.005.18.015.198.025.216.04.232.06.244A.21.21 0 0 0 .128.27.42.42 0 0 0 .22.28h.06v.034a.17.17 0 0 1-.005.045.074.074 0 0 1-.048.052.183.183 0 0 1-.1 0A.264.264 0 0 1 .054.378.04.04 0 0 0 .038.372c-.003 0-.005 0-.007.002A.019.019 0 0 0 .025.38a.035.035 0 0 0-.003.01.096.096 0 0 0 0 .033.03.03 0 0 0 .01.013c.004.004.011.01.022.015a.295.295 0 0 0 .133.032.264.264 0 0 0 .081-.01A.12.12 0 0 0 .351.39a.25.25 0 0 0 .01-.073V.021m-.08.2H.21A.25.25 0 0 1 .155.217a.113.113 0 0 1-.04-.017A.068.068 0 0 1 .09.173.08.08 0 0 1 .083.138C.083.115.09.097.104.083a.087.087 0 0 1 .061-.02c.021 0 .04.005.059.016A.25.25 0 0 1 .28.13v.093z"/></symbol><symbol id="aE"><path d="M.08.015.08.008A.017.017 0 0 0 .072.004.045.045 0 0 0 .06 0a.167.167 0 0 0-.052.003A.017.017 0 0 0 0 .008.015.015 0 0 0 0 .015v.652l.001.007A.014.014 0 0 0 .008.68.052.052 0 0 0 .02.682.162.162 0 0 0 .072.68.014.014 0 0 0 .08.674.012.012 0 0 0 .08.667V.015z"/></symbol><use xlink:href="#aC" transform="matrix(12 0 0 -12 433.93 91.715)" fill="#bfbfbf"/><use xlink:href="#aD" transform="matrix(12 0 0 -12 440.35 91.791)" fill="#bfbfbf"/><use xlink:href="#au" transform="matrix(12 0 0 -12 446.463 91.715)" fill="#bfbfbf"/><use xlink:href="#az" transform="matrix(12 0 0 -12 450.47 91.715)" fill="#bfbfbf"/><use xlink:href="#aD" transform="matrix(12 0 0 -12 452.987 91.791)" fill="#bfbfbf"/><use xlink:href="#as" transform="matrix(12 0 0 -12 459.1 91.791)" fill="#bfbfbf"/><use xlink:href="#aE" transform="matrix(12 0 0 -12 465.349 91.715)" fill="#bfbfbf"/><use xlink:href="#at" transform="matrix(12 0 0 -12 467.754 91.791)" fill="#bfbfbf"/><use xlink:href="#az" transform="matrix(12 0 0 -12 476.714 91.715)" fill="#bfbfbf"/><use xlink:href="#ay" transform="matrix(12 0 0 -12 479.582 91.715)" fill="#bfbfbf"/><symbol id="aF"><path d="M.378.015c0-.002 0-.005-.002-.007A.017.017 0 0 0 .37.004.045.045 0 0 0 .358 0a.162.162 0 0 0-.052.003A.017.017 0 0 0 .3.008a.012.012 0 0 0-.002.007v.257a.253.253 0 0 1-.006.061.125.125 0 0 1-.017.04.074.074 0 0 1-.03.025.09.09 0 0 1-.04.009.104.104 0 0 1-.061-.022.328.328 0 0 1-.063-.063V.015L.079.008A.017.017 0 0 0 .072.004.045.045 0 0 0 .06 0a.167.167 0 0 0-.052.003A.017.017 0 0 0 0 .008.015.015 0 0 0 0 .015v.652l.001.007A.014.014 0 0 0 .008.68.052.052 0 0 0 .02.682.162.162 0 0 0 .072.68.014.014 0 0 0 .08.674.012.012 0 0 0 .08.667V.404a.256.256 0 0 0 .07.054.162.162 0 0 0 .145.003.13.13 0 0 0 .048-.04A.156.156 0 0 0 .37.364a.337.337 0 0 0 .008-.08V.015z"/></symbol><use xlink:href="#aA" transform="matrix(12 0 0 -12 487.878 91.78)" fill="#bfbfbf"/><use xlink:href="#aF" transform="matrix(12 0 0 -12 492.581 91.715)" fill="#bfbfbf"/><use xlink:href="#at" transform="matrix(12 0 0 -12 498.473 91.791)" fill="#bfbfbf"/><symbol id="aG"><path d="M.404.021c0-.002 0-.004-.002-.006C.402.013.4.01.396.01a.12.12 0 0 0-.056 0 .014.014 0 0 0-.006.005.012.012 0 0 0-.001.006V.08A.295.295 0 0 0 .26.02.163.163 0 0 0 .18 0a.17.17 0 0 0-.083.019.16.16 0 0 0-.055.05.23.23 0 0 0-.031.076.415.415 0 0 0 .002.193c.008.03.02.057.036.078a.16.16 0 0 0 .06.05.183.183 0 0 0 .081.017C.215.483.24.477.26.466a.243.243 0 0 0 .064-.05v.256c0 .002 0 .004.002.006a.011.011 0 0 0 .007.005.109.109 0 0 0 .032.004.112.112 0 0 0 .032-.004.01.01 0 0 0 .006-.005.01.01 0 0 0 .002-.006v-.65M.324.33A.308.308 0 0 1 .26.392a.108.108 0 0 1-.064.022.09.09 0 0 1-.052-.015A.115.115 0 0 1 .109.36a.194.194 0 0 1-.02-.054A.427.427 0 0 1 .088.18.196.196 0 0 1 .106.123.11.11 0 0 1 .14.083a.106.106 0 0 1 .114.004l.033.027a.43.43 0 0 1 .036.04v.177z"/></symbol><use xlink:href="#ar" transform="matrix(12 0 0 -12 507.581 91.715)" fill="#bfbfbf"/><use xlink:href="#aw" transform="matrix(12 0 0 -12 516.837 91.791)" fill="#bfbfbf"/><use xlink:href="#aG" transform="matrix(12 0 0 -12 523.246 91.791)" fill="#bfbfbf"/><use xlink:href="#at" transform="matrix(12 0 0 -12 529.481 91.791)" fill="#bfbfbf"/><use xlink:href="#aE" transform="matrix(12 0 0 -12 535.834 91.715)" fill="#bfbfbf"/><symbol id="aH"><path d="M.177.841A.954.954 0 0 1 .176.022a.027.027 0 0 0 .002-.01c0-.003 0-.005-.003-.007a.02.02 0 0 0-.01-.004.201.201 0 0 0-.045.001.03.03 0 0 0-.008.004.97.97 0 0 0-.105.315.873.873 0 0 0 .103.534.04.04 0 0 0 .017.005.129.129 0 0 0 .036 0 .034.034 0 0 0 .01-.004A.009.009 0 0 0 .179.85L.177.84z"/></symbol><symbol id="aI"><path d="M.476.243A.291.291 0 0 0 .46.14.203.203 0 0 0 .335.016.301.301 0 0 0 .233 0a.285.285 0 0 0-.095.015.203.203 0 0 0-.074.045.198.198 0 0 0-.047.074A.292.292 0 0 0 0 .236v.392c0 .003 0 .005.002.007A.012.012 0 0 0 .009.64a.115.115 0 0 0 .033.004A.117.117 0 0 0 .075.64.012.012 0 0 0 .082.635.012.012 0 0 0 .083.628V.247c0-.03.004-.055.011-.077A.149.149 0 0 1 .125.115.136.136 0 0 1 .174.083C.193.075.214.072.238.072c.025 0 .046.003.065.01C.323.09.34.1.352.116a.14.14 0 0 1 .03.053c.007.021.01.046.01.074v.386c0 .003.001.005.003.007A.012.012 0 0 0 .4.64a.12.12 0 0 0 .053.003L.467.64A.012.012 0 0 0 .474.635.01.01 0 0 0 .476.628V.243z"/></symbol><use xlink:href="#aH" transform="matrix(12 0 0 -12 541.214 93.701)" fill="#bfbfbf"/><use xlink:href="#aI" transform="matrix(12 0 0 -12 545.056 91.791)" fill="#bfbfbf"/><symbol id="aJ"><path d="M.404.417A.389.389 0 0 0 .392.313.223.223 0 0 0 .355.235.165.165 0 0 0 .214.168a.143.143 0 0 0-.069.016.505.505 0 0 0-.064.05V.017L.079.009A.014.014 0 0 0 .072.004.045.045 0 0 0 .06 0a.167.167 0 0 0-.052.003A.014.014 0 0 0 0 .009.015.015 0 0 0 0 .016v.613l.001.007C.002.638.004.64.007.641a.12.12 0 0 0 .044.002.034.034 0 0 0 .012-.002C.066.64.068.638.069.636A.01.01 0 0 0 .07.63V.57a.467.467 0 0 0 .075.06.166.166 0 0 0 .081.021C.26.651.287.645.31.633A.152.152 0 0 0 .363.582.223.223 0 0 0 .395.507a.402.402 0 0 0 .01-.09M.318.407a.383.383 0 0 1-.005.065.18.18 0 0 1-.018.056.09.09 0 0 1-.085.054.115.115 0 0 1-.062-.02A.383.383 0 0 1 .08.496V.321A.348.348 0 0 1 .145.26.105.105 0 0 1 .206.238a.09.09 0 0 1 .052.014c.014.01.026.023.035.04.01.016.016.034.02.054.004.02.006.04.006.061z"/></symbol><use xlink:href="#au" transform="matrix(12 0 0 -12 555.457 91.715)" fill="#bfbfbf"/><use xlink:href="#at" transform="matrix(12 0 0 -12 559.07 91.791)" fill="#bfbfbf"/><use xlink:href="#aJ" transform="matrix(12 0 0 -12 565.426 93.813)" fill="#bfbfbf"/><use xlink:href="#au" transform="matrix(12 0 0 -12 571.67 91.715)" fill="#bfbfbf"/><use xlink:href="#at" transform="matrix(12 0 0 -12 575.284 91.791)" fill="#bfbfbf"/><use xlink:href="#aB" transform="matrix(12 0 0 -12 581.219 91.791)" fill="#bfbfbf"/><use xlink:href="#at" transform="matrix(12 0 0 -12 586.034 91.791)" fill="#bfbfbf"/><use xlink:href="#ay" transform="matrix(12 0 0 -12 592.39 91.715)" fill="#bfbfbf"/><use xlink:href="#aA" transform="matrix(12 0 0 -12 597.824 91.78)" fill="#bfbfbf"/><use xlink:href="#aB" transform="matrix(12 0 0 -12 602.106 91.791)" fill="#bfbfbf"/><symbol id="aK"><path d="M.36.016.36.009A.014.014 0 0 0 .352.004.046.046 0 0 0 .34 0a.185.185 0 0 0-.043 0 .078.078 0 0 0-.014.002.034.034 0 0 0-.01.005.051.051 0 0 0-.006.008L.081.259V.015L.079.008A.017.017 0 0 0 .072.004.045.045 0 0 0 .06 0a.167.167 0 0 0-.052.003A.017.017 0 0 0 0 .008.015.015 0 0 0 0 .015v.652l.001.007A.014.014 0 0 0 .008.68.052.052 0 0 0 .02.682.162.162 0 0 0 .072.68.014.014 0 0 0 .08.674.012.012 0 0 0 .08.667V.27l.166.183A.037.037 0 0 0 .255.46.049.049 0 0 0 .28.468.175.175 0 0 0 .333.467C.337.466.34.464.341.462A.01.01 0 0 0 .343.455.023.023 0 0 0 .34.443.062.062 0 0 0 .33.43L.17.27.35.04A.076.076 0 0 0 .357.025.018.018 0 0 0 .36.015z"/></symbol><symbol id="aL"><path d="M.664.456.663.447A.106.106 0 0 0 .659.435L.53.018a.02.02 0 0 0-.004-.01.02.02 0 0 0-.009-.005.253.253 0 0 0-.082 0A.02.02 0 0 0 .427.01.023.023 0 0 0 .42.018L.33.336v.005L.326.336.242.018A.02.02 0 0 0 .228.003a.253.253 0 0 0-.082 0A.02.02 0 0 0 .137.01a.023.023 0 0 0-.004.009L.004.435A.106.106 0 0 0 0 .455c0 .003 0 .006.002.007a.012.012 0 0 0 .006.005.313.313 0 0 0 .066 0A.01.01 0 0 0 .082.46.03.03 0 0 0 .084.454L.19.092.191.087l.001.005.098.362.002.007A.013.013 0 0 0 .3.466a.167.167 0 0 0 .063 0A.012.012 0 0 0 .37.462.022.022 0 0 0 .372.455L.477.092V.087l.001.005.105.362.002.007a.013.013 0 0 0 .007.005.185.185 0 0 0 .063 0A.013.013 0 0 0 .663.463.01.01 0 0 0 .664.456z"/></symbol><use xlink:href="#aq" transform="matrix(12 0 0 -12 609.997 91.791)" fill="#bfbfbf"/><use xlink:href="#ay" transform="matrix(12 0 0 -12 616.276 91.715)" fill="#bfbfbf"/><use xlink:href="#aK" transform="matrix(12 0 0 -12 622.526 91.715)" fill="#bfbfbf"/><use xlink:href="#ay" transform="matrix(12 0 0 -12 628.031 91.715)" fill="#bfbfbf"/><use xlink:href="#aw" transform="matrix(12 0 0 -12 633.912 91.791)" fill="#bfbfbf"/><use xlink:href="#aL" transform="matrix(12 0 0 -12 640.029 91.715)" fill="#bfbfbf"/><use xlink:href="#ay" transform="matrix(12 0 0 -12 649.24 91.715)" fill="#bfbfbf"/><symbol id="aM"><path d="M.416.61A.049.049 0 0 0 .411.585C.408.58.404.578.4.578H.336A.099.099 0 0 0 .36.538.174.174 0 0 0 .355.428.136.136 0 0 0 .32.377a.156.156 0 0 0-.054-.03.212.212 0 0 0-.12-.004.11.11 0 0 0-.038.018.06.06 0 0 1-.02-.046c0-.011.006-.02.016-.028A.078.078 0 0 1 .146.274L.261.27a.23.23 0 0 0 .06-.01A.143.143 0 0 0 .37.237.103.103 0 0 0 .41.15.13.13 0 0 0 .36.045.186.186 0 0 0 .293.012.384.384 0 0 0 .106.01a.193.193 0 0 0-.06.025A.095.095 0 0 0 0 .118a.125.125 0 0 0 .016.06.15.15 0 0 0 .02.026.264.264 0 0 0 .027.025.076.076 0 0 0-.047.07c0 .02.005.038.013.054s.018.03.03.042a.145.145 0 0 0-.024.04.154.154 0 0 0-.009.056.17.17 0 0 0 .013.067.143.143 0 0 0 .089.082.205.205 0 0 0 .069.01.263.263 0 0 0 .07-.007h.132C.405.643.41.64.412.634A.052.052 0 0 0 .416.61M.29.494c0 .03-.008.053-.025.07C.25.581.225.589.195.589a.1.1 0 0 1-.04-.007.083.083 0 0 1-.047-.054.126.126 0 0 1-.005-.037C.103.462.111.44.127.423a.094.094 0 0 1 .07-.025c.016 0 .03.002.041.007a.08.08 0 0 1 .046.053.115.115 0 0 1 .006.036M.33.146a.049.049 0 0 1-.023.043.115.115 0 0 1-.062.017L.13.21A.21.21 0 0 1 .089.166a.08.08 0 0 1-.008-.02.102.102 0 0 1-.002-.02C.08.105.09.089.111.078a.2.2 0 0 1 .09-.016c.025 0 .045.002.061.007.017.004.03.01.04.018.01.008.017.017.022.027.004.01.007.02.007.032z"/></symbol><symbol id="aN"><path d="M.258.178.2.016C.198.011.193.007.185.004A.11.11 0 0 0 .148 0l-.02.001a.028.028 0 0 0-.012.004.01.01 0 0 0-.005.008c0 .003 0 .007.003.012l.06.153a.025.025 0 0 0-.008.006.025.025 0 0 0-.005.01l-.157.42A.049.049 0 0 0 0 .628c0 .004.001.007.004.01a.023.023 0 0 0 .013.004.208.208 0 0 0 .06-.002.012.012 0 0 0 .006-.006.045.045 0 0 0 .005-.01L.213.273h.002l.12.354C.339.634.34.637.344.64a.03.03 0 0 0 .012.004.147.147 0 0 0 .047 0C.408.643.412.641.415.64a.011.011 0 0 0 .004-.01.048.048 0 0 0-.003-.014L.258.178z"/></symbol><symbol id="aO"><path d="M.178.43A.873.873 0 0 0 .067.007.045.045 0 0 0 .048 0a.201.201 0 0 0-.035 0 .02.02 0 0 0-.01.004A.008.008 0 0 0 0 .012a1.021 1.021 0 0 1 .094.42.952.952 0 0 1-.092.41A.016.016 0 0 0 0 .85c0 .002.002.004.005.006a.034.034 0 0 0 .01.004.124.124 0 0 0 .046-.001.023.023 0 0 0 .007-.004.814.814 0 0 0 .11-.425z"/></symbol><use xlink:href="#aF" transform="matrix(12 0 0 -12 658.231 91.715)" fill="#bfbfbf"/><use xlink:href="#at" transform="matrix(12 0 0 -12 664.13 91.791)" fill="#bfbfbf"/><use xlink:href="#aA" transform="matrix(12 0 0 -12 669.716 91.78)" fill="#bfbfbf"/><use xlink:href="#at" transform="matrix(12 0 0 -12 673.94 91.791)" fill="#bfbfbf"/><use xlink:href="#au" transform="matrix(12 0 0 -12 680.29 91.715)" fill="#bfbfbf"/><use xlink:href="#aw" transform="matrix(12 0 0 -12 683.854 91.791)" fill="#bfbfbf"/><use xlink:href="#aM" transform="matrix(12 0 0 -12 690.02 93.819)" fill="#bfbfbf"/><use xlink:href="#at" transform="matrix(12 0 0 -12 695.783 91.791)" fill="#bfbfbf"/><use xlink:href="#ay" transform="matrix(12 0 0 -12 702.132 91.715)" fill="#bfbfbf"/><use xlink:href="#at" transform="matrix(12 0 0 -12 708.03 91.791)" fill="#bfbfbf"/><use xlink:href="#az" transform="matrix(12 0 0 -12 714.262 91.715)" fill="#bfbfbf"/><use xlink:href="#aA" transform="matrix(12 0 0 -12 716.422 91.78)" fill="#bfbfbf"/><use xlink:href="#aN" transform="matrix(12 0 0 -12 720.433 93.813)" fill="#bfbfbf"/><use xlink:href="#aO" transform="matrix(12 0 0 -12 726.323 93.701)" fill="#bfbfbf"/><path stroke-width="1.524" stroke-linecap="square" stroke-miterlimit="8" fill="none" stroke="#bfbfbf" d="M272.25 144.894c0 4.413-.596 7.99-1.332 7.99h-68.291c-.736 0-1.332 3.578-1.332 7.991 0-4.413-.596-7.99-1.332-7.99h-68.29c-.736 0-1.333-3.578-1.333-7.99"/><symbol id="aP"><path d="M.486.325A.445.445 0 0 0 .465.182.261.261 0 0 0 .403.08.252.252 0 0 0 .305.02.433.433 0 0 0 .165 0H.031A.036.036 0 0 0 .01.007C.003.013 0 .021 0 .034v.564C0 .61.003.619.01.624A.035.035 0 0 0 .03.632h.143C.23.632.275.625.313.61A.247.247 0 0 0 .466.453a.382.382 0 0 0 .02-.128M.397.322a.342.342 0 0 1-.012.095.203.203 0 0 1-.04.077.182.182 0 0 1-.069.05.27.27 0 0 1-.107.018H.084V.07H.17a.3.3 0 0 1 .102.015c.028.01.051.026.07.047A.2.2 0 0 1 .383.21c.01.032.014.069.014.112z"/></symbol><symbol id="aQ"><path d="M.347.088A.193.193 0 0 0 .344.063.029.029 0 0 0 .341.056a.045.045 0 0 0-.008-.01.128.128 0 0 0-.02-.014A.225.225 0 0 0 .196 0a.212.212 0 0 0-.084.016A.162.162 0 0 0 .05.06a.216.216 0 0 0-.037.074.365.365 0 0 0-.013.1C0 .28.005.317.016.348c.01.031.025.057.043.077.019.02.04.034.065.044A.221.221 0 0 0 .312.454.114.114 0 0 0 .33.439.05.05 0 0 0 .338.43.028.028 0 0 0 .342.422.059.059 0 0 0 .34.37C.337.365.334.363.33.363.325.363.319.365.312.37a.216.216 0 0 1-.06.035.13.13 0 0 1-.048.009.102.102 0 0 1-.09-.045.227.227 0 0 1-.03-.13.32.32 0 0 1 .008-.074.157.157 0 0 1 .024-.054A.1.1 0 0 1 .154.08.127.127 0 0 1 .206.07c.019 0 .035.003.049.009a.207.207 0 0 1 .062.038C.324.123.33.125.333.125A.01.01 0 0 0 .34.124.014.014 0 0 0 .343.117.12.12 0 0 0 .346.089z"/></symbol><use xlink:href="#aP" transform="matrix(12 0 0 -12 162.358 175.44)" fill="#bfbfbf"/><use xlink:href="#at" transform="matrix(12 0 0 -12 169.27 175.551)" fill="#bfbfbf"/><use xlink:href="#aQ" transform="matrix(12 0 0 -12 175.248 175.551)" fill="#bfbfbf"/><use xlink:href="#aE" transform="matrix(12 0 0 -12 180.748 175.475)" fill="#bfbfbf"/><use xlink:href="#aD" transform="matrix(12 0 0 -12 183.146 175.551)" fill="#bfbfbf"/><use xlink:href="#au" transform="matrix(12 0 0 -12 189.259 175.475)" fill="#bfbfbf"/><use xlink:href="#aD" transform="matrix(12 0 0 -12 192.784 175.551)" fill="#bfbfbf"/><use xlink:href="#aA" transform="matrix(12 0 0 -12 198.074 175.54)" fill="#bfbfbf"/><use xlink:href="#az" transform="matrix(12 0 0 -12 202.663 175.475)" fill="#bfbfbf"/><use xlink:href="#aw" transform="matrix(12 0 0 -12 205.166 175.551)" fill="#bfbfbf"/><use xlink:href="#ay" transform="matrix(12 0 0 -12 211.915 175.475)" fill="#bfbfbf"/><use xlink:href="#av" transform="matrix(12 0 0 -12 217.265 175.44)" fill="#bfbfbf"/><use xlink:href="#aw" transform="matrix(12 0 0 -12 220.548 175.551)" fill="#bfbfbf"/><use xlink:href="#ax" transform="matrix(12 0 0 -12 226.616 175.475)" fill="#bfbfbf"/><use xlink:href="#av" transform="matrix(12 0 0 -12 230.019 175.44)" fill="#bfbfbf"/><use xlink:href="#aD" transform="matrix(12 0 0 -12 233.313 175.551)" fill="#bfbfbf"/><use xlink:href="#av" transform="matrix(12 0 0 -12 238.53 175.44)" fill="#bfbfbf"/><use xlink:href="#au" transform="matrix(12 0 0 -12 142.477 190.595)" fill="#bfbfbf"/><use xlink:href="#at" transform="matrix(12 0 0 -12 146.09 190.671)" fill="#bfbfbf"/><use xlink:href="#aB" transform="matrix(12 0 0 -12 152.02 190.671)" fill="#bfbfbf"/><use xlink:href="#at" transform="matrix(12 0 0 -12 156.842 190.671)" fill="#bfbfbf"/><use xlink:href="#aD" transform="matrix(12 0 0 -12 162.836 190.671)" fill="#bfbfbf"/><use xlink:href="#au" transform="matrix(12 0 0 -12 168.942 190.595)" fill="#bfbfbf"/><use xlink:href="#aQ" transform="matrix(12 0 0 -12 172.52 190.671)" fill="#bfbfbf"/><use xlink:href="#aF" transform="matrix(12 0 0 -12 178.014 190.595)" fill="#bfbfbf"/><use xlink:href="#av" transform="matrix(12 0 0 -12 183.37 190.56)" fill="#bfbfbf"/><use xlink:href="#aG" transform="matrix(12 0 0 -12 186.68 190.671)" fill="#bfbfbf"/><use xlink:href="#at" transform="matrix(12 0 0 -12 192.914 190.671)" fill="#bfbfbf"/><use xlink:href="#aB" transform="matrix(12 0 0 -12 198.844 190.671)" fill="#bfbfbf"/><use xlink:href="#az" transform="matrix(12 0 0 -12 203.9 190.595)" fill="#bfbfbf"/><use xlink:href="#aM" transform="matrix(12 0 0 -12 206.18 192.699)" fill="#bfbfbf"/><use xlink:href="#ay" transform="matrix(12 0 0 -12 212.394 190.595)" fill="#bfbfbf"/><use xlink:href="#at" transform="matrix(12 0 0 -12 221.04 190.671)" fill="#bfbfbf"/><use xlink:href="#aE" transform="matrix(12 0 0 -12 227.392 190.595)" fill="#bfbfbf"/><use xlink:href="#at" transform="matrix(12 0 0 -12 229.788 190.671)" fill="#bfbfbf"/><use xlink:href="#ar" transform="matrix(12 0 0 -12 236.14 190.595)" fill="#bfbfbf"/><use xlink:href="#at" transform="matrix(12 0 0 -12 245.412 190.671)" fill="#bfbfbf"/><use xlink:href="#ay" transform="matrix(12 0 0 -12 251.764 190.595)" fill="#bfbfbf"/><use xlink:href="#aA" transform="matrix(12 0 0 -12 257.203 190.66)" fill="#bfbfbf"/><path stroke-width="1.524" stroke-linecap="square" stroke-miterlimit="8" fill="none" stroke="#bfbfbf" d="M698.625 470.037c0 4.374-.591 7.92-1.32 7.92H552.532c-.729 0-1.32 3.546-1.32 7.92 0-4.374-.59-7.92-1.32-7.92H405.12c-.729 0-1.32-3.546-1.32-7.92"/><symbol id="aR"><path d="M.389.187a.181.181 0 0 0-.017-.08.168.168 0 0 0-.045-.059.196.196 0 0 0-.069-.036.282.282 0 0 0-.143-.007.333.333 0 0 0-.084.03.105.105 0 0 0-.02.014.04.04 0 0 0-.009.014.129.129 0 0 0-.001.042c0 .005.002.01.003.012.001.003.003.005.005.006a.012.012 0 0 0 .007.002C.02.125.026.122.035.117A.328.328 0 0 1 .114.08a.224.224 0 0 1 .114 0A.117.117 0 0 1 .267.1c.01.009.02.02.025.033a.107.107 0 0 1 .009.044.083.083 0 0 1-.012.046.12.12 0 0 1-.033.033.257.257 0 0 1-.046.027.617.617 0 0 0-.104.052.222.222 0 0 0-.045.036.17.17 0 0 0-.033.047.165.165 0 0 0-.012.067.149.149 0 0 0 .054.123.178.178 0 0 0 .06.031.254.254 0 0 0 .16-.002A.191.191 0 0 0 .342.61.028.028 0 0 0 .35.604.023.023 0 0 0 .35.597l.002-.01A.19.19 0 0 0 .35.544.015.015 0 0 0 .346.538.01.01 0 0 0 .34.536a.04.04 0 0 0-.017.006.39.39 0 0 1-.068.031.163.163 0 0 1-.096 0A.091.091 0 0 1 .126.555.075.075 0 0 1 .107.527a.092.092 0 0 1 .006-.08.126.126 0 0 1 .033-.033.3.3 0 0 1 .046-.027A69.285 69.285 0 0 0 .297.334.204.204 0 0 0 .343.3.15.15 0 0 0 .39.187z"/></symbol><use xlink:href="#aR" transform="matrix(12 0 0 -12 509.585 505.311)" fill="#bfbfbf"/><use xlink:href="#aA" transform="matrix(12 0 0 -12 514.862 505.3)" fill="#bfbfbf"/><use xlink:href="#aD" transform="matrix(12 0 0 -12 519.063 505.311)" fill="#bfbfbf"/><use xlink:href="#aA" transform="matrix(12 0 0 -12 524.36 505.3)" fill="#bfbfbf"/><use xlink:href="#az" transform="matrix(12 0 0 -12 528.946 505.235)" fill="#bfbfbf"/><use xlink:href="#aB" transform="matrix(12 0 0 -12 531.393 505.311)" fill="#bfbfbf"/><use xlink:href="#aA" transform="matrix(12 0 0 -12 535.724 505.3)" fill="#bfbfbf"/><use xlink:href="#az" transform="matrix(12 0 0 -12 540.31 505.235)" fill="#bfbfbf"/><use xlink:href="#aQ" transform="matrix(12 0 0 -12 542.809 505.311)" fill="#bfbfbf"/><use xlink:href="#aD" transform="matrix(12 0 0 -12 547.84 505.311)" fill="#bfbfbf"/><use xlink:href="#aE" transform="matrix(12 0 0 -12 553.95 505.235)" fill="#bfbfbf"/><use xlink:href="#av" transform="matrix(12 0 0 -12 555.804 505.2)" fill="#bfbfbf"/><use xlink:href="#ar" transform="matrix(12 0 0 -12 559.452 505.235)" fill="#bfbfbf"/><use xlink:href="#aw" transform="matrix(12 0 0 -12 568.71 505.311)" fill="#bfbfbf"/><use xlink:href="#aG" transform="matrix(12 0 0 -12 575.122 505.311)" fill="#bfbfbf"/><use xlink:href="#at" transform="matrix(12 0 0 -12 581.348 505.311)" fill="#bfbfbf"/><use xlink:href="#aE" transform="matrix(12 0 0 -12 587.703 505.235)" fill="#bfbfbf"/><path stroke-width="1.524" stroke-linecap="square" stroke-miterlimit="8" fill="none" stroke="#bfbfbf" d="M894.375 470.037c0 4.374-.59 7.92-1.32 7.92h-83.354c-.729 0-1.32 3.546-1.32 7.92 0-4.374-.59-7.92-1.32-7.92h-83.353c-.73 0-1.32-3.546-1.32-7.92"/><symbol id="aS"><path d="M.328.037A.12.12 0 0 0 .327.02.038.038 0 0 0 .323.009.016.016 0 0 0 .318.002.013.013 0 0 0 .31 0H.03A.036.036 0 0 0 .01.007C.003.013 0 .021 0 .034V.62c0 .003 0 .005.002.007A.012.012 0 0 0 .009.63a.117.117 0 0 0 .053.003C.068.633.072.632.075.63A.012.012 0 0 0 .082.626.012.012 0 0 0 .084.619V.073h.227C.313.073.316.072.318.07A.013.013 0 0 0 .323.064a.028.028 0 0 0 .004-.01.12.12 0 0 0 0-.017z"/></symbol><use xlink:href="#aS" transform="matrix(12 0 0 -12 746.786 505.44)" fill="#bfbfbf"/><use xlink:href="#az" transform="matrix(12 0 0 -12 751.558 505.475)" fill="#bfbfbf"/><use xlink:href="#ay" transform="matrix(12 0 0 -12 754.432 505.475)" fill="#bfbfbf"/><use xlink:href="#aK" transform="matrix(12 0 0 -12 760.68 505.475)" fill="#bfbfbf"/><use xlink:href="#aB" transform="matrix(12 0 0 -12 765.643 505.551)" fill="#bfbfbf"/><use xlink:href="#av" transform="matrix(12 0 0 -12 769.916 505.44)" fill="#bfbfbf"/><use xlink:href="#at" transform="matrix(12 0 0 -12 773.218 505.551)" fill="#bfbfbf"/><use xlink:href="#aB" transform="matrix(12 0 0 -12 779.144 505.551)" fill="#bfbfbf"/><use xlink:href="#aA" transform="matrix(12 0 0 -12 783.479 505.54)" fill="#bfbfbf"/><use xlink:href="#az" transform="matrix(12 0 0 -12 788.07 505.475)" fill="#bfbfbf"/><use xlink:href="#ar" transform="matrix(12 0 0 -12 790.943 505.475)" fill="#bfbfbf"/><use xlink:href="#aD" transform="matrix(12 0 0 -12 800.206 505.551)" fill="#bfbfbf"/><use xlink:href="#aA" transform="matrix(12 0 0 -12 805.496 505.54)" fill="#bfbfbf"/><use xlink:href="#at" transform="matrix(12 0 0 -12 809.72 505.551)" fill="#bfbfbf"/><use xlink:href="#aB" transform="matrix(12 0 0 -12 815.647 505.551)" fill="#bfbfbf"/><use xlink:href="#av" transform="matrix(12 0 0 -12 819.92 505.44)" fill="#bfbfbf"/><use xlink:href="#aA" transform="matrix(12 0 0 -12 822.87 505.54)" fill="#bfbfbf"/><use xlink:href="#aw" transform="matrix(12 0 0 -12 827.088 505.551)" fill="#bfbfbf"/><use xlink:href="#av" transform="matrix(12 0 0 -12 832.942 505.44)" fill="#bfbfbf"/><use xlink:href="#at" transform="matrix(12 0 0 -12 836.223 505.551)" fill="#bfbfbf"/><use xlink:href="#aB" transform="matrix(12 0 0 -12 842.153 505.551)" fill="#bfbfbf"/><use xlink:href="#aA" transform="matrix(12 0 0 -12 846.492 505.54)" fill="#bfbfbf"/><use xlink:href="#az" transform="matrix(12 0 0 -12 851.074 505.475)" fill="#bfbfbf"/><use xlink:href="#ar" transform="matrix(12 0 0 -12 853.939 505.475)" fill="#bfbfbf"/><use xlink:href="#aD" transform="matrix(12 0 0 -12 863.205 505.551)" fill="#bfbfbf"/><use xlink:href="#ay" transform="matrix(12 0 0 -12 869.31 505.475)" fill="#bfbfbf"/><use xlink:href="#aG" transform="matrix(12 0 0 -12 875.229 505.551)" fill="#bfbfbf"/><use xlink:href="#aB" transform="matrix(12 0 0 -12 881.393 505.551)" fill="#bfbfbf"/><use xlink:href="#as" transform="matrix(12 0 0 -12 796.39 520.671)" fill="#bfbfbf"/><use xlink:href="#aN" transform="matrix(12 0 0 -12 801.883 522.693)" fill="#bfbfbf"/><use xlink:href="#av" transform="matrix(12 0 0 -12 807.058 520.56)" fill="#bfbfbf"/><use xlink:href="#ay" transform="matrix(12 0 0 -12 810.702 520.595)" fill="#bfbfbf"/><use xlink:href="#aD" transform="matrix(12 0 0 -12 816.595 520.671)" fill="#bfbfbf"/><use xlink:href="#ar" transform="matrix(12 0 0 -12 822.7 520.595)" fill="#bfbfbf"/><use xlink:href="#at" transform="matrix(12 0 0 -12 831.978 520.671)" fill="#bfbfbf"/><path stroke-width="1.524" stroke-linecap="square" stroke-miterlimit="8" fill="none" stroke="#bfbfbf" d="M111.44 60.277c0-4.413.596-7.99 1.331-7.99h94.055c.735 0 1.331-3.578 1.331-7.991 0 4.413.596 7.99 1.332 7.99h94.054c.736 0 1.332 3.578 1.332 7.991"/><use xlink:href="#ap" transform="matrix(12 0 0 -12 158.912 34.115)" fill="#bfbfbf"/><use xlink:href="#aD" transform="matrix(12 0 0 -12 166.193 34.191)" fill="#bfbfbf"/><use xlink:href="#ar" transform="matrix(12 0 0 -12 172.296 34.115)" fill="#bfbfbf"/><use xlink:href="#at" transform="matrix(12 0 0 -12 181.566 34.191)" fill="#bfbfbf"/><use xlink:href="#av" transform="matrix(12 0 0 -12 187.018 34.08)" fill="#bfbfbf"/><use xlink:href="#aw" transform="matrix(12 0 0 -12 190.291 34.191)" fill="#bfbfbf"/><use xlink:href="#ax" transform="matrix(12 0 0 -12 196.362 34.115)" fill="#bfbfbf"/><use xlink:href="#av" transform="matrix(12 0 0 -12 199.767 34.08)" fill="#bfbfbf"/><use xlink:href="#aG" transform="matrix(12 0 0 -12 203.075 34.191)" fill="#bfbfbf"/><use xlink:href="#at" transform="matrix(12 0 0 -12 209.307 34.191)" fill="#bfbfbf"/><use xlink:href="#aQ" transform="matrix(12 0 0 -12 215.287 34.191)" fill="#bfbfbf"/><use xlink:href="#aE" transform="matrix(12 0 0 -12 220.778 34.115)" fill="#bfbfbf"/><use xlink:href="#aD" transform="matrix(12 0 0 -12 223.166 34.191)" fill="#bfbfbf"/><use xlink:href="#au" transform="matrix(12 0 0 -12 229.27 34.115)" fill="#bfbfbf"/><use xlink:href="#aD" transform="matrix(12 0 0 -12 232.786 34.191)" fill="#bfbfbf"/><use xlink:href="#aA" transform="matrix(12 0 0 -12 238.077 34.18)" fill="#bfbfbf"/><use xlink:href="#az" transform="matrix(12 0 0 -12 242.657 34.115)" fill="#bfbfbf"/><use xlink:href="#aw" transform="matrix(12 0 0 -12 245.15 34.191)" fill="#bfbfbf"/><use xlink:href="#ay" transform="matrix(12 0 0 -12 251.901 34.115)" fill="#bfbfbf"/></svg>